Junicode-Italic.glyphspackage
{
glyphname = quotedbl;
layers = (
{
layerId = master01;
shapes = (
{
closed = 1;
nodes = (
(187,398,o),
(197,400,o),
(199,404,cs),
(287,613,ls),
(292,627,o),
(294,636,o),
(294,639,cs),
(294,657,o),
(282,666,o),
(257,666,cs),
(226,666,o),
(203,652,o),
(199,624,cs),
(166,404,ls),
(165,400,o),
(172,398,o),
(181,398,cs)
);
},
{
closed = 1;
nodes = (
(348,398,o),
(358,400,o),
(360,404,cs),
(448,613,ls),
(453,627,o),
(455,636,o),
(455,639,cs),
(455,657,o),
(443,666,o),
(418,666,cs),
(388,666,o),
(365,652,o),
(360,624,cs),
(327,404,ls),
(326,400,o),
(333,398,o),
(342,398,cs)
);
}
);
width = 367;
},
{
layerId = "2438E31C-45B5-47A7-9B3D-1A0FEFB47671";
shapes = (
{
closed = 1;
nodes = (
(199,398,o),
(208,399,o),
(210,404,cs),
(312,603,ls),
(318,616,o),
(319,625,o),
(319,631,cs),
(319,654,o),
(301,666,o),
(264,666,cs),
(225,666,o),
(192,651,o),
(188,617,cs),
(164,404,ls),
(163,399,o),
(173,398,o),
(185,398,cs)
);
},
{
closed = 1;
nodes = (
(394,398,o),
(403,399,o),
(406,404,cs),
(507,603,ls),
(513,616,o),
(514,625,o),
(514,631,cs),
(514,654,o),
(496,666,o),
(459,666,cs),
(420,666,o),
(387,651,o),
(384,617,cs),
(359,404,ls),
(359,399,o),
(368,398,o),
(381,398,cs)
);
}
);
width = 409;
},
{
layerId = "7904EAEE-2B64-409E-B923-0048172372BE";
shapes = (
{
closed = 1;
nodes = (
(178,398,o),
(189,400,o),
(190,404,cs),
(275,621,ls),
(280,632,o),
(281,637,o),
(281,642,cs),
(281,658,o),
(271,666,o),
(250,666,cs),
(222,666,o),
(202,653,o),
(197,627,cs),
(161,404,ls),
(161,400,o),
(167,398,o),
(175,398,cs)
);
},
{
closed = 1;
nodes = (
(339,398,o),
(350,400,o),
(351,404,cs),
(436,621,ls),
(441,632,o),
(442,637,o),
(442,642,cs),
(442,658,o),
(432,666,o),
(411,666,cs),
(383,666,o),
(363,653,o),
(359,627,cs),
(322,404,ls),
(322,400,o),
(328,398,o),
(336,398,cs)
);
}
);
width = 365;
},
{
layerId = "E06D8587-1A71-4EC2-BD94-397D882F5FC1";
shapes = (
{
closed = 1;
nodes = (
(145,398,o),
(153,400,o),
(155,404,cs),
(225,613,ls),
(229,627,o),
(231,636,o),
(231,639,cs),
(231,657,o),
(221,666,o),
(201,666,cs),
(177,666,o),
(158,652,o),
(155,624,cs),
(128,404,ls),
(128,400,o),
(133,398,o),
(140,398,cs)
);
},
{
closed = 1;
nodes = (
(274,398,o),
(282,400,o),
(283,404,cs),
(354,613,ls),
(358,627,o),
(360,636,o),
(360,639,cs),
(360,657,o),
(350,666,o),
(330,666,cs),
(305,666,o),
(287,652,o),
(283,624,cs),
(257,404,ls),
(257,400,o),
(262,398,o),
(269,398,cs)
);
}
);
width = 294;
},
{
layerId = "8F7CDE40-C368-4484-AA71-76B7ABD5539F";
shapes = (
{
closed = 1;
nodes = (
(223,398,o),
(235,400,o),
(238,404,cs),
(343,613,ls),
(349,627,o),
(352,636,o),
(352,639,cs),
(352,657,o),
(337,666,o),
(307,666,cs),
(270,666,o),
(243,652,o),
(238,624,cs),
(197,404,ls),
(197,400,o),
(205,398,o),
(216,398,cs)
);
},
{
closed = 1;
nodes = (
(416,398,o),
(428,400,o),
(431,404,cs),
(536,613,ls),
(543,627,o),
(545,636,o),
(545,639,cs),
(545,657,o),
(531,666,o),
(501,666,cs),
(464,666,o),
(436,652,o),
(431,624,cs),
(391,404,ls),
(390,400,o),
(399,398,o),
(409,398,cs)
);
}
);
width = 440;
},
{
layerId = "997BDFA1-EC67-4686-8CFE-E56BDBE179FE";
shapes = (
{
closed = 1;
nodes = (
(187,398,o),
(197,400,o),
(199,404,cs),
(287,613,ls),
(292,627,o),
(294,636,o),
(294,639,cs),
(294,657,o),
(282,666,o),
(257,666,cs),
(226,666,o),
(203,652,o),
(199,624,cs),
(166,404,ls),
(165,400,o),
(172,398,o),
(181,398,cs)
);
},
{
closed = 1;
nodes = (
(348,398,o),
(358,400,o),
(360,404,cs),
(448,613,ls),
(453,627,o),
(455,636,o),
(455,639,cs),
(455,657,o),
(443,666,o),
(418,666,cs),
(388,666,o),
(365,652,o),
(360,624,cs),
(327,404,ls),
(326,400,o),
(333,398,o),
(342,398,cs)
);
}
);
width = 367;
}
);
unicode = 34;
userData = {
KernOnSpecialSpacing = {
L = NoKerning;
R = NoKerning;
};
};
}
{
glyphname = numbersign;
layers = (
{
layerId = master01;
shapes = (
{
closed = 1;
nodes = (
(78,0,l),
(132,128,l),
(200,128,l),
(146,0,l),
(185,0,l),
(240,128,l),
(310,128,l),
(320,168,l),
(257,168,l),
(301,272,l),
(372,272,l),
(382,312,l),
(318,312,l),
(366,423,l),
(326,423,l),
(278,312,l),
(211,312,l),
(258,423,l),
(218,423,l),
(171,312,l),
(96,312,l),
(85,272,l),
(154,272,l),
(110,168,l),
(34,168,l),
(24,128,l),
(93,128,l),
(39,0,l)
);
},
{
closed = 1;
nodes = (
(194,272,l),
(261,272,l),
(217,168,l),
(149,168,l)
);
}
);
userData = {
RMXScaler = {
height = 69;
width = 69;
};
};
width = 343;
},
{
layerId = "2438E31C-45B5-47A7-9B3D-1A0FEFB47671";
shapes = (
{
closed = 1;
nodes = (
(86,0,l),
(145,122,l),
(190,122,l),
(129,0,l),
(194,0,l),
(254,122,l),
(338,122,l),
(338,182,l),
(283,182,l),
(324,268,l),
(402,268,l),
(404,326,l),
(349,326,l),
(398,423,l),
(335,423,l),
(286,326,l),
(242,326,l),
(289,423,l),
(226,423,l),
(179,326,l),
(94,326,l),
(94,268,l),
(152,268,l),
(110,182,l),
(23,182,l),
(23,122,l),
(80,122,l),
(19,0,l)
);
},
{
closed = 1;
nodes = (
(215,268,l),
(261,268,l),
(218,182,l),
(174,182,l)
);
}
);
userData = {
RMXScaler = {
height = 69;
width = 69;
};
};
width = 365;
},
{
layerId = "7904EAEE-2B64-409E-B923-0048172372BE";
shapes = (
{
closed = 1;
nodes = (
(79,0,l),
(133,130,l),
(208,130,l),
(156,0,l),
(187,0,l),
(240,130,l),
(305,130,l),
(319,164,l),
(254,164,l),
(298,273,l),
(367,273,l),
(380,307,l),
(313,307,l),
(361,423,l),
(328,423,l),
(281,307,l),
(206,307,l),
(254,423,l),
(221,423,l),
(174,307,l),
(101,307,l),
(86,273,l),
(159,273,l),
(115,164,l),
(42,164,l),
(29,130,l),
(102,130,l),
(50,0,l)
);
},
{
closed = 1;
nodes = (
(192,273,l),
(266,273,l),
(222,164,l),
(146,164,l)
);
}
);
userData = {
RMXScaler = {
height = 69;
width = 69;
};
};
width = 344;
},
{
layerId = "E06D8587-1A71-4EC2-BD94-397D882F5FC1";
shapes = (
{
closed = 1;
nodes = (
(58,0,l),
(112,128,l),
(158,128,l),
(104,0,l),
(143,0,l),
(197,128,l),
(256,128,l),
(261,168,l),
(214,168,l),
(257,272,l),
(315,272,l),
(322,312,l),
(274,312,l),
(321,423,l),
(282,423,l),
(235,312,l),
(189,312,l),
(235,423,l),
(196,423,l),
(150,312,l),
(87,312,l),
(80,272,l),
(133,272,l),
(90,168,l),
(26,168,l),
(20,128,l),
(73,128,l),
(19,0,l)
);
},
{
closed = 1;
nodes = (
(172,272,l),
(218,272,l),
(175,168,l),
(129,168,l)
);
}
);
userData = {
RMXScaler = {
height = 69;
width = 69;
};
};
width = 281;
},
{
layerId = "8F7CDE40-C368-4484-AA71-76B7ABD5539F";
shapes = (
{
closed = 1;
nodes = (
(98,0,l),
(152,128,l),
(242,128,l),
(188,0,l),
(227,0,l),
(283,128,l),
(364,128,l),
(379,168,l),
(300,168,l),
(345,272,l),
(429,272,l),
(442,312,l),
(362,312,l),
(411,423,l),
(370,423,l),
(321,312,l),
(233,312,l),
(281,423,l),
(240,423,l),
(192,312,l),
(105,312,l),
(90,272,l),
(175,272,l),
(130,168,l),
(42,168,l),
(28,128,l),
(113,128,l),
(59,0,l)
);
},
{
closed = 1;
nodes = (
(216,272,l),
(304,272,l),
(259,168,l),
(169,168,l)
);
}
);
userData = {
RMXScaler = {
height = 69;
width = 69;
};
};
width = 405;
},
{
layerId = "997BDFA1-EC67-4686-8CFE-E56BDBE179FE";
shapes = (
{
closed = 1;
nodes = (
(53,0,l),
(107,128,l),
(175,128,l),
(121,0,l),
(160,0,l),
(215,128,l),
(285,128,l),
(295,168,l),
(232,168,l),
(276,272,l),
(347,272,l),
(357,312,l),
(293,312,l),
(341,423,l),
(301,423,l),
(253,312,l),
(186,312,l),
(233,423,l),
(193,423,l),
(146,312,l),
(71,312,l),
(60,272,l),
(129,272,l),
(85,168,l),
(9,168,l),
(-1,128,l),
(68,128,l),
(14,0,l)
);
},
{
closed = 1;
nodes = (
(169,272,l),
(236,272,l),
(192,168,l),
(124,168,l)
);
}
);
userData = {
RMXScaler = {
height = 69;
width = 69;
};
};
width = 343;
}
);
unicode = 35;
userData = {
KernOnSpecialSpacing = {
L = NoKerning;
R = NoKerning;
};
RMXScaler = {
source = numbersign;
};
};
}
{
glyphname = dollar;
layers = (
{
layerId = master01;
shapes = (
{
closed = 1;
nodes = (
(103,-11,l),
(165,-1,o),
(219,48,o),
(219,115,cs),
(219,145,o),
(202,184,o),
(168,233,c),
(202,359,l),
(208,338,o),
(220,328,o),
(238,328,cs),
(251,328,o),
(265,343,o),
(265,357,cs),
(265,383,o),
(239,409,o),
(216,414,c),
(230,467,ls),
(232,478,o),
(195,488,o),
(192,478,cs),
(175,414,l),
(109,403,o),
(77,347,o),
(77,289,cs),
(77,259,o),
(90,226,o),
(115,188,c),
(80,59,l),
(71,72,o),
(57,79,o),
(38,79,cs),
(20,79,o),
(11,59,o),
(11,40,cs),
(11,16,o),
(39,-6,o),
(62,-12,c),
(47,-67,ls),
(45,-77,o),
(83,-85,o),
(85,-76,cs)
);
},
{
closed = 1;
nodes = (
(121,27,o),
(117,27,o),
(113,28,c),
(144,144,l),
(158,120,o),
(165,100,o),
(165,86,cs),
(165,46,o),
(152,27,o),
(125,27,cs)
);
},
{
closed = 1;
nodes = (
(129,301,o),
(124,318,o),
(124,331,cs),
(124,353,o),
(141,385,o),
(163,385,cs),
(164,385,o),
(166,385,o),
(167,385,c),
(139,281,l)
);
}
);
width = 256;
},
{
layerId = "2438E31C-45B5-47A7-9B3D-1A0FEFB47671";
shapes = (
{
closed = 1;
nodes = (
(132,0,l),
(193,13,o),
(254,60,o),
(254,125,cs),
(253,159,o),
(233,197,o),
(195,240,c),
(215,313,l),
(226,302,o),
(241,296,o),
(260,296,cs),
(280,296,o),
(300,318,o),
(300,337,cs),
(300,365,o),
(267,396,o),
(239,402,c),
(255,462,ls),
(258,472,o),
(206,486,o),
(203,476,cs),
(184,402,l),
(130,394,o),
(74,354,o),
(74,276,cs),
(75,244,o),
(91,209,o),
(123,173,c),
(101,91,l),
(88,104,o),
(72,109,o),
(53,109,cs),
(20,109,o),
(7,79,o),
(9,60,cs),
(9,34,o),
(43,3,o),
(76,-1,c),
(58,-67,ls),
(55,-77,o),
(108,-91,o),
(111,-81,cs)
);
},
{
closed = 1;
nodes = (
(153,55,o),
(149,55,o),
(146,56,c),
(165,125,l),
(180,106,o),
(188,92,o),
(188,83,cs),
(188,64,o),
(178,55,o),
(157,55,cs)
);
},
{
closed = 1;
nodes = (
(140,308,o),
(133,322,o),
(133,332,cs),
(133,346,o),
(142,355,o),
(157,355,cs),
(163,355,o),
(167,355,o),
(171,354,c),
(153,290,l)
);
}
);
width = 301;
},
{
layerId = "7904EAEE-2B64-409E-B923-0048172372BE";
shapes = (
{
closed = 1;
nodes = (
(93,-15,l),
(156,-5,o),
(208,44,o),
(208,112,cs),
(208,140,o),
(192,180,o),
(159,231,c),
(197,375,l),
(202,351,o),
(213,339,o),
(230,339,cs),
(240,339,o),
(253,350,o),
(253,363,cs),
(253,393,o),
(229,413,o),
(209,418,c),
(222,469,ls),
(225,479,o),
(191,488,o),
(188,478,cs),
(172,418,l),
(104,407,o),
(78,348,o),
(78,293,cs),
(78,265,o),
(89,231,o),
(112,193,c),
(73,48,l),
(65,62,o),
(52,69,o),
(33,69,cs),
(19,69,o),
(12,53,o),
(12,34,cs),
(12,6,o),
(44,-12,o),
(57,-15,c),
(43,-67,ls),
(41,-76,o),
(75,-84,o),
(78,-74,cs)
);
},
{
closed = 1;
nodes = (
(110,18,o),
(106,18,o),
(103,19,c),
(137,149,l),
(151,124,o),
(157,103,o),
(157,87,cs),
(157,41,o),
(143,18,o),
(114,18,cs)
);
},
{
closed = 1;
nodes = (
(125,299,o),
(121,316,o),
(121,331,cs),
(121,360,o),
(143,395,o),
(163,395,cs),
(164,395,o),
(165,395,o),
(166,395,c),
(135,278,l)
);
}
);
width = 241;
},
{
layerId = "E06D8587-1A71-4EC2-BD94-397D882F5FC1";
shapes = (
{
closed = 1;
nodes = (
(89,-7,l),
(137,2,o),
(189,55,o),
(189,122,cs),
(189,150,o),
(177,187,o),
(149,235,c),
(175,344,l),
(181,324,o),
(193,317,o),
(206,317,cs),
(217,317,o),
(233,334,o),
(233,352,cs),
(233,375,o),
(213,404,o),
(192,410,c),
(206,469,ls),
(208,479,o),
(173,486,o),
(171,476,cs),
(155,410,l),
(101,399,o),
(70,343,o),
(68,285,cs),
(67,256,o),
(76,222,o),
(98,183,c),
(71,69,l),
(63,82,o),
(52,89,o),
(36,89,cs),
(15,89,o),
(7,66,o),
(7,45,cs),
(7,23,o),
(30,-4,o),
(51,-8,c),
(35,-68,ls),
(32,-79,o),
(68,-86,o),
(71,-76,cs)
);
},
{
closed = 1;
nodes = (
(106,36,o),
(103,36,o),
(101,37,c),
(124,138,l),
(135,115,o),
(139,98,o),
(139,87,cs),
(139,54,o),
(128,36,o),
(110,36,cs)
);
},
{
closed = 1;
nodes = (
(114,304,o),
(111,318,o),
(111,329,cs),
(111,348,o),
(124,375,o),
(139,375,cs),
(141,375,o),
(143,375,o),
(145,375,c),
(123,284,l)
);
}
);
width = 222;
},
{
layerId = "8F7CDE40-C368-4484-AA71-76B7ABD5539F";
shapes = (
{
closed = 1;
nodes = (
(116,-15,l),
(178,-8,o),
(249,38,o),
(249,108,cs),
(249,140,o),
(226,181,o),
(186,231,c),
(226,375,l),
(233,350,o),
(247,339,o),
(267,339,cs),
(280,339,o),
(295,350,o),
(295,364,cs),
(295,391,o),
(265,413,o),
(239,418,c),
(254,469,ls),
(257,479,o),
(215,490,o),
(212,480,cs),
(194,418,l),
(113,407,o),
(85,347,o),
(85,298,cs),
(85,266,o),
(100,231,o),
(129,193,c),
(89,48,l),
(80,61,o),
(65,69,o),
(40,69,cs),
(23,69,o),
(15,56,o),
(15,37,cs),
(15,7,o),
(52,-12,o),
(71,-15,c),
(57,-65,ls),
(55,-74,o),
(96,-85,o),
(99,-76,cs)
);
},
{
closed = 1;
nodes = (
(135,18,o),
(130,18,o),
(126,19,c),
(162,149,l),
(179,125,o),
(189,105,o),
(189,81,cs),
(189,39,o),
(173,18,o),
(140,18,cs)
);
},
{
closed = 1;
nodes = (
(143,298,o),
(136,316,o),
(136,332,cs),
(136,352,o),
(153,395,o),
(184,395,cs),
(185,395,o),
(186,395,o),
(187,395,c),
(155,278,l)
);
}
);
width = 289;
},
{
layerId = "997BDFA1-EC67-4686-8CFE-E56BDBE179FE";
shapes = (
{
closed = 1;
nodes = (
(103,-11,l),
(165,-1,o),
(219,48,o),
(219,115,cs),
(219,145,o),
(202,184,o),
(168,233,c),
(202,359,l),
(208,338,o),
(220,328,o),
(238,328,cs),
(251,328,o),
(265,343,o),
(265,357,cs),
(265,383,o),
(239,409,o),
(216,414,c),
(230,469,ls),
(233,480,o),
(195,488,o),
(192,478,cs),
(175,414,l),
(109,403,o),
(77,347,o),
(77,289,cs),
(77,259,o),
(90,226,o),
(115,188,c),
(80,59,l),
(71,72,o),
(57,79,o),
(38,79,cs),
(20,79,o),
(11,59,o),
(11,40,cs),
(11,16,o),
(39,-6,o),
(62,-12,c),
(47,-67,ls),
(44,-77,o),
(82,-86,o),
(85,-76,cs)
);
},
{
closed = 1;
nodes = (
(121,27,o),
(117,27,o),
(113,28,c),
(144,144,l),
(158,120,o),
(165,100,o),
(165,86,cs),
(165,46,o),
(152,27,o),
(125,27,cs)
);
},
{
closed = 1;
nodes = (
(129,301,o),
(124,318,o),
(124,331,cs),
(124,353,o),
(141,385,o),
(163,385,cs),
(165,385,o),
(166,385,o),
(167,385,c),
(139,281,l)
);
}
);
width = 256;
},
{
associatedMasterId = "2438E31C-45B5-47A7-9B3D-1A0FEFB47671";
attr = {
axisRules = (
{
min = 350;
},
{
},
{
}
);
};
layerId = "DAE0B416-E24C-406B-8514-6139EA927A6E";
name = "Sep 25, 21, 07:09";
shapes = (
{
closed = 1;
nodes = (
(183,-13,o),
(254,45,o),
(254,119,cs),
(254,158,o),
(234,199,o),
(193,245,cs),
(153,291,o),
(133,322,o),
(133,339,cs),
(133,352,o),
(143,364,o),
(162,364,cs),
(179,364,o),
(194,354,o),
(206,333,cs),
(217,312,o),
(235,302,o),
(253,302,cs),
(279,302,o),
(300,321,o),
(300,349,cs),
(300,382,o),
(269,416,o),
(212,416,cs),
(146,416,o),
(75,366,o),
(75,285,cs),
(75,244,o),
(94,204,o),
(131,162,cs),
(169,120,o),
(188,92,o),
(188,72,cs),
(188,57,o),
(177,47,o),
(158,47,cs),
(139,47,o),
(123,57,o),
(109,76,cs),
(96,96,o),
(79,105,o),
(58,105,cs),
(28,105,o),
(9,85,o),
(9,57,cs),
(9,18,o),
(46,-13,o),
(94,-13,cs)
);
},
{
closed = 1;
nodes = (
(137,20,l),
(82,18,l),
(58,-67,ls),
(56,-76,o),
(107,-91,o),
(110,-83,cs)
);
},
{
closed = 1;
nodes = (
(234,387,l),
(255,462,ls),
(257,471,o),
(206,486,o),
(203,478,cs),
(180,386,l)
);
}
);
width = 301;
},
{
associatedMasterId = master01;
attr = {
axisRules = (
{
min = 350;
},
{
},
{
}
);
};
layerId = "80D4255C-8496-4012-BF58-91DE61DE05E1";
name = "Sep 25, 21, 07:09";
shapes = (
{
closed = 1;
nodes = (
(153,-13,o),
(219,45,o),
(219,111,cs),
(219,145,o),
(204,182,o),
(172,228,cs),
(140,274,o),
(124,302,o),
(124,331,cs),
(124,357,o),
(138,385,o),
(166,385,cs),
(182,385,o),
(195,375,o),
(203,356,cs),
(211,337,o),
(222,328,o),
(235,328,cs),
(250,328,o),
(265,341,o),
(265,361,cs),
(265,385,o),
(245,416,o),
(196,416,cs),
(133,416,o),
(77,361,o),
(77,292,cs),
(77,256,o),
(92,220,o),
(121,179,cs),
(150,138,o),
(165,112,o),
(165,82,cs),
(165,52,o),
(151,27,o),
(123,27,cs),
(105,27,o),
(92,36,o),
(83,53,cs),
(75,70,o),
(62,79,o),
(44,79,cs),
(24,79,o),
(11,64,o),
(11,42,cs),
(11,9,o),
(39,-13,o),
(79,-13,cs)
);
},
{
closed = 1;
nodes = (
(107,4,l),
(65,3,l),
(47,-67,ls),
(44,-76,o),
(83,-85,o),
(86,-76,cs)
);
},
{
closed = 1;
nodes = (
(213,399,l),
(231,470,ls),
(233,479,o),
(194,486,o),
(192,478,cs),
(172,399,l)
);
}
);
width = 256;
},
{
associatedMasterId = "7904EAEE-2B64-409E-B923-0048172372BE";
attr = {
axisRules = (
{
min = 350;
},
{
},
{
}
);
};
layerId = "D1DBFA6C-77E9-498C-8C68-7FAED49EF289";
name = "Sep 25, 21, 07:10";
shapes = (
{
closed = 1;
nodes = (
(147,-13,o),
(208,42,o),
(208,113,cs),
(208,140,o),
(194,177,o),
(165,222,cs),
(136,268,o),
(121,303,o),
(121,329,cs),
(121,351,o),
(138,392,o),
(165,392,cs),
(185,392,o),
(198,383,o),
(203,364,cs),
(207,346,o),
(216,337,o),
(230,337,cs),
(239,337,o),
(254,347,o),
(254,361,cs),
(254,386,o),
(228,416,o),
(196,416,cs),
(119,416,o),
(78,360,o),
(78,292,cs),
(78,261,o),
(91,225,o),
(118,184,cs),
(145,144,o),
(158,112,o),
(158,88,cs),
(158,43,o),
(144,20,o),
(115,20,cs),
(95,20,o),
(82,29,o),
(75,45,cs),
(68,62,o),
(56,70,o),
(41,70,cs),
(24,70,o),
(12,58,o),
(12,40,cs),
(12,12,o),
(41,-13,o),
(72,-13,cs)
);
},
{
closed = 1;
nodes = (
(99,4,l),
(62,4,l),
(43,-67,ls),
(41,-76,o),
(75,-85,o),
(77,-76,cs)
);
},
{
closed = 1;
nodes = (
(205,402,l),
(222,469,ls),
(225,478,o),
(190,486,o),
(188,478,cs),
(167,402,l)
);
}
);
width = 241;
},
{
associatedMasterId = "E06D8587-1A71-4EC2-BD94-397D882F5FC1";
attr = {
axisRules = (
{
min = 350;
},
{
},
{
}
);
};
layerId = "10B35A8E-339D-46AE-8C78-414907AAD0C4";
name = "Sep 25, 21, 07:10";
shapes = (
{
closed = 1;
nodes = (
(131,-13,o),
(189,47,o),
(189,122,cs),
(189,152,o),
(177,190,o),
(150,235,cs),
(123,280,o),
(110,312,o),
(110,332,cs),
(110,350,o),
(120,385,o),
(141,385,cs),
(153,385,o),
(165,376,o),
(172,355,cs),
(178,337,o),
(190,328,o),
(207,328,cs),
(218,328,o),
(234,343,o),
(234,360,cs),
(234,387,o),
(207,416,o),
(177,416,cs),
(115,416,o),
(67,361,o),
(67,281,cs),
(67,250,o),
(77,214,o),
(102,173,cs),
(127,132,o),
(140,102,o),
(140,84,cs),
(140,61,o),
(132,27,o),
(110,27,cs),
(95,27,o),
(84,37,o),
(74,55,cs),
(64,73,o),
(50,79,o),
(36,79,cs),
(18,79,o),
(5,61,o),
(5,38,cs),
(5,12,o),
(34,-13,o),
(63,-13,cs)
);
},
{
closed = 1;
nodes = (
(91,9,l),
(54,8,l),
(33,-71,ls),
(30,-81,o),
(67,-88,o),
(69,-79,cs)
);
},
{
closed = 1;
nodes = (
(188,398,l),
(206,471,ls),
(208,480,o),
(171,487,o),
(169,478,cs),
(150,398,l)
);
}
);
width = 222;
},
{
associatedMasterId = "8F7CDE40-C368-4484-AA71-76B7ABD5539F";
attr = {
axisRules = (
{
min = 350;
},
{
},
{
}
);
};
layerId = "9A3F26B9-8B9F-4057-8285-1DAD7918C031";
name = "Sep 25, 21, 07:10";
shapes = (
{
closed = 1;
nodes = (
(184,-13,o),
(247,34,o),
(247,101,cs),
(247,147,o),
(225,174,o),
(185,223,cs),
(149,267,o),
(128,301,o),
(128,333,cs),
(128,359,o),
(144,385,o),
(176,385,cs),
(197,385,o),
(212,374,o),
(222,357,cs),
(235,335,o),
(241,328,o),
(252,328,cs),
(269,328,o),
(284,339,o),
(284,358,cs),
(284,383,o),
(257,416,o),
(196,416,cs),
(131,416,o),
(78,377,o),
(78,306,cs),
(78,263,o),
(96,229,o),
(133,186,cs),
(170,143,o),
(188,121,o),
(188,83,cs),
(188,49,o),
(171,27,o),
(136,27,cs),
(116,27,o),
(100,35,o),
(90,54,cs),
(82,69,o),
(66,79,o),
(48,79,cs),
(30,79,o),
(16,65,o),
(16,45,cs),
(16,8,o),
(46,-13,o),
(96,-13,cs)
);
},
{
closed = 1;
nodes = (
(117,13,l),
(71,13,l),
(50,-64,ls),
(48,-73,o),
(88,-85,o),
(91,-76,cs)
);
},
{
closed = 1;
nodes = (
(227,400,l),
(246,469,ls),
(249,478,o),
(208,489,o),
(205,480,cs),
(181,400,l)
);
}
);
width = 289;
},
{
associatedMasterId = "997BDFA1-EC67-4686-8CFE-E56BDBE179FE";
attr = {
axisRules = (
{
min = 350;
},
{
},
{
}
);
};
layerId = "CA3777AA-062A-4210-A48D-D91CF2C20036";
name = "Sep 25, 21, 07:10";
shapes = (
{
closed = 1;
nodes = (
(153,-13,o),
(219,45,o),
(219,111,cs),
(219,145,o),
(204,182,o),
(172,228,cs),
(140,274,o),
(124,302,o),
(124,331,cs),
(124,357,o),
(138,385,o),
(166,385,cs),
(182,385,o),
(195,375,o),
(203,356,cs),
(211,337,o),
(222,328,o),
(235,328,cs),
(250,328,o),
(265,341,o),
(265,361,cs),
(265,385,o),
(245,416,o),
(196,416,cs),
(133,416,o),
(77,361,o),
(77,292,cs),
(77,256,o),
(92,220,o),
(121,179,cs),
(150,138,o),
(165,112,o),
(165,82,cs),
(165,52,o),
(151,27,o),
(123,27,cs),
(105,27,o),
(92,36,o),
(83,53,cs),
(75,70,o),
(62,79,o),
(44,79,cs),
(24,79,o),
(11,64,o),
(11,42,cs),
(11,9,o),
(39,-13,o),
(79,-13,cs)
);
},
{
closed = 1;
nodes = (
(107,4,l),
(65,3,l),
(47,-67,ls),
(44,-76,o),
(83,-85,o),
(86,-76,cs)
);
},
{
closed = 1;
nodes = (
(213,399,l),
(231,470,ls),
(233,479,o),
(194,486,o),
(192,478,cs),
(172,399,l)
);
}
);
width = 256;
}
);
unicode = 36;
userData = {
KernOnSpecialSpacing = {
L = NoKerning;
R = NoKerning;
};
};
}
{
glyphname = quotesingle;
layers = (
{
layerId = master01;
shapes = (
{
closed = 1;
nodes = (
(187,398,o),
(197,400,o),
(199,404,cs),
(287,613,ls),
(292,627,o),
(294,636,o),
(294,639,cs),
(294,657,o),
(282,666,o),
(257,666,cs),
(226,666,o),
(203,652,o),
(199,624,cs),
(166,404,ls),
(165,400,o),
(172,398,o),
(181,398,cs)
);
}
);
width = 206;
},
{
layerId = "2438E31C-45B5-47A7-9B3D-1A0FEFB47671";
shapes = (
{
closed = 1;
nodes = (
(199,398,o),
(208,399,o),
(210,404,cs),
(312,603,ls),
(318,616,o),
(319,625,o),
(319,631,cs),
(319,654,o),
(301,666,o),
(264,666,cs),
(225,666,o),
(192,651,o),
(188,617,cs),
(164,404,ls),
(163,399,o),
(173,398,o),
(185,398,cs)
);
}
);
width = 214;
},
{
layerId = "7904EAEE-2B64-409E-B923-0048172372BE";
shapes = (
{
closed = 1;
nodes = (
(178,398,o),
(189,400,o),
(190,404,cs),
(275,621,ls),
(280,632,o),
(281,637,o),
(281,642,cs),
(281,658,o),
(271,666,o),
(250,666,cs),
(222,666,o),
(202,653,o),
(197,627,cs),
(161,404,ls),
(161,400,o),
(167,398,o),
(175,398,cs)
);
}
);
width = 204;
},
{
layerId = "E06D8587-1A71-4EC2-BD94-397D882F5FC1";
shapes = (
{
closed = 1;
nodes = (
(145,399,o),
(153,401,o),
(155,405,cs),
(225,614,ls),
(229,628,o),
(231,637,o),
(231,640,cs),
(231,658,o),
(221,667,o),
(201,667,cs),
(177,667,o),
(158,653,o),
(155,625,cs),
(128,405,ls),
(128,401,o),
(133,399,o),
(140,399,cs)
);
}
);
width = 165;
},
{
layerId = "8F7CDE40-C368-4484-AA71-76B7ABD5539F";
shapes = (
{
closed = 1;
nodes = (
(223,398,o),
(235,400,o),
(238,404,cs),
(343,613,ls),
(349,627,o),
(352,636,o),
(352,639,cs),
(352,657,o),
(337,666,o),
(307,666,cs),
(270,666,o),
(243,652,o),
(238,624,cs),
(197,404,ls),
(197,400,o),
(205,398,o),
(216,398,cs)
);
}
);
width = 247;
},
{
layerId = "997BDFA1-EC67-4686-8CFE-E56BDBE179FE";
shapes = (
{
closed = 1;
nodes = (
(187,398,o),
(197,400,o),
(199,404,cs),
(287,613,ls),
(292,627,o),
(294,636,o),
(294,639,cs),
(294,657,o),
(282,666,o),
(257,666,cs),
(226,666,o),
(203,652,o),
(199,624,cs),
(166,404,ls),
(165,400,o),
(172,398,o),
(181,398,cs)
);
}
);
width = 206;
}
);
unicode = 39;
userData = {
KernOnSpecialSpacing = {
L = NoKerning;
R = NoKerning;
};
};
}
{
glyphname = parenright;
kernLeft = KO_parenright;
kernRight = KO_guillemotleft;
layers = (
{
layerId = master01;
shapes = (
{
closed = 1;
nodes = (
(-64,-173,o),
(-58,-171,o),
(-52,-167,cs),
(128,-42,o),
(305,212,o),
(305,463,cs),
(305,573,o),
(271,657,o),
(205,739,cs),
(201,744,o),
(196,747,o),
(190,747,cs),
(178,747,o),
(168,738,o),
(168,728,cs),
(168,722,o),
(169,717,o),
(171,714,cs),
(218,647,o),
(238,579,o),
(238,482,cs),
(238,268,o),
(127,13,o),
(-75,-141,cs),
(-83,-147,o),
(-88,-153,o),
(-88,-157,cs),
(-88,-167,o),
(-83,-173,o),
(-71,-173,cs)
);
}
);
width = 330;
},
{
layerId = "2438E31C-45B5-47A7-9B3D-1A0FEFB47671";
shapes = (
{
closed = 1;
nodes = (
(-40,-173,o),
(-33,-171,o),
(-27,-167,cs),
(161,-37,o),
(351,213,o),
(351,466,cs),
(351,583,o),
(314,663,o),
(241,744,cs),
(237,749,o),
(232,752,o),
(226,752,cs),
(203,752,o),
(184,739,o),
(184,723,cs),
(184,718,o),
(186,713,o),
(188,709,cs),
(224,646,o),
(240,581,o),
(240,487,cs),
(240,270,o),
(135,20,o),
(-58,-128,cs),
(-66,-135,o),
(-71,-140,o),
(-71,-145,cs),
(-71,-154,o),
(-57,-173,o),
(-46,-173,cs)
);
}
);
width = 338;
},
{
layerId = "7904EAEE-2B64-409E-B923-0048172372BE";
shapes = (
{
closed = 1;
nodes = (
(-76,-173,o),
(-70,-171,o),
(-63,-167,cs),
(112,-44,o),
(286,212,o),
(286,462,cs),
(286,569,o),
(254,655,o),
(189,737,cs),
(186,742,o),
(181,745,o),
(174,745,cs),
(166,745,o),
(158,737,o),
(158,729,cs),
(158,724,o),
(159,719,o),
(162,715,cs),
(211,647,o),
(234,578,o),
(234,480,cs),
(234,267,o),
(121,9,o),
(-84,-146,cs),
(-92,-152,o),
(-97,-157,o),
(-97,-162,cs),
(-97,-171,o),
(-95,-173,o),
(-83,-173,cs)
);
}
);
width = 328;
},
{
layerId = "E06D8587-1A71-4EC2-BD94-397D882F5FC1";
shapes = (
{
closed = 1;
nodes = (
(-54,-173,o),
(-49,-171,o),
(-44,-167,cs),
(100,-42,o),
(241,212,o),
(241,463,cs),
(241,573,o),
(214,657,o),
(162,739,cs),
(159,744,o),
(155,747,o),
(149,747,cs),
(140,747,o),
(132,738,o),
(132,728,cs),
(132,722,o),
(132,717,o),
(134,714,cs),
(172,647,o),
(188,579,o),
(188,482,cs),
(188,268,o),
(99,13,o),
(-62,-141,cs),
(-69,-147,o),
(-73,-153,o),
(-73,-157,cs),
(-73,-167,o),
(-69,-173,o),
(-60,-173,cs)
);
}
);
width = 264;
},
{
layerId = "8F7CDE40-C368-4484-AA71-76B7ABD5539F";
shapes = (
{
closed = 1;
nodes = (
(-81,-173,o),
(-73,-171,o),
(-65,-167,cs),
(149,-42,o),
(362,212,o),
(362,463,cs),
(362,573,o),
(322,657,o),
(243,739,cs),
(238,744,o),
(232,747,o),
(225,747,cs),
(210,747,o),
(197,738,o),
(197,728,cs),
(197,722,o),
(199,717,o),
(202,714,cs),
(258,647,o),
(282,579,o),
(282,482,cs),
(282,268,o),
(148,13,o),
(-93,-141,cs),
(-103,-147,o),
(-109,-153,o),
(-109,-157,cs),
(-109,-167,o),
(-103,-173,o),
(-89,-173,cs)
);
}
);
width = 396;
},
{
layerId = "997BDFA1-EC67-4686-8CFE-E56BDBE179FE";
shapes = (
{
closed = 1;
nodes = (
(-64,-173,o),
(-58,-171,o),
(-52,-167,cs),
(128,-42,o),
(305,212,o),
(305,463,cs),
(305,573,o),
(271,657,o),
(205,739,cs),
(201,744,o),
(196,747,o),
(190,747,cs),
(178,747,o),
(168,738,o),
(168,728,cs),
(168,722,o),
(169,717,o),
(171,714,cs),
(218,647,o),
(238,579,o),
(238,482,cs),
(238,268,o),
(127,13,o),
(-75,-141,cs),
(-83,-147,o),
(-88,-153,o),
(-88,-157,cs),
(-88,-167,o),
(-83,-173,o),
(-71,-173,cs)
);
}
);
width = 330;
}
);
unicode = 41;
userData = {
KernOnSpecialSpacing = {
L = parenthesis;
};
};
}
{
glyphname = plus;
layers = (
{
layerId = master01;
shapes = (
{
closed = 1;
nodes = (
(283,0,l),
(283,181,l),
(446,181,l),
(446,230,l),
(283,230,l),
(283,394,l),
(224,394,l),
(224,230,l),
(61,230,l),
(61,181,l),
(224,181,l),
(224,0,l)
);
}
);
width = 500;
},
{
layerId = "2438E31C-45B5-47A7-9B3D-1A0FEFB47671";
shapes = (
{
closed = 1;
nodes = (
(305,0,l),
(305,177,l),
(461,177,l),
(461,249,l),
(305,249,l),
(305,408,l),
(217,408,l),
(217,249,l),
(60,249,l),
(60,177,l),
(217,177,l),
(217,0,l)
);
}
);
width = 519;
},
{
layerId = "7904EAEE-2B64-409E-B923-0048172372BE";
shapes = (
{
closed = 1;
nodes = (
(271,0,l),
(271,183,l),
(437,183,l),
(437,224,l),
(271,224,l),
(271,389,l),
(223,389,l),
(223,224,l),
(58,224,l),
(58,183,l),
(223,183,l),
(223,0,l)
);
}
);
width = 494;
},
{
layerId = "E06D8587-1A71-4EC2-BD94-397D882F5FC1";
shapes = (
{
closed = 1;
nodes = (
(231,0,l),
(231,180,l),
(360,180,l),
(360,236,l),
(231,236,l),
(231,399,l),
(175,399,l),
(175,236,l),
(46,236,l),
(46,180,l),
(175,180,l),
(175,0,l)
);
}
);
width = 405;
},
{
layerId = "8F7CDE40-C368-4484-AA71-76B7ABD5539F";
shapes = (
{
closed = 1;
nodes = (
(328,0,l),
(328,183,l),
(526,183,l),
(526,224,l),
(328,224,l),
(328,389,l),
(268,389,l),
(268,224,l),
(70,224,l),
(70,183,l),
(268,183,l),
(268,0,l)
);
}
);
width = 595;
},
{
layerId = "997BDFA1-EC67-4686-8CFE-E56BDBE179FE";
shapes = (
{
closed = 1;
nodes = (
(283,0,l),
(283,181,l),
(446,181,l),
(446,230,l),
(283,230,l),
(283,394,l),
(224,394,l),
(224,230,l),
(61,230,l),
(61,181,l),
(224,181,l),
(224,0,l)
);
}
);
width = 500;
}
);
unicode = 43;
userData = {
KernOnSpecialSpacing = {
L = NoKerning;
R = NoKerning;
};
};
}
{
glyphname = comma;
kernLeft = KO_period;
kernRight = KO_guillemotright;
layers = (
{
layerId = master01;
shapes = (
{
closed = 1;
nodes = (
(54,-137,o),
(169,-55,o),
(169,51,cs),
(169,82,o),
(145,115,o),
(106,115,cs),
(68,115,o),
(34,87,o),
(34,53,cs),
(34,32,o),
(47,13,o),
(75,2,cs),
(84,-2,o),
(86,-13,o),
(82,-28,cs),
(67,-78,o),
(8,-134,o),
(-39,-165,cs),
(-46,-169,o),
(-35,-183,o),
(-29,-180,cs)
);
}
);
width = 254;
},
{
layerId = "2438E31C-45B5-47A7-9B3D-1A0FEFB47671";
shapes = (
{
closed = 1;
nodes = (
(21,-150,o),
(182,-50,o),
(182,60,cs),
(182,110,o),
(151,140,o),
(104,140,cs),
(60,140,o),
(20,106,o),
(20,66,cs),
(20,39,o),
(31,14,o),
(58,5,cs),
(66,2,o),
(68,-5,o),
(65,-15,cs),
(53,-50,o),
(15,-89,o),
(-44,-141,cs),
(-53,-149,o),
(-42,-175,o),
(-28,-170,cs)
);
}
);
width = 249;
},
{
layerId = "7904EAEE-2B64-409E-B923-0048172372BE";
shapes = (
{
closed = 1;
nodes = (
(66,-125,o),
(166,-48,o),
(166,56,cs),
(166,80,o),
(144,115,o),
(108,115,cs),
(72,115,o),
(40,89,o),
(40,56,cs),
(40,37,o),
(54,20,o),
(81,9,cs),
(91,5,o),
(94,-8,o),
(89,-25,cs),
(73,-79,o),
(7,-142,o),
(-36,-165,cs),
(-42,-168,o),
(-34,-179,o),
(-28,-176,cs)
);
}
);
width = 256;
},
{
layerId = "E06D8587-1A71-4EC2-BD94-397D882F5FC1";
shapes = (
{
closed = 1;
nodes = (
(22,-150,o),
(129,-61,o),
(129,45,cs),
(129,83,o),
(108,115,o),
(74,115,cs),
(41,115,o),
(12,85,o),
(12,48,cs),
(12,26,o),
(22,5,o),
(44,-6,cs),
(51,-9,o),
(53,-19,o),
(50,-32,cs),
(40,-76,o),
(-1,-127,o),
(-45,-167,cs),
(-52,-174,o),
(-41,-190,o),
(-32,-185,cs)
);
}
);
width = 208;
},
{
layerId = "8F7CDE40-C368-4484-AA71-76B7ABD5539F";
shapes = (
{
closed = 1;
nodes = (
(85,-125,o),
(208,-49,o),
(208,56,cs),
(208,80,o),
(182,115,o),
(137,115,cs),
(94,115,o),
(55,89,o),
(55,56,cs),
(55,37,o),
(72,20,o),
(104,9,cs),
(116,5,o),
(119,-8,o),
(113,-25,cs),
(94,-81,o),
(15,-143,o),
(-36,-166,cs),
(-42,-168,o),
(-35,-180,o),
(-30,-178,cs)
);
}
);
width = 297;
},
{
layerId = "997BDFA1-EC67-4686-8CFE-E56BDBE179FE";
shapes = (
{
closed = 1;
nodes = (
(29,-137,o),
(144,-55,o),
(144,51,cs),
(144,82,o),
(120,115,o),
(81,115,cs),
(43,115,o),
(9,87,o),
(9,53,cs),
(9,32,o),
(22,13,o),
(50,2,cs),
(59,-2,o),
(61,-13,o),
(57,-28,cs),
(42,-78,o),
(-17,-134,o),
(-64,-165,cs),
(-71,-169,o),
(-60,-183,o),
(-54,-180,cs)
);
}
);
width = 255;
}
);
unicode = 44;
userData = {
KernOnSpecialSpacing = {
L = period;
R = period;
};
};
}
{
glyphname = slash;
layers = (
{
layerId = master01;
shapes = (
{
closed = 1;
nodes = (
(397,698,ls),
(401,707,o),
(351,728,o),
(347,719,cs),
(-11,-126,ls),
(-15,-135,o),
(33,-157,o),
(37,-148,cs)
);
}
);
width = 265;
},
{
layerId = "2438E31C-45B5-47A7-9B3D-1A0FEFB47671";
shapes = (
{
closed = 1;
nodes = (
(426,689,ls),
(430,698,o),
(363,726,o),
(359,717,cs),
(6,-116,ls),
(2,-125,o),
(68,-153,o),
(72,-144,cs)
);
}
);
width = 330;
},
{
layerId = "7904EAEE-2B64-409E-B923-0048172372BE";
shapes = (
{
closed = 1;
nodes = (
(398,701,ls),
(402,710,o),
(358,728,o),
(355,720,cs),
(-6,-129,ls),
(-10,-138,o),
(32,-158,o),
(36,-149,cs)
);
}
);
width = 277;
},
{
layerId = "E06D8587-1A71-4EC2-BD94-397D882F5FC1";
shapes = (
{
closed = 1;
nodes = (
(361,701,ls),
(363,709,o),
(314,727,o),
(311,718,cs),
(8,-124,ls),
(4,-132,o),
(54,-150,o),
(57,-141,cs)
);
}
);
width = 275;
},
{
layerId = "8F7CDE40-C368-4484-AA71-76B7ABD5539F";
shapes = (
{
closed = 1;
nodes = (
(468,696,ls),
(472,704,o),
(423,729,o),
(419,720,cs),
(5,-128,ls),
(1,-137,o),
(48,-163,o),
(52,-155,cs)
);
}
);
width = 346;
},
{
layerId = "997BDFA1-EC67-4686-8CFE-E56BDBE179FE";
shapes = (
{
closed = 1;
nodes = (
(397,698,ls),
(401,707,o),
(351,728,o),
(347,719,cs),
(-11,-126,ls),
(-15,-135,o),
(33,-157,o),
(37,-148,cs)
);
}
);
width = 265;
}
);
unicode = 47;
userData = {
KernOnSpecialSpacing = {
L = NoKerning;
R = NoKerning;
};
};
}
{
glyphname = one;
kernLeft = one.osf;
kernRight = one.osf;
layers = (
{
guides = (
{
angle = 74.1324;
pos = (134,207);
}
);
layerId = master01;
shapes = (
{
closed = 1;
nodes = (
(39,-1,o),
(68,0,o),
(112,0,cs),
(156,0,o),
(185,-1,o),
(207,-4,c),
(217,-4,o),
(223,24,o),
(213,24,cs),
(170,24,o),
(158,34,o),
(165,62,cs),
(239,352,ls),
(246,378,o),
(268,391,o),
(306,391,cs),
(316,391,o),
(323,418,o),
(313,418,c),
(293,416,o),
(261,415,o),
(218,415,cs),
(174,415,o),
(142,416,o),
(122,418,c),
(112,418,o),
(105,391,o),
(115,391,cs),
(155,391,o),
(170,379,o),
(163,353,cs),
(90,61,ls),
(84,36,o),
(62,24,o),
(23,24,cs),
(13,24,o),
(6,-4,o),
(16,-4,c)
);
}
);
width = 303;
},
{
layerId = "2438E31C-45B5-47A7-9B3D-1A0FEFB47671";
shapes = (
{
closed = 1;
nodes = (
(27,-1,o),
(58,0,o),
(110,0,cs),
(159,0,o),
(187,-1,o),
(210,-4,c),
(220,-4,o),
(228,33,o),
(218,33,cs),
(184,33,o),
(169,46,o),
(176,71,cs),
(252,343,ls),
(259,368,o),
(274,381,o),
(307,381,cs),
(316,381,o),
(326,417,o),
(316,417,c),
(282,416,o),
(247,414,o),
(213,414,cs),
(178,414,o),
(142,416,o),
(107,417,c),
(97,417,o),
(88,381,o),
(98,381,cs),
(136,381,o),
(146,369,o),
(139,344,cs),
(63,69,ls),
(56,44,o),
(40,33,o),
(9,33,cs),
(-1,33,o),
(-9,-4,o),
(1,-4,c)
);
}
);
width = 299;
},
{
layerId = "7904EAEE-2B64-409E-B923-0048172372BE";
shapes = (
{
closed = 1;
nodes = (
(40,-1,o),
(63,0,o),
(111,0,cs),
(161,0,o),
(185,-1,o),
(205,-4,c),
(215,-4,o),
(220,21,o),
(210,21,cs),
(165,21,o),
(152,31,o),
(159,59,cs),
(232,355,ls),
(238,379,o),
(261,395,o),
(305,395,cs),
(315,395,o),
(321,418,o),
(311,418,c),
(300,416,o),
(294,416,o),
(218,416,cs),
(171,416,o),
(141,416,o),
(126,418,c),
(116,418,o),
(110,395,o),
(120,395,cs),
(163,395,o),
(175,381,o),
(169,356,cs),
(98,59,ls),
(92,34,o),
(67,21,o),
(27,21,cs),
(17,21,o),
(10,-4,o),
(20,-4,c)
);
}
);
width = 303;
},
{
layerId = "E06D8587-1A71-4EC2-BD94-397D882F5FC1";
shapes = (
{
closed = 1;
nodes = (
(34,-1,o),
(60,0,o),
(89,0,cs),
(118,0,o),
(143,-1,o),
(167,-4,c),
(177,-4,o),
(184,24,o),
(174,24,cs),
(130,24,o),
(136,50,o),
(139,62,cs),
(213,352,ls),
(219,376,o),
(234,391,o),
(265,391,cs),
(274,391,o),
(282,417,o),
(272,417,c),
(252,416,o),
(226,415,o),
(192,415,cs),
(159,415,o),
(132,416,o),
(112,417,c),
(102,417,o),
(96,391,o),
(106,391,cs),
(149,391,o),
(143,365,o),
(140,353,cs),
(65,60,ls),
(59,36,o),
(43,24,o),
(16,24,cs),
(6,24,o),
(-1,-4,o),
(9,-4,c)
);
}
);
width = 258;
},
{
layerId = "8F7CDE40-C368-4484-AA71-76B7ABD5539F";
shapes = (
{
closed = 1;
nodes = (
(49,-1,o),
(85,0,o),
(131,0,cs),
(175,0,o),
(213,-1,o),
(243,-4,c),
(253,-4,o),
(261,24,o),
(251,24,cs),
(193,24,o),
(182,42,o),
(187,62,cs),
(261,351,ls),
(269,382,o),
(304,391,o),
(344,391,cs),
(354,391,o),
(361,418,o),
(351,418,c),
(331,416,o),
(293,416,o),
(240,416,cs),
(186,416,o),
(149,416,o),
(129,418,c),
(119,418,o),
(111,391,o),
(121,391,cs),
(180,391,o),
(186,368,o),
(182,352,cs),
(111,62,ls),
(105,37,o),
(75,24,o),
(29,24,cs),
(19,24,o),
(10,-4,o),
(20,-4,c)
);
}
);
width = 343;
},
{
layerId = "997BDFA1-EC67-4686-8CFE-E56BDBE179FE";
shapes = (
{
closed = 1;
nodes = (
(13,-1,o),
(42,0,o),
(86,0,cs),
(130,0,o),
(159,-1,o),
(181,-4,c),
(191,-4,o),
(197,24,o),
(187,24,cs),
(144,24,o),
(132,34,o),
(139,62,cs),
(213,352,ls),
(220,378,o),
(242,391,o),
(280,391,cs),
(290,391,o),
(297,418,o),
(287,418,c),
(267,416,o),
(235,415,o),
(192,415,cs),
(148,415,o),
(116,416,o),
(96,418,c),
(86,418,o),
(79,391,o),
(89,391,cs),
(129,391,o),
(144,379,o),
(137,353,cs),
(64,61,ls),
(58,36,o),
(36,24,o),
(-3,24,cs),
(-13,24,o),
(-20,-4,o),
(-10,-4,c)
);
}
);
width = 302;
}
);
unicode = 49;
}
{
glyphname = two;
kernLeft = two.osf;
kernRight = two.osf;
layers = (
{
layerId = master01;
shapes = (
{
closed = 1;
nodes = (
(44,-1,o),
(71,0,o),
(100,0,cs),
(303,0,ls),
(323,0,o),
(342,-1,o),
(363,-4,c),
(394,47,o),
(411,74,o),
(446,124,c),
(446,131,o),
(429,142,o),
(422,133,cs),
(386,86,o),
(359,58,o),
(326,58,cs),
(158,58,ls),
(143,58,o),
(135,61,o),
(135,65,cs),
(135,70,o),
(140,76,o),
(149,84,cs),
(271,190,ls),
(324,236,o),
(368,284,o),
(368,333,cs),
(368,385,o),
(319,416,o),
(252,416,cs),
(182,416,o),
(140,385,o),
(78,311,cs),
(72,303,o),
(91,286,o),
(98,295,cs),
(133,339,o),
(172,358,o),
(207,358,cs),
(253,358,o),
(275,335,o),
(275,298,cs),
(275,256,o),
(248,214,o),
(172,144,cs),
(121,97,o),
(69,55,o),
(17,24,cs),
(7,18,o),
(1,13,o),
(1,6,cs),
(1,0,o),
(7,-4,o),
(17,-4,c)
);
}
);
width = 467;
},
{
layerId = "2438E31C-45B5-47A7-9B3D-1A0FEFB47671";
shapes = (
{
closed = 1;
nodes = (
(34,-2,o),
(60,0,o),
(96,0,cs),
(298,0,ls),
(318,0,o),
(339,-1,o),
(363,-4,c),
(388,36,o),
(416,78,o),
(451,122,c),
(451,139,o),
(423,147,o),
(417,139,cs),
(403,119,o),
(374,88,o),
(339,88,cs),
(194,88,ls),
(184,88,o),
(177,88,o),
(177,96,cs),
(177,101,o),
(180,106,o),
(190,114,cs),
(278,185,ls),
(336,232,o),
(382,273,o),
(382,327,cs),
(382,380,o),
(337,416,o),
(265,416,cs),
(196,416,o),
(140,383,o),
(70,304,cs),
(63,297,o),
(90,275,o),
(97,282,cs),
(144,332,o),
(171,345,o),
(200,345,cs),
(234,345,o),
(253,329,o),
(253,292,cs),
(253,241,o),
(214,192,o),
(177,158,cs),
(115,101,o),
(59,61,o),
(15,35,cs),
(-2,25,o),
(-10,18,o),
(-10,9,cs),
(-10,0,o),
(0,-4,o),
(15,-4,c)
);
}
);
width = 472;
},
{
layerId = "7904EAEE-2B64-409E-B923-0048172372BE";
shapes = (
{
closed = 1;
nodes = (
(47,-1,o),
(74,0,o),
(101,0,cs),
(305,0,ls),
(325,0,o),
(342,-1,o),
(363,-4,c),
(396,51,o),
(409,72,o),
(444,125,c),
(444,129,o),
(431,138,o),
(425,131,cs),
(383,77,o),
(355,48,o),
(322,48,cs),
(146,48,ls),
(130,48,o),
(121,51,o),
(121,55,cs),
(121,59,o),
(126,65,o),
(136,74,cs),
(267,191,ls),
(321,239,o),
(362,289,o),
(362,335,cs),
(362,387,o),
(313,416,o),
(247,416,cs),
(175,416,o),
(132,385,o),
(79,311,cs),
(73,303,o),
(93,292,o),
(99,300,cs),
(132,344,o),
(173,362,o),
(208,362,cs),
(259,362,o),
(282,338,o),
(282,300,cs),
(282,263,o),
(259,223,o),
(175,144,cs),
(123,95,o),
(73,54,o),
(14,18,cs),
(7,14,o),
(5,9,o),
(5,5,cs),
(5,-1,o),
(9,-4,o),
(17,-4,c)
);
}
);
width = 466;
},
{
layerId = "E06D8587-1A71-4EC2-BD94-397D882F5FC1";
shapes = (
{
closed = 1;
nodes = (
(30,-1,o),
(55,0,o),
(77,0,cs),
(239,0,ls),
(255,0,o),
(271,-1,o),
(289,-4,c),
(315,43,o),
(333,73,o),
(368,124,c),
(368,130,o),
(350,140,o),
(344,130,cs),
(322,93,o),
(294,68,o),
(269,68,cs),
(143,68,ls),
(133,68,o),
(126,69,o),
(126,75,cs),
(126,79,o),
(131,85,o),
(140,94,cs),
(235,188,ls),
(282,234,o),
(329,286,o),
(329,341,cs),
(329,386,o),
(297,416,o),
(243,416,cs),
(193,416,o),
(157,389,o),
(88,310,cs),
(78,299,o),
(101,286,o),
(106,292,cs),
(140,335,o),
(169,354,o),
(195,354,cs),
(226,354,o),
(239,335,o),
(239,306,cs),
(239,258,o),
(207,208,o),
(150,148,cs),
(105,101,o),
(57,58,o),
(14,28,cs),
(-2,17,o),
(-5,11,o),
(-5,7,cs),
(-5,0,o),
(1,-4,o),
(11,-4,c)
);
}
);
width = 388;
},
{
layerId = "8F7CDE40-C368-4484-AA71-76B7ABD5539F";
shapes = (
{
closed = 1;
nodes = (
(56,-1,o),
(86,0,o),
(121,0,cs),
(365,0,ls),
(390,0,o),
(411,-1,o),
(436,-4,c),
(470,51,o),
(482,70,o),
(518,120,c),
(518,126,o),
(501,137,o),
(495,129,cs),
(450,72,o),
(420,48,o),
(384,48,cs),
(174,48,ls),
(154,48,o),
(143,52,o),
(143,55,cs),
(143,57,o),
(145,62,o),
(160,74,cs),
(305,192,ls),
(359,236,o),
(405,283,o),
(405,329,cs),
(405,387,o),
(336,416,o),
(258,416,cs),
(174,416,o),
(124,387,o),
(69,316,cs),
(63,308,o),
(86,295,o),
(92,303,cs),
(131,351,o),
(184,362,o),
(215,362,cs),
(274,362,o),
(308,337,o),
(308,294,cs),
(308,255,o),
(275,213,o),
(197,145,cs),
(143,98,o),
(84,56,o),
(18,20,cs),
(9,15,o),
(5,12,o),
(5,6,cs),
(5,-1,o),
(12,-4,o),
(22,-4,c)
);
}
);
width = 541;
},
{
layerId = "997BDFA1-EC67-4686-8CFE-E56BDBE179FE";
shapes = (
{
closed = 1;
nodes = (
(19,-1,o),
(46,0,o),
(75,0,cs),
(278,0,ls),
(298,0,o),
(317,-1,o),
(338,-4,c),
(369,47,o),
(386,74,o),
(421,124,c),
(421,131,o),
(404,142,o),
(397,133,cs),
(361,86,o),
(334,58,o),
(301,58,cs),
(133,58,ls),
(118,58,o),
(110,61,o),
(110,65,cs),
(110,70,o),
(115,76,o),
(124,84,cs),
(246,190,ls),
(299,236,o),
(343,284,o),
(343,333,cs),
(343,385,o),
(294,416,o),
(227,416,cs),
(157,416,o),
(115,385,o),
(53,311,cs),
(47,303,o),
(66,286,o),
(73,295,cs),
(108,339,o),
(147,358,o),
(182,358,cs),
(228,358,o),
(250,335,o),
(250,298,cs),
(250,256,o),
(223,214,o),
(147,144,cs),
(96,97,o),
(44,55,o),
(-8,24,cs),
(-18,18,o),
(-24,13,o),
(-24,6,cs),
(-24,0,o),
(-18,-4,o),
(-8,-4,c)
);
}
);
width = 468;
}
);
unicode = 50;
}
{
glyphname = four;
kernLeft = four.osf;
kernRight = four.osf;
layers = (
{
layerId = master01;
shapes = (
{
closed = 1;
nodes = (
(245,-191,o),
(255,-187,o),
(257,-179,cs),
(303,2,ls),
(308,22,o),
(313,26,o),
(328,26,cs),
(412,26,ls),
(422,26,o),
(435,74,o),
(425,74,cs),
(335,74,ls),
(324,74,o),
(323,81,o),
(328,101,cs),
(409,423,l),
(409,431,o),
(405,433,o),
(401,433,cs),
(397,433,o),
(391,431,o),
(385,425,cs),
(-18,46,ls),
(-21,43,o),
(-23,40,o),
(-23,35,cs),
(-23,28,o),
(-19,26,o),
(-16,26,cs),
(215,26,ls),
(230,26,o),
(235,22,o),
(230,2,cs),
(185,-181,l),
(185,-187,o),
(193,-191,o),
(218,-191,cs)
);
},
{
closed = 1;
nodes = (
(67,74,o),
(69,84,o),
(79,94,cs),
(291,298,ls),
(296,303,o),
(299,304,o),
(301,304,cs),
(305,304,o),
(305,299,o),
(303,291,cs),
(255,101,ls),
(249,77,o),
(245,74,o),
(228,74,cs),
(84,74,ls)
);
}
);
width = 469;
},
{
layerId = "2438E31C-45B5-47A7-9B3D-1A0FEFB47671";
shapes = (
{
closed = 1;
nodes = (
(258,-191,o),
(273,-185,o),
(275,-177,cs),
(326,11,ls),
(329,22,o),
(335,26,o),
(341,26,cs),
(415,26,ls),
(425,26,o),
(435,86,o),
(425,86,cs),
(363,86,ls),
(352,86,o),
(347,91,o),
(350,103,cs),
(428,403,l),
(427,421,o),
(418,433,o),
(401,433,cs),
(392,433,o),
(383,429,o),
(372,419,cs),
(-19,52,ls),
(-23,48,o),
(-26,44,o),
(-26,38,cs),
(-26,30,o),
(-19,26,o),
(-7,26,cs),
(201,26,ls),
(214,26,o),
(218,21,o),
(215,9,cs),
(166,-179,l),
(166,-187,o),
(191,-191,o),
(221,-191,cs)
);
},
{
closed = 1;
nodes = (
(91,86,o),
(89,93,o),
(98,102,cs),
(267,265,ls),
(269,267,o),
(274,270,o),
(278,270,cs),
(282,270,o),
(281,263,o),
(279,255,cs),
(239,101,ls),
(236,89,o),
(229,86,o),
(222,86,cs),
(104,86,ls)
);
}
);
width = 465;
},
{
layerId = "7904EAEE-2B64-409E-B923-0048172372BE";
shapes = (
{
closed = 1;
nodes = (
(235,-191,o),
(247,-188,o),
(249,-180,cs),
(296,7,ls),
(300,22,o),
(304,26,o),
(322,26,cs),
(409,26,ls),
(419,26,o),
(433,70,o),
(423,70,cs),
(323,70,ls),
(313,70,o),
(313,80,o),
(316,92,cs),
(399,423,l),
(399,428,o),
(398,431,o),
(395,431,cs),
(393,431,o),
(390,429,o),
(384,423,cs),
(-19,44,ls),
(-21,42,o),
(-23,39,o),
(-23,34,cs),
(-23,28,o),
(-22,26,o),
(-13,26,cs),
(218,26,ls),
(235,26,o),
(239,21,o),
(235,5,cs),
(189,-182,l),
(189,-188,o),
(196,-191,o),
(215,-191,cs)
);
},
{
closed = 1;
nodes = (
(59,70,o),
(58,80,o),
(71,92,cs),
(297,309,ls),
(301,313,o),
(305,315,o),
(307,315,cs),
(310,315,o),
(311,311,o),
(309,303,cs),
(257,92,ls),
(252,72,o),
(247,70,o),
(228,70,cs),
(75,70,ls)
);
}
);
width = 468;
},
{
layerId = "E06D8587-1A71-4EC2-BD94-397D882F5FC1";
shapes = (
{
closed = 1;
nodes = (
(191,-191,o),
(207,-188,o),
(209,-178,cs),
(246,4,ls),
(250,24,o),
(255,26,o),
(262,26,cs),
(326,26,ls),
(336,26,o),
(346,78,o),
(336,78,cs),
(273,78,ls),
(263,78,o),
(262,88,o),
(265,103,cs),
(327,417,l),
(327,426,o),
(324,433,o),
(314,433,cs),
(309,433,o),
(303,430,o),
(297,423,cs),
(-19,48,ls),
(-22,44,o),
(-24,42,o),
(-24,36,cs),
(-24,29,o),
(-20,26,o),
(-15,26,cs),
(163,26,ls),
(176,26,o),
(177,18,o),
(174,3,cs),
(138,-181,l),
(138,-187,o),
(149,-191,o),
(172,-191,cs)
);
},
{
closed = 1;
nodes = (
(57,78,o),
(57,87,o),
(65,97,cs),
(218,287,ls),
(221,291,o),
(225,292,o),
(227,292,cs),
(229,292,o),
(230,290,o),
(228,279,cs),
(194,102,ls),
(190,80,o),
(185,78,o),
(176,78,cs),
(70,78,ls)
);
}
);
width = 379;
},
{
layerId = "8F7CDE40-C368-4484-AA71-76B7ABD5539F";
shapes = (
{
closed = 1;
nodes = (
(284,-191,o),
(301,-189,o),
(304,-180,cs),
(360,0,ls),
(366,19,o),
(369,26,o),
(393,26,cs),
(497,26,ls),
(507,26,o),
(523,70,o),
(513,70,cs),
(396,70,ls),
(384,70,o),
(382,77,o),
(389,100,cs),
(490,429,l),
(490,434,o),
(489,432,o),
(487,432,cs),
(481,432,o),
(477,430,o),
(472,426,cs),
(-18,44,ls),
(-22,41,o),
(-23,36,o),
(-23,33,cs),
(-23,29,o),
(-21,26,o),
(-18,26,cs),
(266,26,ls),
(287,26,o),
(290,20,o),
(284,0,cs),
(230,-182,l),
(230,-188,o),
(239,-191,o),
(262,-191,cs)
);
},
{
closed = 1;
nodes = (
(77,70,o),
(77,80,o),
(92,92,cs),
(362,309,ls),
(371,316,o),
(372,315,o),
(374,315,cs),
(379,315,o),
(378,310,o),
(376,303,cs),
(315,100,ls),
(308,77,o),
(305,70,o),
(278,70,cs),
(98,70,ls)
);
}
);
width = 558;
},
{
layerId = "997BDFA1-EC67-4686-8CFE-E56BDBE179FE";
shapes = (
{
closed = 1;
nodes = (
(219,-191,o),
(229,-187,o),
(231,-179,cs),
(277,2,ls),
(282,22,o),
(287,26,o),
(302,26,cs),
(386,26,ls),
(396,26,o),
(409,74,o),
(399,74,cs),
(309,74,ls),
(298,74,o),
(297,81,o),
(302,101,cs),
(383,423,l),
(383,431,o),
(379,433,o),
(375,433,cs),
(371,433,o),
(365,431,o),
(359,425,cs),
(-44,46,ls),
(-47,43,o),
(-49,40,o),
(-49,35,cs),
(-49,28,o),
(-45,26,o),
(-42,26,cs),
(189,26,ls),
(204,26,o),
(209,22,o),
(204,2,cs),
(159,-181,l),
(159,-187,o),
(167,-191,o),
(192,-191,cs)
);
},
{
closed = 1;
nodes = (
(41,74,o),
(43,84,o),
(53,94,cs),
(265,298,ls),
(270,303,o),
(273,304,o),
(275,304,cs),
(279,304,o),
(279,299,o),
(277,291,cs),
(229,101,ls),
(223,77,o),
(219,74,o),
(202,74,cs),
(58,74,ls)
);
}
);
width = 468;
}
);
unicode = 52;
}
{
glyphname = five;
kernLeft = five.osf;
kernRight = five.osf;
layers = (
{
layerId = master01;
shapes = (
{
closed = 1;
nodes = (
(108,-179,o),
(232,-54,o),
(232,72,cs),
(232,120,o),
(211,161,o),
(173,195,cs),
(135,229,o),
(107,256,o),
(107,276,cs),
(107,312,o),
(150,349,o),
(198,349,cs),
(386,349,ls),
(396,349,o),
(436,407,o),
(426,407,cs),
(195,407,ls),
(181,407,o),
(164,402,o),
(148,385,cs),
(95,330,o),
(65,278,o),
(52,245,cs),
(48,235,o),
(47,229,o),
(47,224,cs),
(47,198,o),
(64,182,o),
(114,136,cs),
(141,111,o),
(155,80,o),
(155,42,cs),
(155,-61,o),
(58,-152,o),
(-39,-223,cs),
(-47,-229,o),
(-32,-247,o),
(-23,-243,cs)
);
}
);
width = 392;
},
{
layerId = "2438E31C-45B5-47A7-9B3D-1A0FEFB47671";
shapes = (
{
closed = 1;
nodes = (
(107,-192,o),
(248,-38,o),
(248,79,cs),
(248,125,o),
(217,160,o),
(179,197,cs),
(128,246,o),
(111,263,o),
(111,278,cs),
(111,299,o),
(135,322,o),
(170,322,cs),
(385,322,ls),
(395,322,o),
(434,412,o),
(424,412,cs),
(193,412,ls),
(178,412,o),
(157,406,o),
(138,386,cs),
(104,351,o),
(52,287,o),
(35,233,cs),
(33,227,o),
(32,220,o),
(32,214,cs),
(32,190,o),
(55,168,o),
(96,130,cs),
(123,105,o),
(135,81,o),
(135,45,cs),
(135,-32,o),
(99,-118,o),
(-45,-218,cs),
(-53,-224,o),
(-39,-252,o),
(-30,-248,cs)
);
}
);
width = 389;
},
{
layerId = "7904EAEE-2B64-409E-B923-0048172372BE";
shapes = (
{
closed = 1;
nodes = (
(115,-178,o),
(231,-57,o),
(231,71,cs),
(231,116,o),
(215,161,o),
(177,193,cs),
(146,219,o),
(110,252,o),
(110,275,cs),
(110,316,o),
(159,358,o),
(211,358,cs),
(390,358,ls),
(400,358,o),
(441,406,o),
(431,406,cs),
(200,406,ls),
(186,406,o),
(171,400,o),
(156,384,cs),
(97,323,o),
(69,275,o),
(60,242,cs),
(58,236,o),
(57,228,o),
(57,221,cs),
(57,198,o),
(76,180,o),
(118,144,cs),
(152,115,o),
(166,79,o),
(166,41,cs),
(166,-73,o),
(41,-169,o),
(-36,-227,cs),
(-44,-233,o),
(-31,-248,o),
(-22,-244,cs)
);
}
);
width = 397;
},
{
layerId = "E06D8587-1A71-4EC2-BD94-397D882F5FC1";
shapes = (
{
closed = 1;
nodes = (
(81,-187,o),
(195,-46,o),
(195,81,cs),
(195,121,o),
(178,160,o),
(148,195,cs),
(118,230,o),
(97,257,o),
(97,275,cs),
(97,307,o),
(126,340,o),
(160,340,cs),
(320,340,ls),
(330,340,o),
(363,409,o),
(353,409,cs),
(168,409,ls),
(155,409,o),
(141,401,o),
(128,385,cs),
(89,335,o),
(55,280,o),
(42,232,cs),
(41,227,o),
(40,221,o),
(40,215,cs),
(40,195,o),
(60,170,o),
(90,135,cs),
(112,109,o),
(121,81,o),
(121,50,cs),
(121,-49,o),
(57,-141,o),
(-43,-225,cs),
(-51,-232,o),
(-38,-251,o),
(-29,-246,cs)
);
}
);
width = 320;
},
{
layerId = "8F7CDE40-C368-4484-AA71-76B7ABD5539F";
shapes = (
{
closed = 1;
nodes = (
(148,-177,o),
(274,-62,o),
(274,60,cs),
(274,114,o),
(249,161,o),
(198,194,cs),
(150,225,o),
(113,255,o),
(113,278,cs),
(113,318,o),
(167,358,o),
(228,358,cs),
(444,358,ls),
(454,358,o),
(499,406,o),
(489,406,cs),
(213,406,ls),
(195,406,o),
(179,401,o),
(157,380,cs),
(98,323,o),
(66,272,o),
(56,247,cs),
(53,239,o),
(51,233,o),
(51,228,cs),
(51,199,o),
(75,181,o),
(135,140,cs),
(174,113,o),
(195,77,o),
(195,32,cs),
(195,-77,o),
(65,-167,o),
(-25,-223,cs),
(-33,-228,o),
(-19,-247,o),
(-10,-243,cs)
);
}
);
width = 455;
},
{
layerId = "997BDFA1-EC67-4686-8CFE-E56BDBE179FE";
shapes = (
{
closed = 1;
nodes = (
(83,-179,o),
(207,-54,o),
(207,72,cs),
(207,120,o),
(186,161,o),
(148,195,cs),
(110,229,o),
(82,256,o),
(82,276,cs),
(82,312,o),
(125,349,o),
(173,349,cs),
(361,349,ls),
(371,349,o),
(411,407,o),
(401,407,cs),
(170,407,ls),
(156,407,o),
(139,402,o),
(123,385,cs),
(70,330,o),
(40,278,o),
(27,245,cs),
(23,235,o),
(22,229,o),
(22,224,cs),
(22,198,o),
(39,182,o),
(89,136,cs),
(116,111,o),
(130,80,o),
(130,42,cs),
(130,-61,o),
(33,-152,o),
(-64,-223,cs),
(-72,-229,o),
(-57,-247,o),
(-48,-243,cs)
);
}
);
width = 393;
}
);
unicode = 53;
}
{
glyphname = six;
kernLeft = six.osf;
kernRight = six.osf;
layers = (
{
layerId = master01;
shapes = (
{
closed = 1;
nodes = (
(331,-15,o),
(446,117,o),
(446,237,cs),
(446,319,o),
(396,368,o),
(325,368,cs),
(286,368,o),
(249,355,o),
(216,331,cs),
(209,326,o),
(205,324,o),
(202,324,cs),
(199,324,o),
(197,326,o),
(197,329,cs),
(197,331,o),
(199,336,o),
(203,342,cs),
(282,458,o),
(425,572,o),
(576,616,cs),
(592,621,o),
(586,641,o),
(565,635,cs),
(276,559,o),
(46,349,o),
(46,127,cs),
(46,28,o),
(95,-15,o),
(181,-15,cs)
);
},
{
closed = 1;
nodes = (
(158,18,o),
(124,53,o),
(124,128,cs),
(124,224,o),
(195,313,o),
(287,313,cs),
(338,313,o),
(364,271,o),
(364,210,cs),
(364,115,o),
(299,18,o),
(217,18,cs)
);
}
);
width = 481;
},
{
layerId = "2438E31C-45B5-47A7-9B3D-1A0FEFB47671";
shapes = (
{
closed = 1;
nodes = (
(356,-15,o),
(471,102,o),
(471,230,cs),
(471,316,o),
(409,368,o),
(327,368,cs),
(306,368,o),
(283,363,o),
(260,354,cs),
(255,352,o),
(249,350,o),
(247,350,cs),
(245,350,o),
(242,352,o),
(242,355,cs),
(242,358,o),
(244,363,o),
(251,371,cs),
(357,493,o),
(443,572,o),
(588,613,cs),
(602,617,o),
(593,641,o),
(578,637,cs),
(279,567,o),
(34,360,o),
(34,136,cs),
(34,48,o),
(82,-15,o),
(187,-15,cs)
);
},
{
closed = 1;
nodes = (
(179,26,o),
(148,68,o),
(148,138,cs),
(148,227,o),
(200,305,o),
(285,305,cs),
(314,305,o),
(352,277,o),
(352,211,cs),
(352,118,o),
(311,26,o),
(227,26,cs)
);
}
);
width = 498;
},
{
layerId = "7904EAEE-2B64-409E-B923-0048172372BE";
shapes = (
{
closed = 1;
nodes = (
(327,-15,o),
(443,121,o),
(443,241,cs),
(443,320,o),
(398,368,o),
(330,368,cs),
(286,368,o),
(245,354,o),
(205,323,cs),
(198,318,o),
(196,315,o),
(192,315,cs),
(188,315,o),
(187,318,o),
(187,320,cs),
(187,322,o),
(188,327,o),
(192,333,cs),
(262,445,o),
(423,569,o),
(580,619,cs),
(588,622,o),
(588,639,o),
(571,635,cs),
(282,562,o),
(55,346,o),
(55,124,cs),
(55,21,o),
(104,-15,o),
(184,-15,cs)
);
},
{
closed = 1;
nodes = (
(156,16,o),
(121,48,o),
(121,125,cs),
(121,222,o),
(197,315,o),
(293,315,cs),
(349,315,o),
(373,271,o),
(373,208,cs),
(373,113,o),
(300,16,o),
(219,16,cs)
);
}
);
width = 475;
},
{
layerId = "E06D8587-1A71-4EC2-BD94-397D882F5FC1";
shapes = (
{
closed = 1;
nodes = (
(257,-15,o),
(380,122,o),
(380,260,cs),
(380,326,o),
(345,368,o),
(289,368,cs),
(264,368,o),
(237,358,o),
(212,338,cs),
(207,334,o),
(204,333,o),
(201,333,cs),
(199,333,o),
(198,334,o),
(198,336,cs),
(198,340,o),
(200,344,o),
(204,350,cs),
(291,470,o),
(398,569,o),
(522,615,cs),
(531,618,o),
(525,639,o),
(516,636,cs),
(272,568,o),
(32,332,o),
(32,96,cs),
(32,26,o),
(63,-15,o),
(131,-15,cs)
);
},
{
closed = 1;
nodes = (
(126,21,o),
(106,51,o),
(106,103,cs),
(106,213,o),
(177,311,o),
(251,311,cs),
(282,311,o),
(298,278,o),
(298,235,cs),
(298,130,o),
(231,21,o),
(165,21,cs)
);
}
);
width = 452;
},
{
layerId = "8F7CDE40-C368-4484-AA71-76B7ABD5539F";
shapes = (
{
closed = 1;
nodes = (
(396,-15,o),
(516,109,o),
(516,225,cs),
(516,317,o),
(448,368,o),
(368,368,cs),
(313,368,o),
(267,353,o),
(227,324,cs),
(220,319,o),
(214,315,o),
(210,315,cs),
(206,315,o),
(204,317,o),
(204,321,cs),
(204,323,o),
(205,328,o),
(208,332,cs),
(282,444,o),
(457,568,o),
(643,618,cs),
(654,621,o),
(643,637,o),
(636,636,cs),
(307,570,o),
(60,365,o),
(60,151,cs),
(60,23,o),
(133,-15,o),
(230,-15,cs)
);
},
{
closed = 1;
nodes = (
(194,16,o),
(141,52,o),
(141,140,cs),
(141,232,o),
(220,315,o),
(328,315,cs),
(395,315,o),
(434,266,o),
(434,192,cs),
(434,101,o),
(360,16,o),
(268,16,cs)
);
}
);
width = 521;
},
{
layerId = "997BDFA1-EC67-4686-8CFE-E56BDBE179FE";
shapes = (
{
closed = 1;
nodes = (
(331,-15,o),
(446,117,o),
(446,237,cs),
(446,319,o),
(396,368,o),
(325,368,cs),
(286,368,o),
(249,355,o),
(216,331,cs),
(209,326,o),
(205,324,o),
(202,324,cs),
(199,324,o),
(197,326,o),
(197,329,cs),
(197,331,o),
(199,336,o),
(203,342,cs),
(282,458,o),
(425,572,o),
(576,616,cs),
(592,621,o),
(586,641,o),
(565,635,cs),
(276,559,o),
(46,349,o),
(46,127,cs),
(46,28,o),
(95,-15,o),
(181,-15,cs)
);
},
{
closed = 1;
nodes = (
(158,18,o),
(124,53,o),
(124,128,cs),
(124,224,o),
(195,313,o),
(287,313,cs),
(338,313,o),
(364,271,o),
(364,210,cs),
(364,115,o),
(299,18,o),
(217,18,cs)
);
}
);
width = 481;
}
);
unicode = 54;
}
{
glyphname = nine;
kernRight = nine.osf;
layers = (
{
guides = (
{
angle = 68.1986;
pos = (239,229);
}
);
layerId = master01;
shapes = (
{
closed = 1;
nodes = (
(-79,-227,o),
(-69,-224,cs),
(169,-142,o),
(429,32,o),
(429,277,cs),
(429,375,o),
(380,416,o),
(292,416,cs),
(147,416,o),
(30,299,o),
(30,162,cs),
(30,83,o),
(77,41,o),
(155,41,cs),
(185,41,o),
(221,52,o),
(260,79,cs),
(267,84,o),
(272,85,o),
(274,85,cs),
(279,85,o),
(281,83,o),
(281,81,cs),
(281,78,o),
(279,76,o),
(275,70,cs),
(204,-33,o),
(76,-149,o),
(-77,-206,cs),
(-86,-209,o)
);
},
{
closed = 1;
nodes = (
(135,96,o),
(112,135,o),
(112,194,cs),
(112,290,o),
(178,383,o),
(258,383,cs),
(318,383,o),
(351,346,o),
(351,278,cs),
(351,181,o),
(281,96,o),
(187,96,cs)
);
}
);
width = 458;
},
{
layerId = "2438E31C-45B5-47A7-9B3D-1A0FEFB47671";
shapes = (
{
closed = 1;
nodes = (
(-79,-228,o),
(-67,-224,cs),
(96,-170,o),
(449,-14,o),
(449,267,cs),
(449,353,o),
(408,416,o),
(296,416,cs),
(156,416,o),
(14,294,o),
(14,175,cs),
(14,92,o),
(76,41,o),
(157,41,cs),
(181,41,o),
(204,49,o),
(229,60,cs),
(234,62,o),
(237,63,o),
(241,63,cs),
(243,63,o),
(246,61,o),
(246,58,cs),
(246,55,o),
(243,50,o),
(236,41,cs),
(153,-59,o),
(90,-107,o),
(-78,-200,cs),
(-90,-207,o)
);
},
{
closed = 1;
nodes = (
(156,105,o),
(131,136,o),
(131,198,cs),
(131,273,o),
(182,376,o),
(255,376,cs),
(305,376,o),
(334,341,o),
(334,268,cs),
(334,188,o),
(285,105,o),
(201,105,cs)
);
}
);
width = 476;
},
{
layerId = "7904EAEE-2B64-409E-B923-0048172372BE";
shapes = (
{
closed = 1;
nodes = (
(-84,-228,o),
(-75,-225,cs),
(192,-137,o),
(420,47,o),
(420,280,cs),
(420,383,o),
(368,416,o),
(288,416,cs),
(141,416,o),
(32,301,o),
(32,158,cs),
(32,81,o),
(73,41,o),
(152,41,cs),
(187,41,o),
(226,54,o),
(266,84,cs),
(274,90,o),
(280,92,o),
(283,92,cs),
(288,92,o),
(290,91,o),
(290,89,cs),
(290,86,o),
(288,85,o),
(286,81,cs),
(216,-29,o),
(65,-160,o),
(-80,-207,cs),
(-89,-210,o)
);
},
{
closed = 1;
nodes = (
(126,93,o),
(103,134,o),
(103,194,cs),
(103,295,o),
(173,385,o),
(256,385,cs),
(320,385,o),
(354,348,o),
(354,282,cs),
(354,178,o),
(276,93,o),
(181,93,cs)
);
}
);
width = 452;
},
{
layerId = "E06D8587-1A71-4EC2-BD94-397D882F5FC1";
shapes = (
{
closed = 1;
nodes = (
(-61,-227,o),
(-56,-225,cs),
(126,-154,o),
(401,40,o),
(401,304,cs),
(401,374,o),
(370,416,o),
(298,416,cs),
(182,416,o),
(57,285,o),
(57,146,cs),
(57,81,o),
(92,41,o),
(151,41,cs),
(175,41,o),
(199,51,o),
(228,73,cs),
(232,76,o),
(237,78,o),
(238,78,cs),
(242,78,o),
(244,76,o),
(244,73,cs),
(244,71,o),
(241,67,o),
(236,60,cs),
(163,-43,o),
(74,-133,o),
(-64,-206,cs),
(-74,-211,o)
);
},
{
closed = 1;
nodes = (
(151,99,o),
(137,129,o),
(137,172,cs),
(137,273,o),
(203,380,o),
(266,380,cs),
(306,380,o),
(326,350,o),
(326,298,cs),
(326,192,o),
(260,99,o),
(186,99,cs)
);
}
);
width = 422;
},
{
layerId = "8F7CDE40-C368-4484-AA71-76B7ABD5539F";
shapes = (
{
closed = 1;
nodes = (
(-99,-229,o),
(-84,-225,cs),
(214,-142,o),
(464,33,o),
(464,251,cs),
(464,382,o),
(387,416,o),
(290,416,cs),
(124,416,o),
(7,313,o),
(7,181,cs),
(7,79,o),
(70,41,o),
(164,41,cs),
(204,41,o),
(250,54,o),
(296,85,cs),
(304,90,o),
(308,92,o),
(313,92,cs),
(319,92,o),
(321,91,o),
(321,88,cs),
(321,85,o),
(320,83,o),
(318,80,cs),
(244,-28,o),
(82,-161,o),
(-86,-206,cs),
(-105,-211,o)
);
},
{
closed = 1;
nodes = (
(125,93,o),
(90,141,o),
(90,212,cs),
(90,305,o),
(162,385,o),
(255,385,cs),
(330,385,o),
(382,347,o),
(382,265,cs),
(382,169,o),
(301,93,o),
(193,93,cs)
);
}
);
width = 495;
},
{
layerId = "997BDFA1-EC67-4686-8CFE-E56BDBE179FE";
shapes = (
{
closed = 1;
nodes = (
(-79,-227,o),
(-69,-224,cs),
(169,-142,o),
(429,32,o),
(429,277,cs),
(429,375,o),
(380,416,o),
(292,416,cs),
(147,416,o),
(30,299,o),
(30,162,cs),
(30,83,o),
(77,41,o),
(155,41,cs),
(185,41,o),
(221,52,o),
(260,79,cs),
(267,84,o),
(272,85,o),
(274,85,cs),
(279,85,o),
(281,83,o),
(281,81,cs),
(281,78,o),
(279,76,o),
(275,70,cs),
(204,-33,o),
(76,-149,o),
(-77,-206,cs),
(-86,-209,o)
);
},
{
closed = 1;
nodes = (
(135,96,o),
(112,135,o),
(112,194,cs),
(112,290,o),
(178,383,o),
(258,383,cs),
(318,383,o),
(351,346,o),
(351,278,cs),
(351,181,o),
(281,96,o),
(187,96,cs)
);
}
);
width = 458;
}
);
unicode = 57;
}
{
glyphname = colon;
kernLeft = KO_colon;
kernRight = KO_guillemotleft;
layers = (
{
layerId = master01;
shapes = (
{
closed = 1;
nodes = (
(123,-12,o),
(149,8,o),
(149,42,cs),
(149,76,o),
(130,103,o),
(92,103,cs),
(54,103,o),
(30,77,o),
(30,46,cs),
(30,16,o),
(52,-12,o),
(87,-12,cs)
);
},
{
closed = 1;
nodes = (
(208,301,o),
(234,320,o),
(234,354,cs),
(234,387,o),
(216,415,o),
(177,415,cs),
(140,415,o),
(115,390,o),
(115,358,cs),
(115,329,o),
(136,301,o),
(172,301,cs)
);
}
);
width = 259;
},
{
layerId = "2438E31C-45B5-47A7-9B3D-1A0FEFB47671";
shapes = (
{
closed = 1;
nodes = (
(133,-13,o),
(167,19,o),
(167,64,cs),
(167,106,o),
(133,140,o),
(91,140,cs),
(49,140,o),
(15,104,o),
(15,64,cs),
(15,21,o),
(49,-13,o),
(91,-13,cs)
);
},
{
closed = 1;
nodes = (
(214,269,o),
(250,302,o),
(250,345,cs),
(250,389,o),
(216,422,o),
(174,422,cs),
(133,422,o),
(97,387,o),
(97,345,cs),
(97,304,o),
(133,269,o),
(174,269,cs)
);
}
);
width = 261;
},
{
layerId = "7904EAEE-2B64-409E-B923-0048172372BE";
shapes = (
{
closed = 1;
nodes = (
(119,-11,o),
(142,4,o),
(142,34,cs),
(142,65,o),
(128,91,o),
(91,91,cs),
(54,91,o),
(34,67,o),
(34,41,cs),
(34,14,o),
(52,-11,o),
(85,-11,cs)
);
},
{
closed = 1;
nodes = (
(205,312,o),
(227,326,o),
(227,357,cs),
(227,387,o),
(215,413,o),
(177,413,cs),
(141,413,o),
(120,391,o),
(120,363,cs),
(120,337,o),
(136,312,o),
(171,312,cs)
);
}
);
width = 256;
},
{
layerId = "E06D8587-1A71-4EC2-BD94-397D882F5FC1";
shapes = (
{
closed = 1;
nodes = (
(119,-12,o),
(145,8,o),
(145,42,cs),
(145,76,o),
(126,103,o),
(88,103,cs),
(50,103,o),
(26,77,o),
(26,46,cs),
(26,16,o),
(48,-12,o),
(83,-12,cs)
);
},
{
closed = 1;
nodes = (
(185,301,o),
(211,320,o),
(211,354,cs),
(211,387,o),
(193,415,o),
(154,415,cs),
(117,415,o),
(92,390,o),
(92,358,cs),
(92,329,o),
(113,301,o),
(149,301,cs)
);
}
);
width = 233;
},
{
layerId = "8F7CDE40-C368-4484-AA71-76B7ABD5539F";
shapes = (
{
closed = 1;
nodes = (
(129,-12,o),
(155,8,o),
(155,42,cs),
(155,76,o),
(136,103,o),
(98,103,cs),
(59,103,o),
(36,77,o),
(36,46,cs),
(36,16,o),
(58,-12,o),
(93,-12,cs)
);
},
{
closed = 1;
nodes = (
(214,301,o),
(240,320,o),
(240,354,cs),
(240,387,o),
(222,415,o),
(183,415,cs),
(146,415,o),
(121,390,o),
(121,358,cs),
(121,329,o),
(142,301,o),
(178,301,cs)
);
}
);
width = 270;
},
{
layerId = "997BDFA1-EC67-4686-8CFE-E56BDBE179FE";
shapes = (
{
closed = 1;
nodes = (
(97,-12,o),
(123,8,o),
(123,42,cs),
(123,76,o),
(104,103,o),
(66,103,cs),
(28,103,o),
(4,77,o),
(4,46,cs),
(4,16,o),
(26,-12,o),
(61,-12,cs)
);
},
{
closed = 1;
nodes = (
(182,301,o),
(208,320,o),
(208,354,cs),
(208,387,o),
(190,415,o),
(151,415,cs),
(114,415,o),
(89,390,o),
(89,358,cs),
(89,329,o),
(110,301,o),
(146,301,cs)
);
}
);
width = 258;
}
);
unicode = 58;
userData = {
KernOnSpecialSpacing = {
L = "spaced-off";
R = "spaced-off";
};
};
}
{
glyphname = A;
kernLeft = KO_A;
kernRight = KO_A;
layers = (
{
anchors = (
{
name = bottom;
pos = (228,0);
},
{
name = ogonek;
pos = (440,20);
},
{
name = ogonek_above;
pos = (490,653);
},
{
name = top;
pos = (445,666);
},
{
name = zzcurly;
pos = (492,655);
}
);
layerId = master01;
shapes = (
{
closed = 1;
nodes = (
(-28,-1,o),
(7,0,o),
(41,0,cs),
(76,0,o),
(111,-1,o),
(145,-3,c),
(154,-3,o),
(164,34,o),
(156,34,cs),
(85,34,o),
(79,53,o),
(102,89,cs),
(422,575,l),
(432,575,l),
(375,91,ls),
(371,53,o),
(360,34,o),
(305,34,cs),
(296,34,o),
(286,-3,o),
(294,-3,c),
(329,-1,o),
(364,0,o),
(398,0,cs),
(434,0,o),
(468,-1,o),
(503,-3,c),
(512,-3,o),
(521,34,o),
(513,34,cs),
(442,34,o),
(439,53,o),
(443,91,cs),
(500,576,ls),
(506,625,o),
(511,655,o),
(514,667,c),
(514,673,o),
(512,676,o),
(507,676,cs),
(501,676,o),
(491,672,o),
(476,664,cs),
(460,655,o),
(440,646,o),
(415,636,cs),
(395,628,o),
(392,625,o),
(392,622,cs),
(392,619,o),
(393,616,o),
(395,613,cs),
(398,609,o),
(399,606,o),
(399,604,cs),
(399,599,o),
(397,592,o),
(392,585,cs),
(62,98,ls),
(32,53,o),
(11,34,o),
(-53,34,cs),
(-62,34,o),
(-71,-3,o),
(-63,-3,c)
);
},
{
closed = 1;
nodes = (
(429,259,l),
(432,293,l),
(214,293,l),
(193,259,l)
);
}
);
width = 542;
},
{
anchors = (
{
name = bottom;
pos = (244,0);
},
{
name = ogonek;
pos = (442,20);
},
{
name = ogonek_above;
pos = (340,653);
},
{
name = top;
pos = (437,666);
},
{
name = zzcurly;
pos = (484,655);
}
);
layerId = "2438E31C-45B5-47A7-9B3D-1A0FEFB47671";
shapes = (
{
closed = 1;
nodes = (
(-37,-1,o),
(1,0,o),
(39,0,cs),
(76,0,o),
(113,-1,o),
(151,-3,c),
(160,-3,o),
(170,42,o),
(161,42,cs),
(102,42,o),
(90,62,o),
(114,98,cs),
(392,522,l),
(401,522,l),
(350,99,ls),
(346,62,o),
(334,42,o),
(288,42,cs),
(280,42,o),
(268,-3,o),
(278,-3,c),
(316,-1,o),
(353,0,o),
(391,0,cs),
(428,0,o),
(465,-1,o),
(503,-3,c),
(512,-3,o),
(523,42,o),
(514,42,cs),
(457,42,o),
(448,62,o),
(453,99,cs),
(510,562,ls),
(515,600,o),
(521,627,o),
(527,652,c),
(527,668,o),
(520,677,o),
(509,677,cs),
(498,677,o),
(483,673,o),
(466,663,cs),
(448,653,o),
(428,644,o),
(405,636,cs),
(383,628,o),
(372,622,o),
(372,615,cs),
(372,612,o),
(374,608,o),
(377,604,cs),
(380,600,o),
(381,597,o),
(381,593,cs),
(381,590,o),
(380,586,o),
(377,582,cs),
(57,106,ls),
(27,62,o),
(-1,42,o),
(-63,42,cs),
(-72,42,o),
(-83,-3,o),
(-74,-3,c)
);
},
{
closed = 1;
nodes = (
(423,255,l),
(430,296,l),
(214,296,l),
(185,255,l)
);
}
);
width = 543;
},
{
anchors = (
{
name = bottom;
pos = (219,0);
},
{
name = ogonek;
pos = (436,20);
},
{
name = ogonek_above;
pos = (479,653);
},
{
name = top;
pos = (444,666);
},
{
name = zzcurly;
pos = (481,655);
}
);
layerId = "7904EAEE-2B64-409E-B923-0048172372BE";
shapes = (
{
closed = 1;
nodes = (
(-34,-1,o),
(0,0,o),
(38,0,cs),
(77,0,o),
(111,-1,o),
(140,-3,c),
(149,-3,o),
(159,31,o),
(150,31,cs),
(81,31,o),
(72,50,o),
(95,86,cs),
(428,592,l),
(438,592,l),
(380,88,ls),
(376,50,o),
(364,31,o),
(307,31,cs),
(298,31,o),
(288,-3,o),
(296,-3,c),
(326,-1,o),
(359,0,o),
(396,0,cs),
(434,0,o),
(468,-1,o),
(498,-3,c),
(507,-3,o),
(516,31,o),
(507,31,cs),
(435,31,o),
(430,50,o),
(434,88,cs),
(492,580,ls),
(498,633,o),
(503,664,o),
(505,673,c),
(505,675,o),
(504,676,o),
(501,676,cs),
(497,676,o),
(488,672,o),
(474,664,cs),
(459,655,o),
(434,644,o),
(414,636,cs),
(396,629,o),
(394,626,o),
(394,624,cs),
(394,622,o),
(396,619,o),
(398,616,cs),
(400,612,o),
(402,610,o),
(402,607,cs),
(402,602,o),
(398,595,o),
(392,586,cs),
(60,96,ls),
(29,51,o),
(8,31,o),
(-53,31,cs),
(-62,31,o),
(-71,-3,o),
(-63,-3,c)
);
},
{
closed = 1;
nodes = (
(428,261,l),
(430,292,l),
(209,292,l),
(192,261,l)
);
}
);
width = 541;
},
{
anchors = (
{
name = bottom;
pos = (175,0);
},
{
name = ogonek;
pos = (341,20);
},
{
name = ogonek_above;
pos = (396,653);
},
{
name = top;
pos = (364,666);
},
{
name = zzcurly;
pos = (398,655);
}
);
layerId = "E06D8587-1A71-4EC2-BD94-397D882F5FC1";
shapes = (
{
closed = 1;
nodes = (
(-44,-1,o),
(-14,0,o),
(20,0,cs),
(53,0,o),
(83,-1,o),
(106,-3,c),
(115,-3,o),
(122,34,o),
(113,34,cs),
(60,34,o),
(54,53,o),
(74,89,cs),
(332,554,l),
(342,554,l),
(282,91,ls),
(277,52,o),
(267,34,o),
(227,34,cs),
(218,34,o),
(209,-3,o),
(218,-3,c),
(240,-1,o),
(270,0,o),
(303,0,cs),
(337,0,o),
(366,-1,o),
(390,-3,c),
(399,-3,o),
(408,34,o),
(399,34,cs),
(348,34,o),
(343,52,o),
(348,91,cs),
(410,571,ls),
(416,618,o),
(421,646,o),
(425,662,c),
(425,673,o),
(422,676,o),
(417,676,cs),
(409,676,o),
(402,672,o),
(388,663,cs),
(377,656,o),
(356,644,o),
(338,636,cs),
(319,627,o),
(317,623,o),
(317,619,cs),
(317,616,o),
(318,609,o),
(318,610,cs),
(320,605,o),
(322,603,o),
(322,601,cs),
(322,598,o),
(321,593,o),
(316,584,cs),
(38,98,ls),
(11,51,o),
(-8,34,o),
(-59,34,cs),
(-67,34,o),
(-75,-3,o),
(-66,-3,c)
);
},
{
closed = 1;
nodes = (
(337,258,l),
(341,294,l),
(168,294,l),
(148,258,l)
);
}
);
width = 428;
},
{
anchors = (
{
name = bottom;
pos = (276,0);
},
{
name = ogonek;
pos = (535,20);
},
{
name = ogonek_above;
pos = (569,653);
},
{
name = top;
pos = (521,666);
},
{
name = zzcurly;
pos = (571,655);
}
);
layerId = "8F7CDE40-C368-4484-AA71-76B7ABD5539F";
shapes = (
{
closed = 1;
nodes = (
(-17,-1,o),
(22,0,o),
(59,0,cs),
(94,0,o),
(134,-1,o),
(180,-3,c),
(189,-3,o),
(202,34,o),
(193,34,cs),
(106,34,o),
(98,54,o),
(125,89,cs),
(503,591,l),
(515,591,l),
(463,91,ls),
(459,53,o),
(449,34,o),
(378,34,cs),
(370,34,o),
(357,-3,o),
(366,-3,c),
(413,-1,o),
(452,0,o),
(489,0,cs),
(523,0,o),
(564,-1,o),
(609,-3,c),
(618,-3,o),
(628,34,o),
(619,34,cs),
(531,34,o),
(527,53,o),
(531,91,cs),
(582,580,ls),
(587,631,o),
(593,666,o),
(596,673,c),
(596,674,o),
(594,676,o),
(590,676,cs),
(586,676,o),
(573,672,o),
(557,664,cs),
(537,654,o),
(517,646,o),
(487,636,cs),
(469,630,o),
(462,626,o),
(462,624,cs),
(462,623,o),
(464,620,o),
(467,616,cs),
(471,612,o),
(472,609,o),
(472,607,cs),
(472,601,o),
(468,594,o),
(462,586,cs),
(82,99,ls),
(47,54,o),
(22,34,o),
(-52,34,cs),
(-61,34,o),
(-72,-3,o),
(-64,-3,c)
);
},
{
closed = 1;
nodes = (
(516,261,l),
(518,292,l),
(255,292,l),
(234,261,l)
);
}
);
width = 652;
},
{
anchors = (
{
name = bottom;
pos = (228,0);
},
{
name = ogonek;
pos = (440,20);
},
{
name = ogonek_above;
pos = (490,653);
},
{
name = top;
pos = (445,666);
},
{
name = zzcurly;
pos = (492,655);
}
);
layerId = "997BDFA1-EC67-4686-8CFE-E56BDBE179FE";
shapes = (
{
closed = 1;
nodes = (
(-28,-1,o),
(7,0,o),
(41,0,cs),
(76,0,o),
(111,-1,o),
(145,-3,c),
(154,-3,o),
(164,34,o),
(156,34,cs),
(85,34,o),
(79,53,o),
(102,89,cs),
(422,575,l),
(432,575,l),
(375,91,ls),
(371,53,o),
(360,34,o),
(305,34,cs),
(296,34,o),
(286,-3,o),
(294,-3,c),
(329,-1,o),
(364,0,o),
(398,0,cs),
(434,0,o),
(468,-1,o),
(503,-3,c),
(512,-3,o),
(521,34,o),
(513,34,cs),
(442,34,o),
(439,53,o),
(443,91,cs),
(500,576,ls),
(506,625,o),
(511,655,o),
(514,667,c),
(514,673,o),
(512,676,o),
(507,676,cs),
(501,676,o),
(491,672,o),
(476,664,cs),
(460,655,o),
(440,646,o),
(415,636,cs),
(395,628,o),
(392,625,o),
(392,622,cs),
(392,619,o),
(393,616,o),
(395,613,cs),
(398,609,o),
(399,606,o),
(399,604,cs),
(399,599,o),
(397,592,o),
(392,585,cs),
(62,98,ls),
(32,53,o),
(11,34,o),
(-53,34,cs),
(-62,34,o),
(-71,-3,o),
(-63,-3,c)
);
},
{
closed = 1;
nodes = (
(429,259,l),
(432,293,l),
(214,293,l),
(193,259,l)
);
}
);
width = 542;
}
);
unicode = 65;
userData = {
KernOnName = A;
};
}
{
glyphname = B;
kernLeft = KO_H;
kernRight = KO_B;
layers = (
{
anchors = (
{
name = bottom;
pos = (247,0);
},
{
name = center;
pos = (199,208);
},
{
name = top;
pos = (376,666);
},
{
name = zzcurly;
pos = (344,655);
}
);
guides = (
{
pos = (891,638);
showMeasurement = 1;
}
);
layerId = master01;
shapes = (
{
closed = 1;
nodes = (
(46,-1,o),
(89,0,o),
(131,0,cs),
(173,0,o),
(216,-3,o),
(259,-3,cs),
(431,-3,o),
(556,57,o),
(556,192,cs),
(556,274,o),
(510,322,o),
(425,356,c),
(426,359,l),
(536,372,o),
(605,428,o),
(605,537,cs),
(605,620,o),
(531,666,o),
(432,666,cs),
(191,666,ls),
(182,666,o),
(173,628,o),
(181,628,cs),
(269,628,o),
(268,609,o),
(258,575,cs),
(119,91,ls),
(108,53,o),
(98,34,o),
(14,34,cs),
(5,34,o),
(-5,-3,o),
(4,-3,c)
);
},
{
closed = 1;
nodes = (
(215,28,o),
(192,46,o),
(192,82,cs),
(192,94,o),
(195,112,o),
(202,135,cs),
(261,342,l),
(315,342,ls),
(412,342,o),
(482,300,o),
(482,208,cs),
(482,86,o),
(386,28,o),
(260,28,cs)
);
},
{
closed = 1;
nodes = (
(338,608,ls),
(343,629,o),
(355,640,o),
(371,640,cs),
(466,640,o),
(536,612,o),
(536,527,cs),
(536,428,o),
(437,370,o),
(321,370,cs),
(269,370,l)
);
}
);
width = 572;
},
{
anchors = (
{
name = bottom;
pos = (263,0);
},
{
name = center;
pos = (214,208);
},
{
name = top;
pos = (393,666);
},
{
name = zzcurly;
pos = (364,655);
}
);
layerId = "2438E31C-45B5-47A7-9B3D-1A0FEFB47671";
shapes = (
{
closed = 1;
nodes = (
(37,-1,o),
(82,0,o),
(127,0,cs),
(174,0,o),
(220,-3,o),
(266,-3,cs),
(452,-3,o),
(580,79,o),
(580,223,cs),
(580,276,o),
(549,320,o),
(490,356,c),
(493,366,l),
(565,396,o),
(628,457,o),
(628,539,cs),
(628,622,o),
(552,666,o),
(454,666,cs),
(183,666,ls),
(174,666,o),
(161,620,o),
(170,620,cs),
(248,620,o),
(249,600,o),
(239,566,cs),
(98,99,ls),
(87,62,o),
(76,42,o),
(4,42,cs),
(-5,42,o),
(-16,-4,o),
(-8,-4,c)
);
},
{
closed = 1;
nodes = (
(227,36,o),
(211,51,o),
(211,80,cs),
(211,91,o),
(213,102,o),
(216,112,cs),
(284,335,l),
(296,335,ls),
(391,335,o),
(457,316,o),
(457,235,cs),
(457,106,o),
(388,36,o),
(260,36,cs)
);
},
{
closed = 1;
nodes = (
(363,596,ls),
(369,617,o),
(380,627,o),
(396,627,cs),
(469,627,o),
(514,610,o),
(514,537,cs),
(514,432,o),
(433,374,o),
(324,374,cs),
(295,374,l)
);
}
);
width = 596;
},
{
anchors = (
{
name = bottom;
pos = (241,0);
},
{
name = center;
pos = (199,208);
},
{
name = top;
pos = (370,666);
},
{
name = zzcurly;
pos = (324,655);
}
);
layerId = "7904EAEE-2B64-409E-B923-0048172372BE";
shapes = (
{
closed = 1;
nodes = (
(49,-1,o),
(90,0,o),
(131,0,cs),
(173,0,o),
(214,-3,o),
(256,-3,cs),
(424,-3,o),
(548,50,o),
(548,187,cs),
(548,272,o),
(498,321,o),
(408,354,c),
(409,358,l),
(528,366,o),
(596,429,o),
(596,527,cs),
(596,628,o),
(524,666,o),
(425,666,cs),
(194,666,ls),
(185,666,o),
(176,631,o),
(185,631,cs),
(275,631,o),
(274,612,o),
(264,578,cs),
(125,88,ls),
(114,50,o),
(105,31,o),
(17,31,cs),
(8,31,o),
(-1,-3,o),
(8,-3,c)
);
},
{
closed = 1;
nodes = (
(210,25,o),
(185,44,o),
(185,82,cs),
(185,95,o),
(189,115,o),
(196,143,cs),
(253,344,l),
(321,344,ls),
(418,344,o),
(489,295,o),
(489,198,cs),
(489,80,o),
(385,25,o),
(260,25,cs)
);
},
{
closed = 1;
nodes = (
(329,612,ls),
(335,633,o),
(346,644,o),
(362,644,cs),
(465,644,o),
(543,612,o),
(543,523,cs),
(543,427,o),
(437,369,o),
(320,369,cs),
(260,369,l)
);
}
);
width = 580;
},
{
anchors = (
{
name = bottom;
pos = (202,0);
},
{
name = center;
pos = (173,208);
},
{
name = top;
pos = (340,666);
},
{
name = zzcurly;
pos = (305,655);
}
);
layerId = "E06D8587-1A71-4EC2-BD94-397D882F5FC1";
shapes = (
{
closed = 1;
nodes = (
(31,-1,o),
(65,0,o),
(99,0,cs),
(135,0,o),
(171,-3,o),
(208,-3,cs),
(350,-3,o),
(463,67,o),
(463,214,cs),
(463,280,o),
(431,321,o),
(378,358,c),
(379,361,l),
(457,379,o),
(519,442,o),
(519,547,cs),
(519,623,o),
(463,666,o),
(387,666,cs),
(184,666,ls),
(175,666,o),
(165,628,o),
(174,628,cs),
(240,628,o),
(240,610,o),
(230,575,cs),
(91,91,ls),
(80,53,o),
(70,34,o),
(8,34,cs),
(-1,34,o),
(-11,-3,o),
(-2,-3,c)
);
},
{
closed = 1;
nodes = (
(177,28,o),
(162,44,o),
(162,73,cs),
(162,86,o),
(166,102,o),
(172,124,cs),
(235,342,l),
(264,342,ls),
(338,342,o),
(388,309,o),
(388,228,cs),
(388,98,o),
(310,28,o),
(209,28,cs)
);
},
{
closed = 1;
nodes = (
(311,608,ls),
(317,629,o),
(329,640,o),
(345,640,cs),
(404,640,o),
(448,613,o),
(448,540,cs),
(448,432,o),
(366,370,o),
(277,370,cs),
(243,370,l)
);
}
);
width = 475;
},
{
anchors = (
{
name = bottom;
pos = (288,0);
},
{
name = center;
pos = (228,208);
},
{
name = top;
pos = (420,666);
},
{
name = zzcurly;
pos = (363,655);
}
);
layerId = "8F7CDE40-C368-4484-AA71-76B7ABD5539F";
shapes = (
{
closed = 1;
nodes = (
(57,-1,o),
(109,0,o),
(159,0,cs),
(207,0,o),
(257,-3,o),
(305,-3,cs),
(506,-3,o),
(650,48,o),
(650,176,cs),
(650,266,o),
(593,324,o),
(475,355,c),
(475,357,l),
(618,365,o),
(697,418,o),
(697,528,cs),
(697,618,o),
(609,666,o),
(486,666,cs),
(206,666,ls),
(197,666,o),
(187,628,o),
(196,628,cs),
(309,628,o),
(303,605,o),
(293,574,cs),
(145,91,ls),
(134,56,o),
(127,34,o),
(17,34,cs),
(8,34,o),
(-2,-3,o),
(7,-3,c)
);
},
{
closed = 1;
nodes = (
(251,28,o),
(219,48,o),
(219,86,cs),
(219,99,o),
(224,118,o),
(232,146,cs),
(291,342,l),
(369,342,ls),
(487,342,o),
(577,293,o),
(577,192,cs),
(577,78,o),
(458,28,o),
(311,28,cs)
);
},
{
closed = 1;
nodes = (
(371,608,ls),
(377,629,o),
(388,640,o),
(403,640,cs),
(553,640,o),
(630,602,o),
(630,520,cs),
(630,426,o),
(508,370,o),
(368,370,cs),
(300,370,l)
);
}
);
width = 683;
},
{
anchors = (
{
name = bottom;
pos = (247,0);
},
{
name = center;
pos = (199,208);
},
{
name = top;
pos = (376,666);
},
{
name = zzcurly;
pos = (344,655);
}
);
layerId = "997BDFA1-EC67-4686-8CFE-E56BDBE179FE";
shapes = (
{
closed = 1;
nodes = (
(46,-1,o),
(89,0,o),
(131,0,cs),
(173,0,o),
(216,-3,o),
(259,-3,cs),
(431,-3,o),
(556,57,o),
(556,192,cs),
(556,274,o),
(510,322,o),
(425,356,c),
(426,359,l),
(536,372,o),
(605,428,o),
(605,537,cs),
(605,620,o),
(531,666,o),
(432,666,cs),
(191,666,ls),
(182,666,o),
(173,628,o),
(181,628,cs),
(269,628,o),
(268,609,o),
(258,575,cs),
(119,91,ls),
(108,53,o),
(98,34,o),
(14,34,cs),
(5,34,o),
(-5,-3,o),
(4,-3,c)
);
},
{
closed = 1;
nodes = (
(215,28,o),
(192,46,o),
(192,82,cs),
(192,94,o),
(195,112,o),
(202,135,cs),
(261,342,l),
(315,342,ls),
(412,342,o),
(482,300,o),
(482,208,cs),
(482,86,o),
(386,28,o),
(260,28,cs)
);
},
{
closed = 1;
nodes = (
(338,608,ls),
(344,629,o),
(355,640,o),
(371,640,cs),
(466,640,o),
(536,612,o),
(536,527,cs),
(536,428,o),
(437,370,o),
(321,370,cs),
(269,370,l)
);
}
);
width = 572;
}
);
unicode = 66;
userData = {
KernOnName = B;
};
}
{
glyphname = G;
kernLeft = KO_O;
kernRight = KO_G;
layers = (
{
anchors = (
{
name = bottom;
pos = (366,0);
},
{
name = cedilla;
pos = (384,0);
},
{
name = center;
pos = (576,142);
},
{
name = top;
pos = (467,666);
},
{
name = zzcurly;
pos = (416,655);
}
);
layerId = master01;
shapes = (
{
closed = 1;
nodes = (
(456,-13,o),
(516,-6,o),
(588,15,cs),
(595,17,o),
(599,20,o),
(599,31,cs),
(599,50,o),
(578,39,o),
(585,65,cs),
(617,177,ls),
(631,225,o),
(641,234,o),
(702,234,cs),
(711,234,o),
(723,271,o),
(713,271,c),
(693,269,o),
(653,268,o),
(593,268,cs),
(532,268,o),
(490,269,o),
(466,271,c),
(454,271,o),
(446,234,o),
(455,234,cs),
(534,234,o),
(554,227,o),
(554,201,cs),
(554,196,o),
(553,188,o),
(550,177,cs),
(521,76,ls),
(509,33,o),
(461,24,o),
(395,24,cs),
(215,24,o),
(163,145,o),
(163,272,cs),
(163,477,o),
(280,642,o),
(497,642,cs),
(597,642,o),
(665,606,o),
(665,526,cs),
(665,515,o),
(664,505,o),
(662,495,cs),
(660,484,o),
(690,479,o),
(693,490,cs),
(710,545,o),
(721,590,o),
(725,648,c),
(716,649,o),
(693,654,o),
(662,661,cs),
(623,669,o),
(578,676,o),
(514,676,cs),
(264,676,o),
(83,509,o),
(83,280,cs),
(83,116,o),
(185,-13,o),
(405,-13,cs)
);
}
);
width = 694;
},
{
anchors = (
{
name = bottom;
pos = (392,0);
},
{
name = cedilla;
pos = (381,0);
},
{
name = center;
pos = (566,142);
},
{
name = top;
pos = (453,666);
},
{
name = zzcurly;
pos = (400,655);
}
);
layerId = "2438E31C-45B5-47A7-9B3D-1A0FEFB47671";
shapes = (
{
closed = 1;
nodes = (
(451,-13,o),
(516,-8,o),
(597,16,cs),
(606,19,o),
(610,23,o),
(610,37,cs),
(610,55,o),
(591,45,o),
(597,67,c),
(631,182,ls),
(642,218,o),
(651,226,o),
(700,226,cs),
(708,226,o),
(720,273,o),
(710,273,c),
(691,271,o),
(648,270,o),
(581,270,cs),
(513,270,o),
(470,271,o),
(451,273,c),
(440,273,o),
(430,226,o),
(440,226,cs),
(509,226,o),
(526,223,o),
(526,209,cs),
(526,201,o),
(525,196,o),
(523,190,cs),
(500,109,ls),
(486,58,o),
(453,33,o),
(384,33,cs),
(246,33,o),
(180,140,o),
(180,273,cs),
(180,463,o),
(313,636,o),
(493,636,cs),
(575,636,o),
(656,599,o),
(656,517,cs),
(656,508,o),
(656,500,o),
(654,488,cs),
(652,476,o),
(697,476,o),
(700,485,cs),
(719,542,o),
(729,597,o),
(729,649,c),
(709,649,o),
(677,654,o),
(633,663,cs),
(588,672,o),
(552,676,o),
(511,676,cs),
(273,676,o),
(62,520,o),
(62,281,cs),
(62,108,o),
(167,-13,o),
(404,-13,cs)
);
}
);
width = 694;
},
{
anchors = (
{
name = bottom;
pos = (354,0);
},
{
name = cedilla;
pos = (381,0);
},
{
name = center;
pos = (576,142);
},
{
name = top;
pos = (468,666);
},
{
name = zzcurly;
pos = (418,655);
}
);
layerId = "7904EAEE-2B64-409E-B923-0048172372BE";
shapes = (
{
closed = 1;
nodes = (
(454,-13,o),
(512,-5,o),
(581,15,cs),
(588,16,o),
(592,19,o),
(592,29,cs),
(592,48,o),
(570,37,o),
(577,64,cs),
(609,175,ls),
(624,227,o),
(634,237,o),
(699,237,cs),
(709,237,o),
(721,270,o),
(710,270,c),
(690,268,o),
(651,267,o),
(593,267,cs),
(535,267,o),
(493,268,o),
(467,270,c),
(455,270,o),
(447,237,o),
(456,237,cs),
(539,237,o),
(560,228,o),
(560,198,cs),
(560,194,o),
(559,185,o),
(555,173,cs),
(524,65,ls),
(513,25,o),
(460,21,o),
(395,21,cs),
(201,21,o),
(154,147,o),
(154,272,cs),
(154,482,o),
(265,644,o),
(495,644,cs),
(601,644,o),
(664,608,o),
(664,529,cs),
(664,517,o),
(663,507,o),
(661,497,cs),
(659,487,o),
(684,480,o),
(687,492,cs),
(703,546,o),
(715,588,o),
(720,648,c),
(715,649,o),
(695,654,o),
(668,660,cs),
(631,668,o),
(583,676,o),
(511,676,cs),
(257,676,o),
(86,505,o),
(86,280,cs),
(86,119,o),
(187,-13,o),
(402,-13,cs)
);
}
);
width = 696;
},
{
anchors = (
{
name = bottom;
pos = (310,0);
},
{
name = cedilla;
pos = (313,0);
},
{
name = center;
pos = (474,142);
},
{
name = top;
pos = (405,666);
},
{
name = zzcurly;
pos = (362,655);
}
);
layerId = "E06D8587-1A71-4EC2-BD94-397D882F5FC1";
shapes = (
{
closed = 1;
nodes = (
(369,-13,o),
(420,-7,o),
(485,15,cs),
(494,18,o),
(496,22,o),
(496,33,cs),
(496,50,o),
(480,41,o),
(487,65,cs),
(518,178,ls),
(531,225,o),
(541,233,o),
(584,233,cs),
(592,233,o),
(600,271,o),
(594,271,c),
(570,269,o),
(537,268,o),
(492,268,cs),
(448,268,o),
(414,269,o),
(387,271,c),
(380,271,o),
(368,233,o),
(377,233,cs),
(438,233,o),
(451,227,o),
(451,203,cs),
(451,197,o),
(449,190,o),
(446,179,cs),
(420,81,ls),
(408,36,o),
(373,25,o),
(320,25,cs),
(196,25,o),
(151,133,o),
(151,253,cs),
(151,471,o),
(274,641,o),
(434,641,cs),
(505,641,o),
(565,607,o),
(565,531,cs),
(565,517,o),
(562,501,o),
(561,495,cs),
(559,482,o),
(589,479,o),
(592,490,cs),
(610,548,o),
(619,592,o),
(624,648,c),
(615,649,o),
(596,652,o),
(560,661,cs),
(520,671,o),
(488,676,o),
(449,676,cs),
(240,676,o),
(71,497,o),
(71,262,cs),
(71,105,o),
(151,-13,o),
(331,-13,cs)
);
}
);
width = 572;
},
{
anchors = (
{
name = bottom;
pos = (392,0);
},
{
name = cedilla;
pos = (420,0);
},
{
name = center;
pos = (632,142);
},
{
name = top;
pos = (506,666);
},
{
name = zzcurly;
pos = (450,655);
}
);
layerId = "8F7CDE40-C368-4484-AA71-76B7ABD5539F";
shapes = (
{
closed = 1;
nodes = (
(498,-13,o),
(565,-6,o),
(643,15,cs),
(650,17,o),
(655,20,o),
(655,29,cs),
(655,50,o),
(631,37,o),
(639,65,cs),
(672,176,ls),
(687,225,o),
(695,235,o),
(769,235,cs),
(780,235,o),
(790,271,o),
(781,271,c),
(743,268,o),
(698,268,o),
(649,268,cs),
(592,268,o),
(559,268,o),
(510,271,c),
(501,271,o),
(487,235,o),
(498,235,cs),
(585,235,o),
(611,227,o),
(611,201,cs),
(611,193,o),
(609,183,o),
(607,176,cs),
(576,73,ls),
(563,30,o),
(505,24,o),
(433,24,cs),
(223,24,o),
(167,149,o),
(167,278,cs),
(167,479,o),
(285,643,o),
(536,643,cs),
(651,643,o),
(725,606,o),
(725,525,cs),
(725,522,o),
(725,507,o),
(722,495,cs),
(720,486,o),
(750,480,o),
(753,489,cs),
(773,551,o),
(784,598,o),
(787,648,c),
(780,649,o),
(774,651,o),
(723,661,cs),
(687,668,o),
(631,676,o),
(554,676,cs),
(281,676,o),
(87,517,o),
(87,286,cs),
(87,121,o),
(200,-13,o),
(443,-13,cs)
);
}
);
width = 770;
},
{
anchors = (
{
name = bottom;
pos = (366,0);
},
{
name = cedilla;
pos = (384,0);
},
{
name = center;
pos = (576,142);
},
{
name = top;
pos = (467,666);
},
{
name = zzcurly;
pos = (416,655);
}
);
layerId = "997BDFA1-EC67-4686-8CFE-E56BDBE179FE";
shapes = (
{
closed = 1;
nodes = (
(456,-13,o),
(516,-6,o),
(588,15,cs),
(595,17,o),
(599,20,o),
(599,31,cs),
(599,50,o),
(578,39,o),
(585,65,cs),
(617,177,ls),
(631,225,o),
(641,234,o),
(702,234,cs),
(711,234,o),
(723,271,o),
(713,271,c),
(693,269,o),
(653,268,o),
(593,268,cs),
(532,268,o),
(490,269,o),
(466,271,c),
(454,271,o),
(446,234,o),
(455,234,cs),
(534,234,o),
(554,227,o),
(554,201,cs),
(554,196,o),
(553,188,o),
(550,177,cs),
(521,76,ls),
(509,33,o),
(461,24,o),
(395,24,cs),
(215,24,o),
(163,145,o),
(163,272,cs),
(163,477,o),
(280,642,o),
(497,642,cs),
(597,642,o),
(665,606,o),
(665,526,cs),
(665,515,o),
(664,505,o),
(662,495,cs),
(660,484,o),
(690,479,o),
(693,490,cs),
(710,545,o),
(721,590,o),
(725,648,c),
(716,649,o),
(693,654,o),
(662,661,cs),
(623,669,o),
(578,676,o),
(514,676,cs),
(264,676,o),
(83,509,o),
(83,280,cs),
(83,116,o),
(185,-13,o),
(405,-13,cs)
);
}
);
width = 694;
}
);
unicode = 71;
userData = {
KernOnName = G;
};
}
{
glyphname = I;
kernLeft = KO_H;
kernRight = KO_H;
layers = (
{
anchors = (
{
name = bottom;
pos = (128,0);
},
{
name = center;
pos = (227,343);
},
{
name = ogonek;
pos = (193,20);
},
{
name = ogonek_above;
pos = (274,649);
},
{
name = top;
pos = (311,666);
},
{
name = zzcurly;
pos = (232,655);
}
);
guides = (
{
pos = (939,175);
showMeasurement = 1;
},
{
angle = 164.0088;
pos = (360,682);
showMeasurement = 1;
},
{
angle = 268.976;
pos = (188,333);
}
);
layerId = master01;
shapes = (
{
closed = 1;
nodes = (
(46,-1,o),
(87,0,o),
(128,0,cs),
(169,0,o),
(210,-1,o),
(251,-3,c),
(260,-3,o),
(271,34,o),
(262,34,cs),
(182,34,o),
(177,53,o),
(188,91,cs),
(326,575,ls),
(337,612,o),
(351,631,o),
(431,631,cs),
(441,631,o),
(450,668,o),
(441,668,c),
(400,666,o),
(358,666,o),
(317,666,cs),
(275,666,o),
(234,666,o),
(193,668,c),
(183,668,o),
(174,631,o),
(183,631,cs),
(264,631,o),
(267,612,o),
(257,575,cs),
(118,91,ls),
(107,53,o),
(94,34,o),
(14,34,cs),
(5,34,o),
(-5,-3,o),
(4,-3,c)
);
}
);
width = 335;
},
{
anchors = (
{
name = bottom;
pos = (144,0);
},
{
name = center;
pos = (228,343);
},
{
name = ogonek;
pos = (218,20);
},
{
name = ogonek_above;
pos = (278,649);
},
{
name = top;
pos = (317,666);
},
{
name = zzcurly;
pos = (201,655);
}
);
guides = (
{
pos = (958,532);
showMeasurement = 1;
},
{
pos = (939,175);
showMeasurement = 1;
}
);
layerId = "2438E31C-45B5-47A7-9B3D-1A0FEFB47671";
shapes = (
{
closed = 1;
nodes = (
(39,-1,o),
(86,0,o),
(133,0,cs),
(179,0,o),
(226,-1,o),
(273,-4,c),
(282,-4,o),
(294,42,o),
(285,42,cs),
(205,42,o),
(204,61,o),
(215,99,cs),
(350,565,ls),
(361,603,o),
(373,623,o),
(449,623,cs),
(460,623,o),
(471,668,o),
(462,668,c),
(416,667,o),
(369,666,o),
(323,666,cs),
(276,666,o),
(230,667,o),
(183,668,c),
(173,668,o),
(162,623,o),
(170,623,cs),
(244,623,o),
(245,603,o),
(234,565,cs),
(101,99,ls),
(91,61,o),
(76,42,o),
(4,42,cs),
(-5,42,o),
(-16,-4,o),
(-8,-4,c)
);
}
);
width = 366;
},
{
anchors = (
{
name = bottom;
pos = (122,0);
},
{
name = center;
pos = (226,343);
},
{
name = ogonek;
pos = (181,20);
},
{
name = ogonek_above;
pos = (285,649);
},
{
name = top;
pos = (309,666);
},
{
name = zzcurly;
pos = (209,655);
}
);
guides = (
{
pos = (930,532);
showMeasurement = 1;
}
);
layerId = "7904EAEE-2B64-409E-B923-0048172372BE";
shapes = (
{
closed = 1;
nodes = (
(47,-1,o),
(86,0,o),
(126,0,cs),
(165,0,o),
(204,-1,o),
(244,-3,c),
(256,-3,o),
(263,31,o),
(254,31,cs),
(172,31,o),
(169,51,o),
(179,88,cs),
(320,578,ls),
(330,614,o),
(341,634,o),
(427,634,cs),
(435,634,o),
(444,668,o),
(435,668,c),
(396,666,o),
(356,666,o),
(316,666,cs),
(276,666,o),
(237,666,o),
(197,668,c),
(188,668,o),
(179,634,o),
(188,634,cs),
(274,634,o),
(276,614,o),
(265,578,cs),
(123,88,ls),
(112,51,o),
(100,31,o),
(17,31,cs),
(10,31,o),
(-3,-3,o),
(8,-3,c)
);
}
);
width = 343;
},
{
anchors = (
{
name = bottom;
pos = (106,0);
},
{
name = center;
pos = (202,343);
},
{
name = ogonek;
pos = (156,20);
},
{
name = ogonek_above;
pos = (275,649);
},
{
name = top;
pos = (291,666);
},
{
name = zzcurly;
pos = (199,655);
}
);
layerId = "E06D8587-1A71-4EC2-BD94-397D882F5FC1";
shapes = (
{
closed = 1;
nodes = (
(33,-1,o),
(67,0,o),
(103,0,cs),
(137,0,o),
(172,-1,o),
(207,-3,c),
(216,-3,o),
(226,34,o),
(217,34,cs),
(153,34,o),
(153,53,o),
(164,91,cs),
(304,575,ls),
(315,613,o),
(329,631,o),
(390,631,cs),
(399,631,o),
(409,668,o),
(400,668,c),
(365,666,o),
(330,666,o),
(295,666,cs),
(261,666,o),
(226,666,o),
(191,668,c),
(182,668,o),
(172,631,o),
(181,631,cs),
(243,631,o),
(242,610,o),
(232,575,cs),
(93,91,ls),
(82,53,o),
(71,34,o),
(8,34,cs),
(-1,34,o),
(-11,-3,o),
(-2,-3,c)
);
}
);
width = 291;
},
{
anchors = (
{
name = bottom;
pos = (146,0);
},
{
name = center;
pos = (257,343);
},
{
name = ogonek;
pos = (226,20);
},
{
name = ogonek_above;
pos = (293,649);
},
{
name = top;
pos = (345,666);
},
{
name = zzcurly;
pos = (216,655);
}
);
layerId = "8F7CDE40-C368-4484-AA71-76B7ABD5539F";
shapes = (
{
closed = 1;
nodes = (
(55,-1,o),
(102,0,o),
(150,0,cs),
(197,0,o),
(245,-1,o),
(293,-3,c),
(301,-3,o),
(313,34,o),
(304,34,cs),
(207,34,o),
(201,54,o),
(213,91,cs),
(361,574,ls),
(373,613,o),
(389,630,o),
(487,630,cs),
(497,630,o),
(507,668,o),
(497,668,c),
(449,666,o),
(401,666,o),
(353,666,cs),
(305,666,o),
(257,666,o),
(208,668,c),
(197,668,o),
(189,630,o),
(198,630,cs),
(310,630,o),
(303,609,o),
(292,574,cs),
(142,91,ls),
(131,55,o),
(115,34,o),
(17,34,cs),
(8,34,o),
(-2,-3,o),
(7,-3,c)
);
}
);
width = 406;
},
{
anchors = (
{
name = bottom;
pos = (128,0);
},
{
name = center;
pos = (227,343);
},
{
name = ogonek;
pos = (193,20);
},
{
name = ogonek_above;
pos = (274,649);
},
{
name = top;
pos = (311,666);
},
{
name = zzcurly;
pos = (232,655);
}
);
guides = (
{
pos = (160,664);
showMeasurement = 1;
},
{
pos = (298,233);
showMeasurement = 1;
}
);
layerId = "997BDFA1-EC67-4686-8CFE-E56BDBE179FE";
shapes = (
{
closed = 1;
nodes = (
(46,-1,o),
(87,0,o),
(128,0,cs),
(169,0,o),
(210,-1,o),
(251,-3,c),
(260,-3,o),
(271,34,o),
(262,34,cs),
(182,34,o),
(177,53,o),
(188,91,cs),
(326,575,ls),
(337,612,o),
(351,631,o),
(431,631,cs),
(441,631,o),
(450,668,o),
(441,668,c),
(400,666,o),
(358,666,o),
(317,666,cs),
(275,666,o),
(234,666,o),
(193,668,c),
(183,668,o),
(174,631,o),
(183,631,cs),
(264,631,o),
(267,612,o),
(257,575,cs),
(118,91,ls),
(107,53,o),
(94,34,o),
(14,34,cs),
(5,34,o),
(-5,-3,o),
(4,-3,c)
);
}
);
width = 335;
}
);
unicode = 73;
userData = {
KernOnName = I;
};
}
{
glyphname = K;
kernLeft = KO_H;
kernRight = KO_K;
layers = (
{
anchors = (
{
name = bottom;
pos = (282,0);
},
{
name = center;
pos = (279,521);
},
{
name = top;
pos = (475,666);
},
{
name = zzcurly;
pos = (573,655);
}
);
layerId = master01;
shapes = (
{
closed = 1;
nodes = (
(45,-1,o),
(87,0,o),
(128,0,cs),
(169,0,o),
(211,-1,o),
(252,-3,c),
(260,-3,o),
(271,34,o),
(262,34,cs),
(182,34,o),
(178,53,o),
(189,91,cs),
(249,305,ls),
(251,312,o),
(255,315,o),
(262,315,cs),
(282,315,o),
(308,290,o),
(321,263,cs),
(404,91,ls),
(411,76,o),
(415,65,o),
(415,57,cs),
(415,42,o),
(398,34,o),
(365,34,cs),
(356,34,o),
(346,-3,o),
(355,-3,c),
(394,-1,o),
(432,0,o),
(471,0,cs),
(510,0,o),
(549,-1,o),
(588,-3,c),
(597,-3,o),
(604,34,o),
(595,34,cs),
(538,34,o),
(505,41,o),
(484,84,cs),
(355,346,ls),
(352,353,o),
(352,359,o),
(358,365,cs),
(575,562,ls),
(632,614,o),
(664,631,o),
(732,631,cs),
(741,631,o),
(751,669,o),
(742,669,c),
(711,667,o),
(680,666,o),
(649,666,cs),
(617,666,o),
(586,667,o),
(555,669,c),
(546,669,o),
(535,631,o),
(544,631,cs),
(560,631,o),
(568,627,o),
(568,619,cs),
(568,609,o),
(557,595,o),
(537,576,cs),
(340,396,ls),
(305,364,o),
(284,348,o),
(271,348,cs),
(263,348,o),
(263,352,o),
(265,358,cs),
(327,575,ls),
(338,612,o),
(351,631,o),
(432,631,cs),
(442,631,o),
(451,669,o),
(442,669,c),
(400,667,o),
(359,666,o),
(317,666,cs),
(276,666,o),
(234,667,o),
(193,669,c),
(183,669,o),
(174,631,o),
(183,631,cs),
(264,631,o),
(268,612,o),
(257,575,cs),
(118,91,ls),
(107,53,o),
(94,34,o),
(14,34,cs),
(5,34,o),
(-5,-3,o),
(4,-3,c)
);
}
);
width = 648;
},
{
anchors = (
{
name = bottom;
pos = (288,0);
},
{
name = center;
pos = (281,521);
},
{
name = top;
pos = (487,666);
},
{
name = zzcurly;
pos = (564,655);
}
);
layerId = "2438E31C-45B5-47A7-9B3D-1A0FEFB47671";
shapes = (
{
closed = 1;
nodes = (
(39,-1,o),
(86,0,o),
(133,0,cs),
(179,0,o),
(226,-1,o),
(273,-4,c),
(281,-4,o),
(294,42,o),
(285,42,cs),
(205,42,o),
(204,61,o),
(215,99,cs),
(272,296,ls),
(274,303,o),
(275,306,o),
(279,306,cs),
(290,306,o),
(304,291,o),
(312,275,cs),
(397,100,ls),
(405,84,o),
(409,72,o),
(409,66,cs),
(409,50,o),
(395,42,o),
(368,42,cs),
(359,42,o),
(348,-4,o),
(357,-4,c),
(400,-1,o),
(444,0,o),
(487,0,cs),
(530,0,o),
(573,-1,o),
(617,-4,c),
(626,-4,o),
(633,42,o),
(624,42,cs),
(576,42,o),
(550,53,o),
(529,93,cs),
(392,351,ls),
(385,365,o),
(385,372,o),
(394,379,cs),
(589,549,ls),
(646,598,o),
(678,623,o),
(742,623,cs),
(751,623,o),
(763,668,o),
(755,668,c),
(721,667,o),
(687,666,o),
(654,666,cs),
(620,666,o),
(586,667,o),
(552,668,c),
(544,668,o),
(530,623,o),
(539,623,cs),
(555,623,o),
(564,618,o),
(564,609,cs),
(564,600,o),
(553,586,o),
(532,567,cs),
(346,396,ls),
(320,373,o),
(304,361,o),
(297,361,cs),
(292,361,o),
(292,364,o),
(294,371,cs),
(351,565,ls),
(362,603,o),
(374,623,o),
(450,623,cs),
(460,623,o),
(471,668,o),
(463,668,c),
(417,667,o),
(370,666,o),
(324,666,cs),
(278,666,o),
(231,667,o),
(185,668,c),
(175,668,o),
(164,623,o),
(172,623,cs),
(246,623,o),
(247,603,o),
(236,565,cs),
(101,99,ls),
(90,61,o),
(75,42,o),
(4,42,cs),
(-5,42,o),
(-17,-4,o),
(-8,-4,c)
);
}
);
width = 661;
},
{
anchors = (
{
name = bottom;
pos = (280,0);
},
{
name = center;
pos = (276,521);
},
{
name = top;
pos = (474,666);
},
{
name = zzcurly;
pos = (565,655);
}
);
layerId = "7904EAEE-2B64-409E-B923-0048172372BE";
shapes = (
{
closed = 1;
nodes = (
(47,-1,o),
(86,0,o),
(126,0,cs),
(165,0,o),
(204,-1,o),
(244,-3,c),
(256,-3,o),
(264,31,o),
(255,31,cs),
(172,31,o),
(170,51,o),
(180,88,cs),
(241,308,ls),
(243,314,o),
(248,318,o),
(255,318,cs),
(278,318,o),
(308,293,o),
(321,266,cs),
(406,88,ls),
(413,74,o),
(416,63,o),
(416,54,cs),
(416,39,o),
(399,31,o),
(363,31,cs),
(355,31,o),
(345,-3,o),
(354,-3,c),
(391,-1,o),
(428,0,o),
(466,0,cs),
(504,0,o),
(541,-1,o),
(578,-3,c),
(587,-3,o),
(594,31,o),
(586,31,cs),
(525,31,o),
(490,38,o),
(469,82,cs),
(342,345,ls),
(340,350,o),
(340,355,o),
(345,360,cs),
(574,569,ls),
(630,620,o),
(659,634,o),
(729,634,cs),
(738,634,o),
(747,668,o),
(738,668,c),
(708,666,o),
(677,666,o),
(647,666,cs),
(617,666,o),
(581,666,o),
(551,668,c),
(542,668,o),
(532,634,o),
(541,634,cs),
(557,634,o),
(564,630,o),
(564,622,cs),
(564,612,o),
(554,597,o),
(534,579,cs),
(332,392,ls),
(297,360,o),
(274,344,o),
(261,344,cs),
(252,344,o),
(252,348,o),
(254,354,cs),
(319,578,ls),
(329,614,o),
(340,634,o),
(426,634,cs),
(434,634,o),
(443,668,o),
(434,668,c),
(395,666,o),
(355,666,o),
(315,666,cs),
(275,666,o),
(236,666,o),
(196,668,c),
(187,668,o),
(178,634,o),
(187,634,cs),
(273,634,o),
(273,614,o),
(263,578,cs),
(123,88,ls),
(112,51,o),
(100,31,o),
(17,31,cs),
(9,31,o),
(-3,-3,o),
(8,-3,c)
);
}
);
width = 648;
},
{
anchors = (
{
name = bottom;
pos = (227,0);
},
{
name = center;
pos = (255,521);
},
{
name = top;
pos = (432,666);
},
{
name = zzcurly;
pos = (493,655);
}
);
layerId = "E06D8587-1A71-4EC2-BD94-397D882F5FC1";
shapes = (
{
closed = 1;
nodes = (
(33,-1,o),
(68,0,o),
(103,0,cs),
(138,0,o),
(173,-1,o),
(208,-3,c),
(216,-3,o),
(227,34,o),
(218,34,cs),
(157,34,o),
(152,50,o),
(164,91,cs),
(227,305,ls),
(229,312,o),
(233,315,o),
(236,315,cs),
(248,315,o),
(264,292,o),
(273,263,cs),
(327,91,ls),
(332,75,o),
(335,64,o),
(335,58,cs),
(335,42,o),
(320,34,o),
(295,34,cs),
(287,34,o),
(277,-3,o),
(285,-3,c),
(318,-1,o),
(350,0,o),
(383,0,cs),
(416,0,o),
(448,-1,o),
(480,-3,c),
(489,-3,o),
(498,34,o),
(488,34,cs),
(448,34,o),
(423,41,o),
(408,84,cs),
(316,348,ls),
(313,357,o),
(313,363,o),
(320,370,cs),
(503,562,ls),
(549,610,o),
(576,631,o),
(630,631,cs),
(639,631,o),
(647,668,o),
(639,668,c),
(613,666,o),
(587,666,o),
(562,666,cs),
(536,666,o),
(510,666,o),
(484,668,c),
(475,668,o),
(466,631,o),
(475,631,cs),
(487,631,o),
(493,627,o),
(493,620,cs),
(493,610,o),
(484,597,o),
(465,576,cs),
(301,396,ls),
(270,362,o),
(255,348,o),
(245,348,cs),
(240,348,o),
(240,351,o),
(242,358,cs),
(305,575,ls),
(316,613,o),
(330,631,o),
(391,631,cs),
(400,631,o),
(410,668,o),
(401,668,c),
(366,666,o),
(331,666,o),
(296,666,cs),
(262,666,o),
(227,666,o),
(192,668,c),
(183,668,o),
(173,631,o),
(182,631,cs),
(242,631,o),
(244,613,o),
(233,575,cs),
(93,91,ls),
(82,53,o),
(72,34,o),
(8,34,cs),
(0,34,o),
(-11,-3,o),
(-2,-3,c)
);
}
);
width = 544;
},
{
anchors = (
{
name = bottom;
pos = (334,0);
},
{
name = center;
pos = (313,521);
},
{
name = top;
pos = (542,666);
},
{
name = zzcurly;
pos = (656,655);
}
);
layerId = "8F7CDE40-C368-4484-AA71-76B7ABD5539F";
shapes = (
{
closed = 1;
nodes = (
(55,-1,o),
(102,0,o),
(150,0,cs),
(197,0,o),
(245,-1,o),
(293,-3,c),
(301,-3,o),
(313,34,o),
(304,34,cs),
(207,34,o),
(202,54,o),
(213,91,cs),
(278,305,ls),
(280,312,o),
(286,315,o),
(295,315,cs),
(322,315,o),
(356,290,o),
(373,263,cs),
(480,91,ls),
(489,77,o),
(494,65,o),
(494,56,cs),
(494,42,o),
(473,34,o),
(432,34,cs),
(424,34,o),
(411,-3,o),
(421,-3,c),
(466,-1,o),
(511,0,o),
(557,0,cs),
(602,0,o),
(647,-1,o),
(693,-3,c),
(702,-3,o),
(708,34,o),
(700,34,cs),
(628,34,o),
(586,40,o),
(559,84,cs),
(399,345,ls),
(396,350,o),
(396,355,o),
(403,360,cs),
(660,561,ls),
(729,615,o),
(765,631,o),
(848,631,cs),
(857,631,o),
(869,668,o),
(861,668,c),
(824,666,o),
(787,666,o),
(750,666,cs),
(714,666,o),
(677,666,o),
(640,668,c),
(632,668,o),
(619,631,o),
(628,631,cs),
(646,631,o),
(656,627,o),
(656,618,cs),
(656,608,o),
(644,594,o),
(621,576,cs),
(387,396,ls),
(345,364,o),
(318,348,o),
(302,348,cs),
(292,348,o),
(292,352,o),
(294,358,cs),
(361,574,ls),
(373,613,o),
(388,630,o),
(487,630,cs),
(497,630,o),
(507,668,o),
(497,668,c),
(448,666,o),
(401,666,o),
(352,666,cs),
(304,666,o),
(256,666,o),
(208,668,c),
(197,668,o),
(188,630,o),
(198,630,cs),
(309,630,o),
(303,609,o),
(292,574,cs),
(142,91,ls),
(131,55,o),
(115,34,o),
(17,34,cs),
(8,34,o),
(-2,-3,o),
(7,-3,c)
);
}
);
width = 770;
},
{
anchors = (
{
name = bottom;
pos = (282,0);
},
{
name = center;
pos = (279,521);
},
{
name = top;
pos = (475,666);
},
{
name = zzcurly;
pos = (573,655);
}
);
layerId = "997BDFA1-EC67-4686-8CFE-E56BDBE179FE";
shapes = (
{
closed = 1;
nodes = (
(45,-1,o),
(87,0,o),
(128,0,cs),
(169,0,o),
(211,-1,o),
(252,-3,c),
(260,-3,o),
(271,34,o),
(262,34,cs),
(182,34,o),
(178,53,o),
(189,91,cs),
(249,305,ls),
(251,312,o),
(255,315,o),
(262,315,cs),
(282,315,o),
(308,290,o),
(321,263,cs),
(404,91,ls),
(411,76,o),
(415,65,o),
(415,57,cs),
(415,42,o),
(398,34,o),
(365,34,cs),
(356,34,o),
(346,-3,o),
(355,-3,c),
(394,-1,o),
(432,0,o),
(471,0,cs),
(510,0,o),
(549,-1,o),
(588,-3,c),
(597,-3,o),
(604,34,o),
(595,34,cs),
(538,34,o),
(505,41,o),
(484,84,cs),
(355,346,ls),
(352,353,o),
(352,359,o),
(358,365,cs),
(575,562,ls),
(632,614,o),
(664,631,o),
(732,631,cs),
(741,631,o),
(751,669,o),
(742,669,c),
(711,667,o),
(680,666,o),
(649,666,cs),
(617,666,o),
(586,667,o),
(555,669,c),
(546,669,o),
(535,631,o),
(544,631,cs),
(560,631,o),
(568,627,o),
(568,619,cs),
(568,609,o),
(557,595,o),
(537,576,cs),
(340,396,ls),
(305,364,o),
(284,348,o),
(271,348,cs),
(263,348,o),
(263,352,o),
(265,358,cs),
(327,575,ls),
(338,612,o),
(351,631,o),
(432,631,cs),
(442,631,o),
(451,669,o),
(442,669,c),
(400,667,o),
(359,666,o),
(317,666,cs),
(276,666,o),
(234,667,o),
(193,669,c),
(183,669,o),
(174,631,o),
(183,631,cs),
(264,631,o),
(268,612,o),
(257,575,cs),
(118,91,ls),
(107,53,o),
(94,34,o),
(14,34,cs),
(5,34,o),
(-5,-3,o),
(4,-3,c)
);
}
);
width = 648;
}
);
unicode = 75;
userData = {
KernOnName = K;
};
}
{
glyphname = L;
kernLeft = KO_H;
kernRight = KO_L;
layers = (
{
anchors = (
{
name = bottom;
pos = (268,0);
},
{
name = cedilla;
pos = (281,2);
},
{
name = center;
pos = (279,516);
},
{
name = top;
pos = (319,666);
},
{
name = zzcurly;
pos = (225,655);
}
);
guides = (
{
angle = 73.8999;
pos = (629,355);
}
);
layerId = master01;
shapes = (
{
closed = 1;
nodes = (
(44,-1,o),
(85,0,o),
(126,0,cs),
(259,0,o),
(392,-3,o),
(525,-3,cs),
(557,-3,o),
(566,0,o),
(572,22,cs),
(619,185,ls),
(622,194,o),
(583,194,o),
(580,185,cs),
(549,91,o),
(496,41,o),
(412,37,cs),
(249,30,l),
(210,30,o),
(190,46,o),
(190,78,cs),
(190,91,o),
(193,110,o),
(200,135,cs),
(327,575,ls),
(337,611,o),
(350,631,o),
(434,631,cs),
(442,631,o),
(453,668,o),
(445,668,c),
(402,666,o),
(360,666,o),
(317,666,cs),
(275,666,o),
(232,666,o),
(190,668,c),
(182,668,o),
(173,631,o),
(181,631,cs),
(263,631,o),
(267,611,o),
(257,575,cs),
(115,86,ls),
(105,53,o),
(95,34,o),
(15,34,cs),
(7,34,o),
(-5,-3,o),
(3,-3,c)
);
}
);
width = 617;
},
{
anchors = (
{
name = bottom;
pos = (281,0);
},
{
name = cedilla;
pos = (254,2);
},
{
name = center;
pos = (281,516);
},
{
name = top;
pos = (325,666);
},
{
name = zzcurly;
pos = (201,655);
}
);
guides = (
{
angle = 73.666;
pos = (633,342);
}
);
layerId = "2438E31C-45B5-47A7-9B3D-1A0FEFB47671";
shapes = (
{
closed = 1;
nodes = (
(39,-1,o),
(87,0,o),
(134,0,cs),
(269,0,o),
(403,-4,o),
(537,-4,cs),
(573,-4,o),
(583,1,o),
(589,23,cs),
(636,187,ls),
(639,196,o),
(591,196,o),
(588,187,cs),
(563,95,o),
(507,49,o),
(423,45,cs),
(269,38,l),
(233,38,o),
(215,50,o),
(215,78,cs),
(215,89,o),
(218,103,o),
(222,118,cs),
(353,565,ls),
(364,603,o),
(375,623,o),
(455,623,cs),
(463,623,o),
(475,668,o),
(467,668,c),
(420,666,o),
(373,666,o),
(325,666,cs),
(278,666,o),
(230,666,o),
(183,668,c),
(175,668,o),
(162,623,o),
(170,623,cs),
(246,623,o),
(247,603,o),
(236,565,cs),
(101,96,ls),
(91,62,o),
(80,42,o),
(5,42,cs),
(-3,42,o),
(-17,-4,o),
(-9,-4,c)
);
}
);
width = 644;
},
{
anchors = (
{
name = bottom;
pos = (263,0);
},
{
name = cedilla;
pos = (290,2);
},
{
name = center;
pos = (275,516);
},
{
name = top;
pos = (313,666);
},
{
name = zzcurly;
pos = (204,655);
}
);
guides = (
{
angle = 74.1586;
pos = (626,360);
}
);
layerId = "7904EAEE-2B64-409E-B923-0048172372BE";
shapes = (
{
closed = 1;
nodes = (
(46,-1,o),
(86,0,o),
(125,0,cs),
(257,0,o),
(389,-3,o),
(521,-3,cs),
(551,-3,o),
(559,-1,o),
(566,23,cs),
(612,185,ls),
(614,193,o),
(579,193,o),
(576,185,cs),
(543,89,o),
(492,37,o),
(407,34,cs),
(242,28,l),
(201,28,o),
(181,44,o),
(181,78,cs),
(181,91,o),
(185,113,o),
(193,141,cs),
(317,578,ls),
(327,614,o),
(338,634,o),
(426,634,cs),
(434,634,o),
(444,668,o),
(436,668,c),
(395,666,o),
(354,666,o),
(313,666,cs),
(272,666,o),
(232,666,o),
(191,668,c),
(183,668,o),
(175,634,o),
(183,634,cs),
(274,634,o),
(272,614,o),
(262,578,cs),
(120,83,ls),
(110,50,o),
(98,31,o),
(18,31,cs),
(10,31,o),
(-2,-3,o),
(6,-3,c)
);
}
);
width = 623;
},
{
anchors = (
{
name = bottom;
pos = (218,0);
},
{
name = cedilla;
pos = (215,2);
},
{
name = center;
pos = (254,516);
},
{
name = top;
pos = (297,666);
},
{
name = zzcurly;
pos = (204,655);
}
);
guides = (
{
angle = 73.6313;
pos = (527,352);
}
);
layerId = "E06D8587-1A71-4EC2-BD94-397D882F5FC1";
shapes = (
{
closed = 1;
nodes = (
(35,-1,o),
(74,0,o),
(115,0,cs),
(218,0,o),
(321,-3,o),
(423,-3,cs),
(449,-3,o),
(458,-1,o),
(465,23,cs),
(512,186,ls),
(515,195,o),
(481,194,o),
(477,183,cs),
(446,97,o),
(403,44,o),
(336,40,cs),
(208,33,l),
(179,33,o),
(165,47,o),
(165,73,cs),
(165,87,o),
(169,109,o),
(175,129,cs),
(306,575,ls),
(316,609,o),
(326,631,o),
(393,631,cs),
(402,631,o),
(411,668,o),
(404,668,c),
(369,666,o),
(333,666,o),
(297,666,cs),
(262,666,o),
(226,666,o),
(190,668,c),
(181,668,o),
(173,631,o),
(181,631,cs),
(243,631,o),
(245,613,o),
(234,575,cs),
(91,87,ls),
(81,53,o),
(70,34,o),
(10,34,cs),
(1,34,o),
(-11,-3,o),
(-2,-3,c)
);
}
);
width = 508;
},
{
anchors = (
{
name = bottom;
pos = (317,0);
},
{
name = cedilla;
pos = (345,2);
},
{
name = center;
pos = (317,516);
},
{
name = top;
pos = (353,666);
},
{
name = zzcurly;
pos = (217,655);
}
);
guides = (
{
angle = 72.7212;
pos = (739,358);
}
);
layerId = "8F7CDE40-C368-4484-AA71-76B7ABD5539F";
shapes = (
{
closed = 1;
nodes = (
(51,-1,o),
(95,0,o),
(135,0,cs),
(299,0,o),
(462,-3,o),
(625,-3,cs),
(661,-3,o),
(671,0,o),
(678,21,cs),
(730,185,ls),
(732,192,o),
(688,193,o),
(686,186,cs),
(649,89,o),
(589,37,o),
(488,34,cs),
(290,28,l),
(243,28,o),
(215,43,o),
(215,80,cs),
(215,93,o),
(219,114,o),
(227,141,cs),
(362,575,ls),
(372,608,o),
(383,631,o),
(490,631,cs),
(499,631,o),
(512,668,o),
(501,668,c),
(451,666,o),
(402,666,o),
(353,666,cs),
(304,666,o),
(254,666,o),
(205,668,c),
(197,668,o),
(187,631,o),
(197,631,cs),
(297,631,o),
(304,611,o),
(293,575,cs),
(140,86,ls),
(129,52,o),
(119,34,o),
(20,34,cs),
(11,34,o),
(-3,-3,o),
(6,-3,c)
);
}
);
width = 741;
},
{
anchors = (
{
name = bottom;
pos = (268,0);
},
{
name = cedilla;
pos = (281,2);
},
{
name = center;
pos = (279,516);
},
{
name = top;
pos = (319,666);
},
{
name = zzcurly;
pos = (225,655);
}
);
guides = (
{
angle = 73.8999;
pos = (629,355);
}
);
layerId = "997BDFA1-EC67-4686-8CFE-E56BDBE179FE";
shapes = (
{
closed = 1;
nodes = (
(44,-1,o),
(85,0,o),
(126,0,cs),
(259,0,o),
(392,-3,o),
(525,-3,cs),
(557,-3,o),
(566,0,o),
(572,22,cs),
(619,185,ls),
(622,194,o),
(583,194,o),
(580,185,cs),
(549,91,o),
(496,41,o),
(412,37,cs),
(249,30,l),
(210,30,o),
(190,46,o),
(190,78,cs),
(190,91,o),
(193,110,o),
(200,135,cs),
(327,575,ls),
(337,611,o),
(350,631,o),
(434,631,cs),
(442,631,o),
(453,668,o),
(445,668,c),
(402,666,o),
(360,666,o),
(317,666,cs),
(275,666,o),
(232,666,o),
(190,668,c),
(182,668,o),
(173,631,o),
(181,631,cs),
(263,631,o),
(267,611,o),
(257,575,cs),
(115,86,ls),
(105,53,o),
(95,34,o),
(15,34,cs),
(7,34,o),
(-5,-3,o),
(3,-3,c)
);
}
);
width = 617;
}
);
unicode = 76;
userData = {
KernOnName = L;
};
}
{
glyphname = M;
kernLeft = KO_H;
kernRight = KO_H;
layers = (
{
anchors = (
{
name = bottom;
pos = (429,0);
},
{
name = top;
pos = (607,666);
},
{
name = zzcurly;
pos = (931,655);
}
);
layerId = master01;
shapes = (
{
closed = 1;
nodes = (
(405,-5,o),
(408,-2,o),
(412,3,cs),
(818,534,l),
(822,531,l),
(697,91,ls),
(684,44,o),
(668,34,o),
(613,34,cs),
(604,34,o),
(594,-3,o),
(603,-3,c),
(639,-1,o),
(676,0,o),
(712,0,cs),
(748,0,o),
(785,-1,o),
(821,-3,c),
(829,-3,o),
(840,34,o),
(831,34,cs),
(763,34,o),
(753,42,o),
(766,91,cs),
(896,542,ls),
(916,612,o),
(938,631,o),
(1000,631,cs),
(1009,631,o),
(1019,668,o),
(1010,668,c),
(984,667,o),
(957,666,o),
(931,666,cs),
(890,666,o),
(874,659,o),
(854,633,cs),
(460,118,l),
(452,119,l),
(355,630,ls),
(350,657,o),
(339,666,o),
(307,666,cs),
(274,666,o),
(242,667,o),
(209,668,c),
(201,668,o),
(190,631,o),
(199,631,cs),
(270,631,o),
(288,607,o),
(266,544,cs),
(107,91,ls),
(90,42,o),
(76,34,o),
(14,34,cs),
(6,34,o),
(-5,-3,o),
(4,-3,c),
(36,-1,o),
(69,0,o),
(101,0,cs),
(133,0,o),
(166,-1,o),
(198,-3,c),
(207,-3,o),
(217,34,o),
(208,34,cs),
(137,34,o),
(127,42,o),
(144,91,cs),
(300,539,l),
(307,539,l),
(394,3,ls),
(395,-2,o),
(398,-5,o),
(402,-5,cs)
);
}
);
width = 904;
},
{
anchors = (
{
name = bottom;
pos = (433,0);
},
{
name = top;
pos = (601,666);
},
{
name = zzcurly;
pos = (956,655);
}
);
guides = (
{
pos = (75,474);
showMeasurement = 1;
}
);
layerId = "2438E31C-45B5-47A7-9B3D-1A0FEFB47671";
shapes = (
{
closed = 1;
nodes = (
(402,-5,o),
(411,-1,o),
(421,11,cs),
(775,449,l),
(781,446,l),
(678,106,ls),
(663,54,o),
(646,42,o),
(592,42,cs),
(581,42,o),
(569,-4,o),
(579,-4,c),
(624,-1,o),
(668,0,o),
(713,0,cs),
(758,0,o),
(802,-1,o),
(847,-4,c),
(857,-4,o),
(868,42,o),
(858,42,cs),
(789,42,o),
(777,52,o),
(790,97,cs),
(918,528,ls),
(940,603,o),
(963,623,o),
(1021,623,cs),
(1030,623,o),
(1043,668,o),
(1034,668,c),
(1009,666,o),
(984,666,o),
(959,666,cs),
(896,666,o),
(876,659,o),
(851,628,cs),
(473,159,l),
(465,159,l),
(374,617,ls),
(367,652,o),
(350,663,o),
(309,663,cs),
(279,663,o),
(249,664,o),
(219,666,c),
(211,666,o),
(197,620,o),
(206,620,cs),
(267,620,o),
(284,595,o),
(262,537,cs),
(105,107,ls),
(85,54,o),
(67,42,o),
(5,42,cs),
(-6,42,o),
(-17,-4,o),
(-7,-4,c),
(27,-1,o),
(60,0,o),
(94,0,cs),
(127,0,o),
(161,-1,o),
(195,-4,c),
(205,-4,o),
(217,42,o),
(207,42,cs),
(147,42,o),
(137,52,o),
(154,97,cs),
(284,455,l),
(292,455,l),
(378,11,ls),
(380,0,o),
(385,-5,o),
(394,-5,cs)
);
}
);
width = 938;
},
{
anchors = (
{
name = bottom;
pos = (428,0);
},
{
name = top;
pos = (596,666);
},
{
name = zzcurly;
pos = (922,655);
}
);
layerId = "7904EAEE-2B64-409E-B923-0048172372BE";
shapes = (
{
closed = 1;
nodes = (
(406,-5,o),
(408,-3,o),
(410,0,cs),
(835,564,l),
(837,563,l),
(704,86,ls),
(691,41,o),
(676,31,o),
(621,31,cs),
(610,31,o),
(602,-3,o),
(611,-3,c),
(640,-1,o),
(674,0,o),
(712,0,cs),
(750,0,o),
(784,-1,o),
(812,-3,c),
(823,-3,o),
(832,31,o),
(823,31,cs),
(758,31,o),
(745,42,o),
(759,89,cs),
(889,547,ls),
(909,615,o),
(931,634,o),
(993,634,cs),
(1003,634,o),
(1013,668,o),
(1003,668,c),
(976,666,o),
(950,666,o),
(923,666,cs),
(889,666,o),
(875,659,o),
(856,634,cs),
(455,103,l),
(447,103,l),
(366,633,ls),
(362,658,o),
(350,666,o),
(326,666,cs),
(291,666,o),
(241,666,o),
(206,668,c),
(196,668,o),
(187,634,o),
(197,634,cs),
(268,634,o),
(289,607,o),
(268,546,cs),
(109,85,ls),
(93,41,o),
(76,31,o),
(18,31,cs),
(8,31,o),
(-1,-3,o),
(8,-3,c),
(40,-1,o),
(72,0,o),
(104,0,cs),
(136,0,o),
(168,-1,o),
(200,-3,c),
(210,-3,o),
(219,31,o),
(209,31,cs),
(138,31,o),
(125,42,o),
(141,89,cs),
(305,566,l),
(313,566,l),
(400,0,ls),
(400,-3,o),
(402,-5,o),
(404,-5,cs)
);
}
);
width = 912;
},
{
anchors = (
{
name = bottom;
pos = (343,0);
},
{
name = top;
pos = (527,666);
},
{
name = zzcurly;
pos = (789,655);
}
);
layerId = "E06D8587-1A71-4EC2-BD94-397D882F5FC1";
shapes = (
{
closed = 1;
nodes = (
(321,-5,o),
(327,-1,o),
(331,5,cs),
(671,508,l),
(675,506,l),
(556,93,ls),
(542,44,o),
(528,34,o),
(484,34,cs),
(475,34,o),
(464,-3,o),
(473,-3,c),
(504,-1,o),
(537,0,o),
(568,0,cs),
(600,0,o),
(632,-1,o),
(664,-3,c),
(673,-3,o),
(683,34,o),
(674,34,cs),
(624,34,o),
(611,42,o),
(625,90,cs),
(757,541,ls),
(778,613,o),
(797,631,o),
(846,631,cs),
(855,631,o),
(865,668,o),
(856,668,c),
(836,667,o),
(813,666,o),
(794,666,cs),
(754,666,o),
(738,656,o),
(721,631,cs),
(380,132,l),
(372,132,l),
(328,626,ls),
(325,660,o),
(311,666,o),
(287,666,cs),
(263,666,o),
(235,667,o),
(211,668,c),
(202,668,o),
(192,631,o),
(201,631,cs),
(254,631,o),
(266,604,o),
(246,546,cs),
(89,93,ls),
(72,44,o),
(57,34,o),
(8,34,cs),
(0,34,o),
(-11,-3,o),
(-2,-3,c),
(24,-1,o),
(51,0,o),
(77,0,cs),
(103,0,o),
(129,-1,o),
(156,-3,c),
(165,-3,o),
(175,34,o),
(167,34,cs),
(116,34,o),
(106,43,o),
(122,90,cs),
(267,516,l),
(272,515,l),
(310,6,ls),
(311,-2,o),
(313,-5,o),
(317,-5,cs)
);
}
);
width = 747;
},
{
anchors = (
{
name = bottom;
pos = (511,0);
},
{
name = top;
pos = (702,666);
},
{
name = zzcurly;
pos = (1083,655);
}
);
layerId = "8F7CDE40-C368-4484-AA71-76B7ABD5539F";
shapes = (
{
closed = 1;
nodes = (
(487,-5,o),
(489,-3,o),
(491,0,cs),
(974,561,l),
(979,557,l),
(839,89,ls),
(824,42,o),
(809,34,o),
(741,34,cs),
(733,34,o),
(722,-3,o),
(731,-3,c),
(771,-1,o),
(812,0,o),
(853,0,cs),
(893,0,o),
(934,-1,o),
(975,-3,c),
(984,-3,o),
(995,34,o),
(987,34,cs),
(905,34,o),
(893,43,o),
(908,92,cs),
(1046,544,ls),
(1067,612,o),
(1092,631,o),
(1169,631,cs),
(1177,631,o),
(1188,668,o),
(1179,668,c),
(1147,667,o),
(1115,666,o),
(1083,666,cs),
(1041,666,o),
(1024,659,o),
(1002,634,cs),
(542,104,l),
(532,106,l),
(396,633,ls),
(390,658,o),
(378,666,o),
(342,666,cs),
(302,666,o),
(263,667,o),
(223,668,c),
(214,668,o),
(203,631,o),
(212,631,cs),
(303,631,o),
(325,609,o),
(300,543,cs),
(126,88,ls),
(109,44,o),
(89,34,o),
(19,34,cs),
(10,34,o),
(-2,-3,o),
(7,-3,c),
(45,-1,o),
(84,0,o),
(122,0,cs),
(161,0,o),
(200,-1,o),
(238,-3,c),
(247,-3,o),
(257,34,o),
(248,34,cs),
(160,34,o),
(148,43,o),
(166,92,cs),
(342,563,l),
(353,563,l),
(477,0,ls),
(478,-3,o),
(481,-5,o),
(484,-5,cs)
);
}
);
width = 1087;
},
{
anchors = (
{
name = bottom;
pos = (429,0);
},
{
name = top;
pos = (607,666);
},
{
name = zzcurly;
pos = (931,655);
}
);
layerId = "997BDFA1-EC67-4686-8CFE-E56BDBE179FE";
shapes = (
{
closed = 1;
nodes = (
(405,-5,o),
(408,-2,o),
(412,3,cs),
(818,534,l),
(822,531,l),
(697,91,ls),
(684,44,o),
(668,34,o),
(613,34,cs),
(604,34,o),
(594,-3,o),
(603,-3,c),
(639,-1,o),
(676,0,o),
(712,0,cs),
(748,0,o),
(785,-1,o),
(821,-3,c),
(829,-3,o),
(840,34,o),
(831,34,cs),
(763,34,o),
(753,42,o),
(766,91,cs),
(896,542,ls),
(916,612,o),
(938,631,o),
(1000,631,cs),
(1009,631,o),
(1019,668,o),
(1010,668,c),
(984,667,o),
(957,666,o),
(931,666,cs),
(890,666,o),
(874,659,o),
(854,633,cs),
(460,118,l),
(452,119,l),
(355,630,ls),
(350,657,o),
(339,666,o),
(307,666,cs),
(274,666,o),
(242,667,o),
(209,668,c),
(201,668,o),
(190,631,o),
(199,631,cs),
(270,631,o),
(288,607,o),
(266,544,cs),
(107,91,ls),
(90,42,o),
(76,34,o),
(14,34,cs),
(6,34,o),
(-5,-3,o),
(4,-3,c),
(36,-1,o),
(69,0,o),
(101,0,cs),
(133,0,o),
(166,-1,o),
(198,-3,c),
(207,-3,o),
(217,34,o),
(208,34,cs),
(137,34,o),
(127,42,o),
(144,91,cs),
(300,539,l),
(307,539,l),
(394,3,ls),
(395,-2,o),
(398,-5,o),
(402,-5,cs)
);
}
);
width = 904;
}
);
unicode = 77;
userData = {
KernOnName = M;
};
}
{
glyphname = S;
kernLeft = KO_S;
kernRight = KO_S;
layers = (
{
anchors = (
{
name = bottom;
pos = (200,0);
},
{
name = cedilla;
pos = (209,0);
},
{
name = top;
pos = (337,666);
},
{
name = zzcurly;
pos = (296,655);
}
);
layerId = master01;
shapes = (
{
closed = 1;
nodes = (
(344,-13,o),
(419,53,o),
(419,164,cs),
(419,231,o),
(397,292,o),
(327,363,cs),
(243,446,o),
(217,488,o),
(217,532,cs),
(217,596,o),
(271,646,o),
(338,646,cs),
(404,646,o),
(456,599,o),
(456,540,cs),
(456,531,o),
(456,521,o),
(456,512,cs),
(456,502,o),
(489,500,o),
(491,511,cs),
(502,563,o),
(507,601,o),
(509,642,c),
(501,642,o),
(481,642,o),
(457,652,cs),
(430,663,o),
(387,677,o),
(335,677,cs),
(226,677,o),
(155,608,o),
(155,501,cs),
(155,440,o),
(179,398,o),
(266,306,cs),
(336,233,o),
(359,192,o),
(359,138,cs),
(359,69,o),
(300,15,o),
(226,15,cs),
(137,15,o),
(88,63,o),
(88,150,cs),
(88,160,o),
(89,171,o),
(91,183,cs),
(91,187,o),
(60,190,o),
(57,179,cs),
(49,149,o),
(40,108,o),
(40,71,cs),
(40,36,l),
(98,3,o),
(156,-13,o),
(216,-13,cs)
);
}
);
width = 484;
},
{
anchors = (
{
name = bottom;
pos = (191,0);
},
{
name = cedilla;
pos = (200,0);
},
{
name = top;
pos = (312,666);
},
{
name = zzcurly;
pos = (260,655);
}
);
layerId = "2438E31C-45B5-47A7-9B3D-1A0FEFB47671";
shapes = (
{
closed = 1;
nodes = (
(356,-13,o),
(425,52,o),
(425,171,cs),
(425,243,o),
(397,296,o),
(328,369,cs),
(251,449,o),
(228,486,o),
(228,531,cs),
(228,593,o),
(275,637,o),
(329,637,cs),
(386,637,o),
(432,589,o),
(432,540,cs),
(432,531,o),
(432,521,o),
(431,512,cs),
(430,502,o),
(474,500,o),
(476,511,cs),
(487,563,o),
(492,601,o),
(494,642,c),
(479,642,o),
(456,646,o),
(431,655,cs),
(405,665,o),
(365,676,o),
(317,676,cs),
(197,676,o),
(114,608,o),
(114,507,cs),
(114,450,o),
(136,413,o),
(222,320,cs),
(301,235,o),
(321,202,o),
(321,152,cs),
(321,83,o),
(278,29,o),
(201,29,cs),
(127,29,o),
(81,79,o),
(81,150,cs),
(81,160,o),
(82,171,o),
(83,178,cs),
(84,187,o),
(40,190,o),
(37,179,cs),
(29,149,o),
(20,108,o),
(20,71,cs),
(20,36,l),
(79,2,o),
(139,-13,o),
(209,-13,cs)
);
}
);
width = 475;
},
{
anchors = (
{
name = bottom;
pos = (209,0);
},
{
name = cedilla;
pos = (212,0);
},
{
name = top;
pos = (345,666);
},
{
name = zzcurly;
pos = (295,655);
}
);
layerId = "7904EAEE-2B64-409E-B923-0048172372BE";
shapes = (
{
closed = 1;
nodes = (
(337,-13,o),
(420,53,o),
(420,162,cs),
(420,227,o),
(387,281,o),
(316,351,cs),
(241,425,o),
(210,476,o),
(210,532,cs),
(210,597,o),
(266,649,o),
(338,649,cs),
(407,649,o),
(461,602,o),
(461,540,cs),
(461,531,o),
(461,521,o),
(461,512,cs),
(461,502,o),
(491,500,o),
(493,511,cs),
(504,563,o),
(509,601,o),
(511,642,c),
(505,642,o),
(486,641,o),
(462,651,cs),
(435,662,o),
(391,677,o),
(338,677,cs),
(232,677,o),
(163,608,o),
(163,519,cs),
(163,437,o),
(191,396,o),
(280,305,cs),
(347,236,o),
(368,189,o),
(368,133,cs),
(368,67,o),
(304,15,o),
(231,15,cs),
(137,15,o),
(87,61,o),
(87,150,cs),
(87,160,o),
(88,171,o),
(90,185,cs),
(90,187,o),
(63,190,o),
(60,179,cs),
(52,149,o),
(43,108,o),
(43,71,cs),
(43,36,l),
(101,3,o),
(158,-13,o),
(215,-13,cs)
);
}
);
width = 495;
},
{
anchors = (
{
name = bottom;
pos = (157,0);
},
{
name = cedilla;
pos = (165,0);
},
{
name = top;
pos = (289,666);
},
{
name = zzcurly;
pos = (254,655);
}
);
layerId = "E06D8587-1A71-4EC2-BD94-397D882F5FC1";
shapes = (
{
closed = 1;
nodes = (
(278,-13,o),
(342,54,o),
(342,177,cs),
(342,238,o),
(326,297,o),
(277,362,cs),
(217,442,o),
(198,483,o),
(198,526,cs),
(198,590,o),
(241,646,o),
(294,646,cs),
(342,646,o),
(379,602,o),
(379,546,cs),
(379,534,o),
(378,521,o),
(378,512,cs),
(378,502,o),
(406,499,o),
(409,513,cs),
(419,563,o),
(425,600,o),
(428,642,c),
(419,642,o),
(403,642,o),
(384,652,cs),
(363,663,o),
(330,677,o),
(290,677,cs),
(200,677,o),
(133,607,o),
(133,488,cs),
(133,434,o),
(150,392,o),
(214,305,cs),
(264,237,o),
(282,197,o),
(282,148,cs),
(282,70,o),
(235,15,o),
(174,15,cs),
(111,15,o),
(75,58,o),
(75,137,cs),
(75,167,o),
(79,176,o),
(79,183,cs),
(79,187,o),
(51,190,o),
(48,179,cs),
(38,139,o),
(31,100,o),
(30,71,cs),
(29,36,l),
(74,3,o),
(121,-13,o),
(171,-13,cs)
);
}
);
width = 398;
},
{
anchors = (
{
name = bottom;
pos = (237,0);
},
{
name = cedilla;
pos = (247,0);
},
{
name = top;
pos = (379,666);
},
{
name = zzcurly;
pos = (332,655);
}
);
layerId = "8F7CDE40-C368-4484-AA71-76B7ABD5539F";
shapes = (
{
closed = 1;
nodes = (
(404,-13,o),
(490,52,o),
(490,151,cs),
(490,224,o),
(462,287,o),
(371,364,cs),
(263,450,o),
(230,493,o),
(230,538,cs),
(230,602,o),
(295,646,o),
(376,646,cs),
(460,646,o),
(527,596,o),
(527,534,cs),
(527,528,o),
(528,521,o),
(528,512,cs),
(528,502,o),
(566,501,o),
(567,509,cs),
(579,563,o),
(583,602,o),
(584,642,c),
(577,642,o),
(553,642,o),
(524,652,cs),
(491,663,o),
(438,677,o),
(374,677,cs),
(246,677,o),
(171,609,o),
(171,514,cs),
(171,446,o),
(202,404,o),
(312,307,cs),
(402,229,o),
(430,187,o),
(430,128,cs),
(430,68,o),
(359,15,o),
(272,15,cs),
(157,15,o),
(95,68,o),
(95,163,cs),
(95,153,o),
(93,166,o),
(97,183,cs),
(97,187,o),
(63,190,o),
(60,179,cs),
(54,159,o),
(43,116,o),
(44,71,cs),
(45,36,l),
(116,3,o),
(185,-13,o),
(255,-13,cs)
);
}
);
width = 570;
},
{
anchors = (
{
name = bottom;
pos = (200,0);
},
{
name = cedilla;
pos = (209,0);
},
{
name = top;
pos = (337,666);
},
{
name = zzcurly;
pos = (296,655);
}
);
guides = (
{
pos = (251,519);
showMeasurement = 1;
}
);
layerId = "997BDFA1-EC67-4686-8CFE-E56BDBE179FE";
shapes = (
{
closed = 1;
nodes = (
(344,-13,o),
(419,53,o),
(419,164,cs),
(419,231,o),
(397,292,o),
(327,363,cs),
(243,446,o),
(217,488,o),
(217,532,cs),
(217,596,o),
(271,646,o),
(338,646,cs),
(404,646,o),
(456,599,o),
(456,540,cs),
(456,531,o),
(456,521,o),
(456,512,cs),
(456,502,o),
(489,500,o),
(491,511,cs),
(502,563,o),
(507,601,o),
(509,642,c),
(501,642,o),
(481,642,o),
(457,652,cs),
(430,663,o),
(387,677,o),
(335,677,cs),
(226,677,o),
(155,608,o),
(155,501,cs),
(155,440,o),
(179,398,o),
(266,306,cs),
(336,233,o),
(359,192,o),
(359,138,cs),
(359,69,o),
(300,15,o),
(226,15,cs),
(137,15,o),
(88,63,o),
(88,150,cs),
(88,160,o),
(89,171,o),
(91,183,cs),
(91,187,o),
(60,190,o),
(57,179,cs),
(49,149,o),
(40,108,o),
(40,71,cs),
(40,36,l),
(98,3,o),
(156,-13,o),
(216,-13,cs)
);
}
);
width = 484;
}
);
unicode = 83;
userData = {
KernOnName = S;
};
}
{
glyphname = U;
kernLeft = KO_U;
kernRight = KO_U;
layers = (
{
anchors = (
{
name = bottom;
pos = (274,0);
},
{
name = ogonek;
pos = (389,13);
},
{
name = ogonek_above;
pos = (176,653);
},
{
name = top;
pos = (455,666);
},
{
name = topright;
pos = (773,666);
},
{
name = zzcurly;
pos = (582,655);
}
);
guides = (
{
angle = 254.0427;
pos = (324,856);
}
);
layerId = master01;
shapes = (
{
closed = 1;
nodes = (
(392,-13,o),
(497,57,o),
(549,169,cs),
(573,220,o),
(603,309,o),
(639,435,cs),
(679,575,ls),
(692,619,o),
(712,631,o),
(775,631,cs),
(784,631,o),
(794,668,o),
(785,668,c),
(750,667,o),
(715,666,o),
(679,666,cs),
(644,666,o),
(609,667,o),
(573,668,c),
(565,668,o),
(554,631,o),
(563,631,cs),
(627,631,o),
(640,619,o),
(628,575,cs),
(530,238,ls),
(490,98,o),
(414,24,o),
(275,24,cs),
(198,24,o),
(144,59,o),
(144,131,cs),
(144,165,o),
(157,233,o),
(187,335,cs),
(256,575,ls),
(269,619,o),
(291,631,o),
(357,631,cs),
(366,631,o),
(376,668,o),
(367,668,c),
(328,667,o),
(288,666,o),
(248,666,cs),
(209,666,o),
(169,667,o),
(129,668,c),
(120,668,o),
(111,631,o),
(120,631,cs),
(184,631,o),
(198,619,o),
(185,575,cs),
(96,263,ls),
(80,207,o),
(72,162,o),
(72,128,cs),
(72,23,o),
(144,-13,o),
(253,-13,cs)
);
}
);
width = 693;
},
{
anchors = (
{
name = bottom;
pos = (270,0);
},
{
name = ogonek;
pos = (407,13);
},
{
name = ogonek_above;
pos = (173,653);
},
{
name = top;
pos = (466,666);
},
{
name = topright;
pos = (785,666);
},
{
name = zzcurly;
pos = (584,655);
}
);
layerId = "2438E31C-45B5-47A7-9B3D-1A0FEFB47671";
shapes = (
{
closed = 1;
nodes = (
(398,-13,o),
(497,42,o),
(552,139,cs),
(575,178,o),
(609,273,o),
(655,425,cs),
(697,565,ls),
(711,610,o),
(731,623,o),
(791,623,cs),
(799,623,o),
(811,668,o),
(802,668,c),
(764,667,o),
(726,666,o),
(688,666,cs),
(649,666,o),
(611,667,o),
(573,668,c),
(565,668,o),
(552,623,o),
(561,623,cs),
(627,623,o),
(641,610,o),
(628,565,cs),
(532,247,ls),
(490,105,o),
(421,31,o),
(289,31,cs),
(226,31,o),
(168,59,o),
(168,128,cs),
(168,164,o),
(183,231,o),
(213,331,cs),
(284,565,ls),
(297,611,o),
(317,623,o),
(377,623,cs),
(385,623,o),
(399,668,o),
(390,668,c),
(345,667,o),
(300,666,o),
(255,666,cs),
(210,666,o),
(165,667,o),
(120,668,c),
(111,668,o),
(99,623,o),
(107,623,cs),
(169,623,o),
(182,610,o),
(169,566,cs),
(80,271,ls),
(64,218,o),
(56,170,o),
(56,128,cs),
(56,25,o),
(141,-13,o),
(262,-13,cs)
);
}
);
width = 708;
},
{
anchors = (
{
name = bottom;
pos = (254,0);
},
{
name = ogonek;
pos = (382,13);
},
{
name = ogonek_above;
pos = (176,653);
},
{
name = top;
pos = (450,666);
},
{
name = topright;
pos = (768,666);
},
{
name = zzcurly;
pos = (582,655);
}
);
layerId = "7904EAEE-2B64-409E-B923-0048172372BE";
shapes = (
{
closed = 1;
nodes = (
(389,-13,o),
(497,62,o),
(548,179,cs),
(572,234,o),
(600,320,o),
(633,438,cs),
(671,578,ls),
(684,622,o),
(705,634,o),
(769,634,cs),
(777,634,o),
(787,668,o),
(778,668,c),
(744,667,o),
(709,666,o),
(675,666,cs),
(641,666,o),
(606,667,o),
(572,668,c),
(563,668,o),
(554,634,o),
(563,634,cs),
(625,634,o),
(639,622,o),
(626,578,cs),
(529,235,ls),
(490,96,o),
(411,21,o),
(269,21,cs),
(188,21,o),
(135,59,o),
(135,132,cs),
(135,165,o),
(148,233,o),
(178,337,cs),
(246,578,ls),
(259,622,o),
(280,634,o),
(349,634,cs),
(358,634,o),
(367,668,o),
(358,668,c),
(320,667,o),
(283,666,o),
(245,666,cs),
(207,666,o),
(169,667,o),
(131,668,c),
(122,668,o),
(114,634,o),
(123,634,cs),
(188,634,o),
(202,622,o),
(189,578,cs),
(101,261,ls),
(84,203,o),
(77,159,o),
(77,128,cs),
(77,23,o),
(145,-13,o),
(249,-13,cs)
);
}
);
width = 688;
},
{
anchors = (
{
name = bottom;
pos = (210,0);
},
{
name = ogonek;
pos = (305,13);
},
{
name = ogonek_above;
pos = (197,653);
},
{
name = top;
pos = (391,666);
},
{
name = topright;
pos = (646,666);
},
{
name = zzcurly;
pos = (491,655);
}
);
layerId = "E06D8587-1A71-4EC2-BD94-397D882F5FC1";
shapes = (
{
closed = 1;
nodes = (
(303,-13,o),
(388,51,o),
(436,157,cs),
(458,206,o),
(488,297,o),
(527,431,cs),
(569,575,ls),
(582,620,o),
(601,631,o),
(648,631,cs),
(657,631,o),
(666,668,o),
(657,668,c),
(628,667,o),
(598,666,o),
(570,666,cs),
(540,666,o),
(512,667,o),
(482,668,c),
(474,668,o),
(463,631,o),
(472,631,cs),
(523,631,o),
(535,620,o),
(522,575,cs),
(426,241,ls),
(388,109,o),
(329,26,o),
(215,26,cs),
(159,26,o),
(118,57,o),
(118,121,cs),
(118,159,o),
(135,234,o),
(164,334,cs),
(234,575,ls),
(247,620,o),
(265,631,o),
(315,631,cs),
(324,631,o),
(334,668,o),
(325,668,c),
(293,667,o),
(256,666,o),
(225,666,cs),
(190,666,o),
(158,667,o),
(124,668,c),
(115,668,o),
(106,631,o),
(115,631,cs),
(164,631,o),
(176,620,o),
(163,575,cs),
(74,266,ls),
(57,207,o),
(47,155,o),
(47,115,cs),
(47,21,o),
(107,-13,o),
(193,-13,cs)
);
}
);
width = 564;
},
{
anchors = (
{
name = bottom;
pos = (342,0);
},
{
name = ogonek;
pos = (457,13);
},
{
name = ogonek_above;
pos = (176,653);
},
{
name = top;
pos = (516,666);
},
{
name = topright;
pos = (897,666);
},
{
name = zzcurly;
pos = (675,655);
}
);
guides = (
{
angle = 72.872;
pos = (536,929);
}
);
layerId = "8F7CDE40-C368-4484-AA71-76B7ABD5539F";
shapes = (
{
closed = 1;
nodes = (
(466,-13,o),
(592,63,o),
(649,179,cs),
(675,232,o),
(706,315,o),
(743,438,cs),
(784,575,ls),
(797,619,o),
(821,631,o),
(898,631,cs),
(907,631,o),
(918,668,o),
(909,668,c),
(868,667,o),
(827,666,o),
(786,666,cs),
(744,666,o),
(702,667,o),
(661,668,c),
(652,668,o),
(642,631,o),
(650,631,cs),
(726,631,o),
(742,619,o),
(729,575,cs),
(625,235,ls),
(579,85,o),
(482,21,o),
(320,21,cs),
(217,21,o),
(156,63,o),
(156,136,cs),
(156,169,o),
(170,237,o),
(201,337,cs),
(274,575,ls),
(288,619,o),
(314,631,o),
(396,631,cs),
(404,631,o),
(416,668,o),
(407,668,c),
(361,667,o),
(314,666,o),
(269,666,cs),
(224,666,o),
(176,667,o),
(131,668,c),
(122,668,o),
(113,631,o),
(122,631,cs),
(199,631,o),
(216,619,o),
(203,575,cs),
(108,261,ls),
(91,206,o),
(84,162,o),
(84,134,cs),
(84,31,o),
(159,-13,o),
(297,-13,cs)
);
}
);
width = 819;
},
{
anchors = (
{
name = bottom;
pos = (274,0);
},
{
name = ogonek;
pos = (389,13);
},
{
name = ogonek_above;
pos = (176,653);
},
{
name = top;
pos = (455,666);
},
{
name = topright;
pos = (773,666);
},
{
name = zzcurly;
pos = (582,655);
}
);
layerId = "997BDFA1-EC67-4686-8CFE-E56BDBE179FE";
shapes = (
{
closed = 1;
nodes = (
(392,-13,o),
(497,57,o),
(549,169,cs),
(573,220,o),
(603,309,o),
(639,435,cs),
(679,575,ls),
(692,619,o),
(712,631,o),
(775,631,cs),
(784,631,o),
(794,668,o),
(785,668,c),
(750,667,o),
(715,666,o),
(679,666,cs),
(644,666,o),
(609,667,o),
(573,668,c),
(565,668,o),
(554,631,o),
(563,631,cs),
(627,631,o),
(640,619,o),
(628,575,cs),
(530,238,ls),
(490,98,o),
(414,24,o),
(275,24,cs),
(198,24,o),
(144,59,o),
(144,131,cs),
(144,165,o),
(157,233,o),
(187,335,cs),
(256,575,ls),
(269,619,o),
(291,631,o),
(357,631,cs),
(366,631,o),
(376,668,o),
(367,668,c),
(328,667,o),
(288,666,o),
(248,666,cs),
(209,666,o),
(169,667,o),
(129,668,c),
(120,668,o),
(111,631,o),
(120,631,cs),
(184,631,o),
(198,619,o),
(185,575,cs),
(96,263,ls),
(80,207,o),
(72,162,o),
(72,128,cs),
(72,23,o),
(144,-13,o),
(253,-13,cs)
);
}
);
width = 693;
}
);
unicode = 85;
userData = {
KernOnName = U;
};
}
{
glyphname = W;
kernLeft = KO_V;
kernRight = KO_V;
layers = (
{
anchors = (
{
name = bottom;
pos = (489,0);
},
{
name = top;
pos = (607,666);
},
{
name = zzcurly;
pos = (668,655);
}
);
layerId = master01;
shapes = (
{
closed = 1;
nodes = (
(316,-14,o),
(324,-9,o),
(330,0,cs),
(509,262,l),
(518,261,l),
(572,0,ls),
(574,-10,o),
(578,-14,o),
(583,-14,cs),
(586,-14,o),
(594,-10,o),
(601,0,cs),
(833,337,ls),
(903,439,o),
(965,523,o),
(1015,589,cs),
(1042,624,o),
(1058,631,o),
(1119,631,cs),
(1128,631,o),
(1137,668,o),
(1128,668,c),
(1094,667,o),
(1059,666,o),
(1024,666,cs),
(989,666,o),
(954,667,o),
(920,668,c),
(911,668,o),
(901,631,o),
(910,631,cs),
(968,631,o),
(976,618,o),
(945,570,cs),
(817,375,o),
(703,201,o),
(630,104,c),
(622,105,l),
(570,348,l),
(744,589,ls),
(770,624,o),
(786,631,o),
(848,631,cs),
(857,631,o),
(866,668,o),
(858,668,c),
(823,667,o),
(788,666,o),
(753,666,cs),
(719,666,o),
(684,667,o),
(649,668,c),
(640,668,o),
(630,631,o),
(639,631,cs),
(698,631,o),
(705,618,o),
(674,570,cs),
(566,403,l),
(557,404,l),
(521,575,ls),
(511,619,o),
(528,631,o),
(597,631,cs),
(606,631,o),
(616,668,o),
(607,668,c),
(572,667,o),
(538,666,o),
(503,666,cs),
(468,666,o),
(434,667,o),
(399,668,c),
(390,668,o),
(380,631,o),
(389,631,cs),
(429,631,o),
(442,619,o),
(451,575,cs),
(506,313,l),
(360,105,l),
(351,106,l),
(250,575,ls),
(241,619,o),
(257,631,o),
(327,631,cs),
(336,631,o),
(345,668,o),
(336,668,c),
(300,667,o),
(264,666,o),
(228,666,cs),
(192,666,o),
(156,667,o),
(120,668,c),
(111,668,o),
(101,631,o),
(109,631,cs),
(156,631,o),
(171,619,o),
(181,575,cs),
(302,0,ls),
(304,-8,o),
(307,-14,o),
(312,-14,cs)
);
}
);
width = 994;
},
{
anchors = (
{
name = bottom;
pos = (415,0);
},
{
name = top;
pos = (605,666);
},
{
name = zzcurly;
pos = (663,655);
}
);
layerId = "2438E31C-45B5-47A7-9B3D-1A0FEFB47671";
shapes = (
{
closed = 1;
nodes = (
(279,-14,o),
(294,-4,o),
(305,10,cs),
(474,240,l),
(482,239,l),
(516,10,ls),
(519,-6,o),
(528,-14,o),
(540,-14,cs),
(551,-14,o),
(563,-6,o),
(575,10,cs),
(799,320,ls),
(855,397,o),
(923,486,o),
(1002,587,cs),
(1024,617,o),
(1039,623,o),
(1098,623,cs),
(1107,623,o),
(1120,668,o),
(1111,668,cs),
(1093,667,o),
(1059,666,o),
(1010,666,cs),
(960,666,o),
(927,667,o),
(908,668,cs),
(899,668,o),
(887,623,o),
(895,623,cs),
(944,623,o),
(948,610,o),
(915,563,cs),
(787,380,o),
(681,228,o),
(618,154,c),
(608,155,l),
(573,375,l),
(731,588,ls),
(752,617,o),
(768,623,o),
(832,623,cs),
(841,623,o),
(854,668,o),
(845,668,c),
(812,667,o),
(779,666,o),
(746,666,cs),
(713,666,o),
(680,667,o),
(646,668,c),
(638,668,o),
(625,623,o),
(634,623,cs),
(678,623,o),
(680,610,o),
(645,563,cs),
(569,459,l),
(561,460,l),
(545,565,ls),
(539,610,o),
(549,623,o),
(592,623,cs),
(601,623,o),
(608,668,o),
(600,668,c),
(564,667,o),
(529,666,o),
(493,666,cs),
(457,666,o),
(422,667,o),
(386,668,c),
(377,668,o),
(370,623,o),
(378,623,cs),
(414,623,o),
(425,610,o),
(432,565,cs),
(470,324,l),
(346,151,l),
(338,152,l),
(274,565,ls),
(268,610,o),
(277,623,o),
(317,623,cs),
(326,623,o),
(334,668,o),
(325,668,c),
(289,667,o),
(253,666,o),
(217,666,cs),
(181,666,o),
(144,667,o),
(108,668,c),
(100,668,o),
(91,623,o),
(100,623,cs),
(141,623,o),
(154,610,o),
(161,565,cs),
(245,10,ls),
(247,-4,o),
(257,-14,o),
(269,-14,cs)
);
}
);
width = 966;
},
{
anchors = (
{
name = bottom;
pos = (510,0);
},
{
name = top;
pos = (603,666);
},
{
name = zzcurly;
pos = (661,655);
}
);
layerId = "7904EAEE-2B64-409E-B923-0048172372BE";
shapes = (
{
closed = 1;
nodes = (
(325,-14,o),
(330,-11,o),
(338,0,cs),
(517,268,l),
(526,267,l),
(587,0,ls),
(589,-8,o),
(592,-14,o),
(595,-14,cs),
(597,-14,o),
(602,-9,o),
(608,0,cs),
(840,343,ls),
(915,454,o),
(975,535,o),
(1015,589,cs),
(1043,627,o),
(1060,634,o),
(1122,634,cs),
(1131,634,o),
(1139,668,o),
(1131,668,c),
(1091,667,o),
(1055,666,o),
(1025,666,cs),
(995,666,o),
(960,667,o),
(920,668,c),
(911,668,o),
(902,634,o),
(911,634,cs),
(973,634,o),
(982,621,o),
(951,573,cs),
(825,374,o),
(706,189,o),
(631,88,c),
(622,89,l),
(566,339,l),
(745,589,ls),
(772,626,o),
(788,634,o),
(850,634,cs),
(859,634,o),
(867,668,o),
(859,668,c),
(824,667,o),
(788,666,o),
(752,666,cs),
(717,666,o),
(681,667,o),
(646,668,c),
(637,668,o),
(629,634,o),
(637,634,cs),
(702,634,o),
(711,621,o),
(680,573,cs),
(561,385,l),
(553,386,l),
(509,578,ls),
(498,622,o),
(517,634,o),
(595,634,cs),
(604,634,o),
(615,668,o),
(606,668,c),
(572,667,o),
(537,666,o),
(503,666,cs),
(469,666,o),
(434,667,o),
(400,668,c),
(391,668,o),
(381,634,o),
(389,634,cs),
(430,634,o),
(444,622,o),
(454,578,cs),
(515,310,l),
(361,90,l),
(352,91,l),
(239,578,ls),
(228,622,o),
(247,634,o),
(326,634,cs),
(335,634,o),
(345,668,o),
(337,668,c),
(301,667,o),
(264,666,o),
(228,666,cs),
(192,666,o),
(156,667,o),
(120,668,c),
(111,668,o),
(100,634,o),
(109,634,cs),
(158,634,o),
(174,622,o),
(184,578,cs),
(316,0,ls),
(318,-11,o),
(321,-14,o),
(323,-14,cs)
);
}
);
width = 1005;
},
{
anchors = (
{
name = bottom;
pos = (379,0);
},
{
name = top;
pos = (533,666);
},
{
name = zzcurly;
pos = (580,655);
}
);
layerId = "E06D8587-1A71-4EC2-BD94-397D882F5FC1";
shapes = (
{
closed = 1;
nodes = (
(242,-14,o),
(250,-8,o),
(255,0,cs),
(420,257,l),
(427,256,l),
(456,0,ls),
(457,-9,o),
(462,-14,o),
(467,-14,cs),
(473,-14,o),
(480,-6,o),
(484,0,cs),
(699,333,ls),
(761,429,o),
(805,494,o),
(872,588,cs),
(897,623,o),
(911,631,o),
(962,631,cs),
(970,631,o),
(978,668,o),
(973,668,c),
(931,666,o),
(914,666,o),
(885,666,cs),
(848,666,o),
(828,667,o),
(796,668,c),
(790,668,o),
(777,631,o),
(786,631,cs),
(836,631,o),
(837,615,o),
(806,565,cs),
(688,374,o),
(584,205,o),
(521,117,c),
(513,118,l),
(487,355,l),
(643,589,ls),
(667,625,o),
(682,631,o),
(733,631,cs),
(742,631,o),
(749,668,o),
(744,668,c),
(711,667,o),
(685,666,o),
(656,666,cs),
(625,666,o),
(602,667,o),
(568,668,c),
(562,668,o),
(550,631,o),
(558,631,cs),
(602,631,o),
(611,620,o),
(579,568,cs),
(486,417,l),
(479,418,l),
(461,572,ls),
(456,615,o),
(466,631,o),
(521,631,cs),
(530,631,o),
(538,668,o),
(532,668,c),
(498,667,o),
(473,666,o),
(443,666,cs),
(411,666,o),
(388,667,o),
(353,668,c),
(347,668,o),
(334,631,o),
(343,631,cs),
(376,631,o),
(386,618,o),
(391,573,cs),
(420,316,l),
(291,116,l),
(283,117,l),
(231,572,ls),
(226,616,o),
(236,631,o),
(290,631,cs),
(299,631,o),
(307,668,o),
(301,668,c),
(265,667,o),
(242,666,o),
(208,666,cs),
(176,666,o),
(152,667,o),
(116,668,c),
(110,668,o),
(97,631,o),
(106,631,cs),
(145,631,o),
(156,616,o),
(161,572,cs),
(226,0,ls),
(227,-9,o),
(233,-14,o),
(237,-14,cs)
);
}
);
width = 830;
},
{
anchors = (
{
name = bottom;
pos = (583,0);
},
{
name = top;
pos = (677,666);
},
{
name = zzcurly;
pos = (739,655);
}
);
layerId = "8F7CDE40-C368-4484-AA71-76B7ABD5539F";
shapes = (
{
closed = 1;
nodes = (
(379,-14,o),
(384,-8,o),
(390,0,cs),
(588,267,l),
(597,266,l),
(674,0,ls),
(676,-7,o),
(679,-14,o),
(685,-14,cs),
(691,-14,o),
(697,-7,o),
(702,0,cs),
(957,341,ls),
(1052,469,o),
(1116,551,o),
(1152,590,cs),
(1184,625,o),
(1203,631,o),
(1272,631,cs),
(1281,631,o),
(1293,668,o),
(1281,668,c),
(1254,667,o),
(1200,666,o),
(1160,666,cs),
(1128,666,o),
(1078,667,o),
(1039,668,c),
(1028,668,o),
(1021,631,o),
(1029,631,cs),
(1099,631,o),
(1109,619,o),
(1077,573,cs),
(933,368,o),
(809,191,o),
(727,92,c),
(717,93,l),
(646,341,l),
(841,589,ls),
(868,624,o),
(887,631,o),
(959,631,cs),
(968,631,o),
(980,668,o),
(969,668,c),
(932,667,o),
(888,666,o),
(848,666,cs),
(809,666,o),
(762,667,o),
(726,668,c),
(714,668,o),
(707,631,o),
(716,631,cs),
(787,631,o),
(797,618,o),
(765,572,cs),
(638,390,l),
(629,391,l),
(575,577,ls),
(563,619,o),
(583,631,o),
(669,631,cs),
(678,631,o),
(691,668,o),
(679,668,c),
(643,667,o),
(599,666,o),
(560,666,cs),
(523,666,o),
(476,667,o),
(441,668,c),
(430,668,o),
(423,631,o),
(431,631,cs),
(478,631,o),
(494,619,o),
(506,577,cs),
(583,311,l),
(416,94,l),
(406,95,l),
(264,577,ls),
(252,619,o),
(272,631,o),
(359,631,cs),
(368,631,o),
(380,668,o),
(369,668,c),
(332,667,o),
(284,666,o),
(245,666,cs),
(205,666,o),
(157,667,o),
(120,668,c),
(109,668,o),
(100,631,o),
(109,631,cs),
(164,631,o),
(183,619,o),
(195,577,cs),
(363,0,ls),
(365,-8,o),
(369,-14,o),
(373,-14,cs)
);
}
);
width = 1157;
},
{
anchors = (
{
name = bottom;
pos = (489,0);
},
{
name = top;
pos = (607,666);
},
{
name = zzcurly;
pos = (668,655);
}
);
layerId = "997BDFA1-EC67-4686-8CFE-E56BDBE179FE";
shapes = (
{
closed = 1;
nodes = (
(316,-14,o),
(324,-9,o),
(330,0,cs),
(509,262,l),
(518,261,l),
(572,0,ls),
(574,-10,o),
(578,-14,o),
(583,-14,cs),
(586,-14,o),
(594,-10,o),
(601,0,cs),
(833,337,ls),
(903,439,o),
(965,523,o),
(1015,589,cs),
(1042,624,o),
(1058,631,o),
(1119,631,cs),
(1128,631,o),
(1137,668,o),
(1128,668,c),
(1094,667,o),
(1059,666,o),
(1024,666,cs),
(989,666,o),
(954,667,o),
(920,668,c),
(911,668,o),
(901,631,o),
(910,631,cs),
(968,631,o),
(976,618,o),
(945,570,cs),
(817,375,o),
(703,201,o),
(630,104,c),
(622,105,l),
(570,348,l),
(744,589,ls),
(770,624,o),
(786,631,o),
(848,631,cs),
(857,631,o),
(866,668,o),
(858,668,c),
(823,667,o),
(788,666,o),
(753,666,cs),
(719,666,o),
(684,667,o),
(649,668,c),
(640,668,o),
(630,631,o),
(639,631,cs),
(698,631,o),
(705,618,o),
(674,570,cs),
(566,403,l),
(557,404,l),
(521,575,ls),
(511,619,o),
(528,631,o),
(597,631,cs),
(606,631,o),
(616,668,o),
(607,668,c),
(572,667,o),
(538,666,o),
(503,666,cs),
(468,666,o),
(434,667,o),
(399,668,c),
(390,668,o),
(380,631,o),
(389,631,cs),
(429,631,o),
(442,619,o),
(451,575,cs),
(506,313,l),
(360,105,l),
(351,106,l),
(250,575,ls),
(241,619,o),
(257,631,o),
(327,631,cs),
(336,631,o),
(345,668,o),
(336,668,c),
(300,667,o),
(264,666,o),
(228,666,cs),
(192,666,o),
(156,667,o),
(120,668,c),
(111,668,o),
(101,631,o),
(109,631,cs),
(156,631,o),
(171,619,o),
(181,575,cs),
(302,0,ls),
(304,-8,o),
(307,-14,o),
(312,-14,cs)
);
}
);
width = 994;
}
);
unicode = 87;
userData = {
KernOnName = W;
};
}
{
glyphname = X;
kernLeft = KO_Z;
kernRight = KO_X;
layers = (
{
anchors = (
{
name = bottom;
pos = (274,0);
},
{
name = center;
pos = (332,359);
},
{
name = top;
pos = (499,666);
},
{
name = zzcurly;
pos = (627,655);
}
);
guides = (
{
angle = 109.6643;
pos = (771,998);
},
{
angle = 223.8477;
pos = (1057,993);
}
);
layerId = master01;
shapes = (
{
closed = 1;
nodes = (
(0,-1,o),
(37,0,o),
(73,0,cs),
(110,0,o),
(147,-1,o),
(184,-3,c),
(192,-3,o),
(203,34,o),
(194,34,cs),
(106,34,o),
(118,53,o),
(216,147,cs),
(363,289,ls),
(375,300,o),
(380,300,o),
(385,288,cs),
(460,93,ls),
(476,53,o),
(477,34,o),
(400,34,cs),
(391,34,o),
(381,-3,o),
(390,-3,c),
(427,-1,o),
(465,0,o),
(502,0,cs),
(539,0,o),
(577,-1,o),
(614,-3,c),
(623,-3,o),
(633,34,o),
(624,34,cs),
(554,34,o),
(537,54,o),
(524,91,cs),
(434,336,ls),
(430,347,o),
(430,356,o),
(440,366,cs),
(618,536,ls),
(698,611,o),
(724,631,o),
(797,631,cs),
(806,631,o),
(816,668,o),
(807,668,c),
(775,667,o),
(742,666,o),
(710,666,cs),
(677,666,o),
(645,667,o),
(612,668,c),
(604,668,o),
(594,631,o),
(603,631,cs),
(663,631,o),
(649,610,o),
(608,570,cs),
(432,401,ls),
(420,390,o),
(414,390,o),
(410,402,cs),
(348,574,ls),
(336,610,o),
(337,631,o),
(423,631,cs),
(432,631,o),
(441,668,o),
(433,668,c),
(392,667,o),
(351,666,o),
(311,666,cs),
(270,666,o),
(229,667,o),
(189,668,c),
(180,668,o),
(170,631,o),
(178,631,cs),
(242,631,o),
(260,611,o),
(273,578,cs),
(360,353,ls),
(365,340,o),
(364,330,o),
(355,321,cs),
(94,76,ls),
(71,53,o),
(45,34,o),
(-27,34,cs),
(-36,34,o),
(-46,-3,o),
(-37,-3,c)
);
}
);
width = 662;
},
{
anchors = (
{
name = bottom;
pos = (294,0);
},
{
name = center;
pos = (347,359);
},
{
name = top;
pos = (484,666);
},
{
name = zzcurly;
pos = (627,655);
}
);
guides = (
{
angle = 110.2629;
pos = (825,1012);
},
{
angle = 223.6077;
pos = (1067,1011);
}
);
layerId = "2438E31C-45B5-47A7-9B3D-1A0FEFB47671";
shapes = (
{
closed = 1;
nodes = (
(-1,-1,o),
(39,0,o),
(79,0,cs),
(118,0,o),
(158,-1,o),
(198,-4,c),
(207,-4,o),
(216,42,o),
(208,42,cs),
(127,42,o),
(141,62,o),
(229,145,cs),
(351,261,ls),
(364,274,o),
(371,277,o),
(377,261,cs),
(443,99,ls),
(459,61,o),
(461,42,o),
(392,42,cs),
(382,42,o),
(373,-4,o),
(381,-4,c),
(425,-1,o),
(468,0,o),
(512,0,cs),
(556,0,o),
(599,-1,o),
(643,-4,c),
(651,-4,o),
(661,42,o),
(652,42,cs),
(581,42,o),
(569,62,o),
(552,107,cs),
(461,347,ls),
(457,359,o),
(457,366,o),
(469,378,cs),
(630,529,ls),
(708,603,o),
(734,623,o),
(809,623,cs),
(820,623,o),
(831,668,o),
(821,668,c),
(786,667,o),
(750,666,o),
(715,666,cs),
(680,666,o),
(644,667,o),
(609,668,c),
(598,668,o),
(590,623,o),
(597,623,cs),
(649,623,o),
(637,603,o),
(596,564,cs),
(450,425,ls),
(439,415,o),
(433,414,o),
(429,426,cs),
(378,564,ls),
(364,603,o),
(362,623,o),
(443,623,cs),
(453,623,o),
(464,668,o),
(454,668,c),
(407,667,o),
(360,666,o),
(313,666,cs),
(265,666,o),
(218,667,o),
(171,668,c),
(160,668,o),
(155,623,o),
(162,623,cs),
(227,623,o),
(240,603,o),
(259,554,cs),
(346,340,ls),
(350,330,o),
(351,322,o),
(342,314,cs),
(102,88,ls),
(74,62,o),
(46,42,o),
(-29,42,cs),
(-38,42,o),
(-49,-4,o),
(-40,-4,c)
);
}
);
width = 663;
},
{
anchors = (
{
name = bottom;
pos = (264,0);
},
{
name = center;
pos = (324,359);
},
{
name = top;
pos = (500,666);
},
{
name = zzcurly;
pos = (623,655);
}
);
guides = (
{
angle = 109.4967;
pos = (755,993);
},
{
angle = 223.9103;
pos = (1055,987);
}
);
layerId = "7904EAEE-2B64-409E-B923-0048172372BE";
shapes = (
{
closed = 1;
nodes = (
(-4,-1,o),
(32,0,o),
(68,0,cs),
(103,0,o),
(140,-1,o),
(175,-3,c),
(184,-3,o),
(195,31,o),
(187,31,cs),
(95,31,o),
(106,51,o),
(208,148,cs),
(364,298,ls),
(375,309,o),
(379,309,o),
(384,296,cs),
(462,91,ls),
(477,51,o),
(478,31,o),
(399,31,cs),
(391,31,o),
(381,-3,o),
(390,-3,c),
(425,-1,o),
(460,0,o),
(495,0,cs),
(530,0,o),
(566,-1,o),
(601,-3,c),
(609,-3,o),
(620,31,o),
(611,31,cs),
(541,31,o),
(523,52,o),
(511,85,cs),
(421,333,ls),
(417,343,o),
(416,352,o),
(426,362,cs),
(611,538,ls),
(691,614,o),
(717,634,o),
(790,634,cs),
(798,634,o),
(808,668,o),
(799,668,c),
(768,667,o),
(736,666,o),
(705,666,cs),
(673,666,o),
(642,667,o),
(610,668,c),
(602,668,o),
(591,634,o),
(601,634,cs),
(664,634,o),
(650,613,o),
(608,572,cs),
(423,394,ls),
(410,381,o),
(405,380,o),
(400,395,cs),
(335,578,ls),
(323,612,o),
(326,634,o),
(414,634,cs),
(422,634,o),
(431,668,o),
(423,668,c),
(384,667,o),
(345,666,o),
(307,666,cs),
(269,666,o),
(230,667,o),
(191,668,c),
(184,668,o),
(171,634,o),
(181,634,cs),
(245,634,o),
(263,614,o),
(274,586,cs),
(361,357,ls),
(367,342,o),
(366,333,o),
(355,324,cs),
(88,72,ls),
(66,51,o),
(41,31,o),
(-30,31,cs),
(-39,31,o),
(-48,-3,o),
(-40,-3,c)
);
}
);
width = 663;
},
{
anchors = (
{
name = bottom;
pos = (235,0);
},
{
name = center;
pos = (351,359);
},
{
name = top;
pos = (450,666);
},
{
name = zzcurly;
pos = (563,655);
}
);
guides = (
{
angle = 106.6992;
pos = (675,1005);
},
{
angle = 228.6285;
pos = (906,1002);
}
);
layerId = "E06D8587-1A71-4EC2-BD94-397D882F5FC1";
shapes = (
{
closed = 1;
nodes = (
(-4,-1,o),
(31,0,o),
(59,0,cs),
(88,0,o),
(123,-1,o),
(157,-3,c),
(164,-3,o),
(172,34,o),
(164,34,cs),
(86,34,o),
(113,62,o),
(189,144,cs),
(315,280,ls),
(325,291,o),
(332,293,o),
(336,279,cs),
(388,92,ls),
(399,52,o),
(397,34,o),
(336,34,cs),
(329,34,o),
(317,-3,o),
(324,-3,c),
(360,-1,o),
(395,0,o),
(426,0,cs),
(456,0,o),
(492,-1,o),
(527,-3,c),
(535,-3,o),
(546,34,o),
(539,34,cs),
(477,34,o),
(466,55,o),
(456,93,cs),
(391,340,ls),
(388,351,o),
(391,361,o),
(399,370,cs),
(556,537,ls),
(625,610,o),
(648,631,o),
(713,631,cs),
(721,631,o),
(729,668,o),
(721,668,c),
(694,667,o),
(662,666,o),
(636,666,cs),
(607,666,o),
(579,667,o),
(550,668,c),
(542,668,o),
(535,631,o),
(542,631,cs),
(597,631,o),
(574,607,o),
(541,571,cs),
(390,409,ls),
(379,397,o),
(375,398,o),
(372,410,cs),
(331,574,ls),
(322,610,o),
(323,631,o),
(395,631,cs),
(402,631,o),
(413,668,o),
(406,668,c),
(369,667,o),
(332,666,o),
(295,666,cs),
(258,666,o),
(222,667,o),
(185,668,c),
(177,668,o),
(168,631,o),
(174,631,cs),
(228,631,o),
(241,612,o),
(252,573,cs),
(315,348,ls),
(318,337,o),
(319,329,o),
(310,319,cs),
(80,77,ls),
(59,55,o),
(36,34,o),
(-29,34,cs),
(-36,34,o),
(-45,-3,o),
(-37,-3,c)
);
}
);
width = 567;
},
{
anchors = (
{
name = bottom;
pos = (310,0);
},
{
name = center;
pos = (329,359);
},
{
name = top;
pos = (557,666);
},
{
name = zzcurly;
pos = (696,655);
}
);
guides = (
{
angle = 113.8602;
pos = (849,990);
},
{
angle = 220.957;
pos = (1189,984);
}
);
layerId = "8F7CDE40-C368-4484-AA71-76B7ABD5539F";
shapes = (
{
closed = 1;
nodes = (
(-1,-1,o),
(39,0,o),
(84,0,cs),
(128,0,o),
(168,-1,o),
(207,-3,c),
(218,-3,o),
(231,34,o),
(222,34,cs),
(110,34,o),
(133,56,o),
(243,151,cs),
(413,298,ls),
(425,309,o),
(431,309,o),
(436,296,cs),
(531,94,ls),
(548,58,o),
(560,34,o),
(461,34,cs),
(451,34,o),
(443,-3,o),
(453,-3,c),
(492,-1,o),
(532,0,o),
(575,0,cs),
(619,0,o),
(659,-1,o),
(698,-3,c),
(707,-3,o),
(717,34,o),
(706,34,cs),
(629,34,o),
(606,52,o),
(589,88,cs),
(479,333,ls),
(474,344,o),
(473,352,o),
(484,362,cs),
(686,535,ls),
(769,606,o),
(801,631,o),
(889,631,cs),
(899,631,o),
(911,668,o),
(901,668,c),
(865,667,o),
(829,666,o),
(792,666,cs),
(756,666,o),
(719,667,o),
(683,668,c),
(673,668,o),
(660,631,o),
(670,631,cs),
(730,631,o),
(726,609,o),
(681,569,cs),
(479,394,ls),
(466,382,o),
(458,381,o),
(452,395,cs),
(372,575,ls),
(357,609,o),
(359,631,o),
(459,631,cs),
(470,631,o),
(478,668,o),
(468,668,c),
(424,667,o),
(379,666,o),
(335,666,cs),
(291,666,o),
(245,667,o),
(201,668,c),
(191,668,o),
(180,631,o),
(190,631,cs),
(264,631,o),
(286,611,o),
(299,583,cs),
(407,357,ls),
(413,345,o),
(413,333,o),
(402,324,cs),
(107,75,ls),
(80,52,o),
(49,34,o),
(-28,34,cs),
(-38,34,o),
(-50,-3,o),
(-40,-3,c)
);
}
);
width = 765;
},
{
anchors = (
{
name = bottom;
pos = (274,0);
},
{
name = center;
pos = (332,359);
},
{
name = top;
pos = (499,666);
},
{
name = zzcurly;
pos = (627,655);
}
);
layerId = "997BDFA1-EC67-4686-8CFE-E56BDBE179FE";
shapes = (
{
closed = 1;
nodes = (
(0,-1,o),
(37,0,o),
(73,0,cs),
(110,0,o),
(147,-1,o),
(184,-3,c),
(192,-3,o),
(203,34,o),
(194,34,cs),
(106,34,o),
(118,53,o),
(216,147,cs),
(363,289,ls),
(375,300,o),
(380,300,o),
(385,288,cs),
(460,93,ls),
(476,53,o),
(477,34,o),
(400,34,cs),
(391,34,o),
(381,-3,o),
(390,-3,c),
(427,-1,o),
(465,0,o),
(502,0,cs),
(539,0,o),
(577,-1,o),
(614,-3,c),
(623,-3,o),
(633,34,o),
(624,34,cs),
(554,34,o),
(537,54,o),
(524,91,cs),
(434,336,ls),
(430,347,o),
(430,356,o),
(440,366,cs),
(618,536,ls),
(698,611,o),
(724,631,o),
(797,631,cs),
(806,631,o),
(816,668,o),
(807,668,c),
(775,667,o),
(742,666,o),
(710,666,cs),
(677,666,o),
(645,667,o),
(612,668,c),
(604,668,o),
(594,631,o),
(603,631,cs),
(663,631,o),
(649,610,o),
(608,570,cs),
(432,401,ls),
(420,390,o),
(414,390,o),
(410,402,cs),
(348,574,ls),
(336,610,o),
(337,631,o),
(423,631,cs),
(432,631,o),
(441,668,o),
(433,668,c),
(392,667,o),
(351,666,o),
(311,666,cs),
(270,666,o),
(229,667,o),
(189,668,c),
(180,668,o),
(170,631,o),
(178,631,cs),
(242,631,o),
(260,611,o),
(273,578,cs),
(360,353,ls),
(365,340,o),
(364,330,o),
(355,321,cs),
(94,76,ls),
(71,53,o),
(45,34,o),
(-27,34,cs),
(-36,34,o),
(-46,-3,o),
(-37,-3,c)
);
}
);
width = 662;
}
);
unicode = 88;
userData = {
KernOnName = X;
};
}
{
color = 6;
glyphname = Y;
kernLeft = KO_T;
kernRight = KO_Y;
layers = (
{
anchors = (
{
name = bottom;
pos = (267,0);
},
{
name = ogonek_above;
pos = (186,653);
},
{
name = top;
pos = (457,666);
},
{
name = zzcurly;
pos = (618,655);
}
);
guides = (
{
angle = 107.3608;
pos = (687,931);
},
{
angle = 226.9878;
pos = (1025,925);
},
{
angle = -12.529;
pos = (779,676);
}
);
layerId = master01;
shapes = (
{
closed = 1;
nodes = (
(190,-1,o),
(229,0,o),
(278,0,cs),
(328,0,o),
(366,-1,o),
(394,-3,c),
(404,-3,o),
(413,34,o),
(404,34,cs),
(341,34,o),
(328,46,o),
(340,91,cs),
(382,238,ls),
(392,272,o),
(406,299,o),
(425,319,cs),
(613,520,ls),
(702,613,o),
(729,631,o),
(787,631,cs),
(796,631,o),
(807,668,o),
(797,668,c),
(773,667,o),
(740,666,o),
(699,666,cs),
(658,666,o),
(626,667,o),
(605,668,c),
(596,668,o),
(585,631,o),
(594,631,cs),
(658,631,o),
(663,618,o),
(619,570,cs),
(393,329,l),
(381,332,l),
(305,575,ls),
(291,619,o),
(305,631,o),
(371,631,cs),
(380,631,o),
(390,668,o),
(381,668,c),
(365,667,o),
(329,666,o),
(274,666,cs),
(219,666,o),
(184,667,o),
(169,668,c),
(160,668,o),
(149,631,o),
(159,631,cs),
(205,631,o),
(222,619,o),
(235,575,cs),
(309,336,ls),
(317,313,o),
(321,295,o),
(321,284,cs),
(321,272,o),
(316,251,o),
(308,221,cs),
(270,91,ls),
(258,46,o),
(237,34,o),
(172,34,cs),
(163,34,o),
(153,-3,o),
(162,-3,c)
);
}
);
width = 695;
},
{
anchors = (
{
name = bottom;
pos = (288,0);
},
{
name = ogonek_above;
pos = (172,653);
},
{
name = top;
pos = (479,666);
},
{
name = zzcurly;
pos = (618,655);
}
);
guides = (
{
angle = 108.0074;
pos = (754,956);
},
{
angle = 226.2281;
pos = (1066,955);
},
{
angle = -10.7896;
pos = (840,733);
}
);
layerId = "2438E31C-45B5-47A7-9B3D-1A0FEFB47671";
shapes = (
{
closed = 1;
nodes = (
(176,-1,o),
(219,0,o),
(280,0,cs),
(341,0,o),
(384,-1,o),
(409,-4,c),
(418,-4,o),
(430,42,o),
(421,42,cs),
(363,42,o),
(351,54,o),
(364,98,cs),
(407,248,ls),
(415,278,o),
(426,300,o),
(439,313,cs),
(626,512,ls),
(713,605,o),
(740,623,o),
(799,623,cs),
(809,623,o),
(821,668,o),
(812,668,c),
(793,667,o),
(757,666,o),
(707,666,cs),
(656,666,o),
(621,667,o),
(603,668,c),
(593,668,o),
(581,623,o),
(590,623,cs),
(650,623,o),
(655,610,o),
(614,567,cs),
(413,357,l),
(400,359,l),
(332,567,ls),
(318,611,o),
(330,623,o),
(386,623,cs),
(396,623,o),
(405,668,o),
(396,668,c),
(378,667,o),
(337,666,o),
(273,666,cs),
(209,666,o),
(168,667,o),
(149,668,c),
(140,668,o),
(130,623,o),
(139,623,cs),
(183,623,o),
(200,609,o),
(216,559,cs),
(291,331,ls),
(297,313,o),
(301,298,o),
(301,288,cs),
(301,277,o),
(297,258,o),
(289,231,cs),
(251,106,ls),
(235,56,o),
(216,42,o),
(164,42,cs),
(154,42,o),
(142,-4,o),
(151,-4,c)
);
}
);
width = 708;
},
{
anchors = (
{
name = bottom;
pos = (258,0);
},
{
name = ogonek_above;
pos = (190,653);
},
{
name = top;
pos = (449,666);
},
{
name = zzcurly;
pos = (617,655);
}
);
guides = (
{
angle = 107.1106;
pos = (677,922);
},
{
angle = 227.1958;
pos = (1023,915);
},
{
angle = -12.0846;
pos = (772,657);
}
);
layerId = "7904EAEE-2B64-409E-B923-0048172372BE";
shapes = (
{
closed = 1;
nodes = (
(193,-1,o),
(231,0,o),
(277,0,cs),
(322,0,o),
(359,-1,o),
(389,-3,c),
(398,-3,o),
(407,31,o),
(398,31,cs),
(333,31,o),
(319,43,o),
(331,88,cs),
(373,234,ls),
(383,270,o),
(399,299,o),
(419,321,cs),
(607,522,ls),
(696,616,o),
(723,634,o),
(781,634,cs),
(790,634,o),
(800,668,o),
(791,668,c),
(765,667,o),
(733,666,o),
(695,666,cs),
(657,666,o),
(626,667,o),
(604,668,c),
(595,668,o),
(584,634,o),
(594,634,cs),
(659,634,o),
(664,621,o),
(619,571,cs),
(386,320,l),
(374,322,l),
(295,577,ls),
(282,622,o),
(296,634,o),
(364,634,cs),
(373,634,o),
(384,668,o),
(375,668,c),
(360,667,o),
(326,666,o),
(274,666,cs),
(222,666,o),
(188,667,o),
(175,668,c),
(165,668,o),
(155,634,o),
(164,634,cs),
(211,634,o),
(228,622,o),
(241,580,cs),
(315,338,ls),
(323,313,o),
(327,294,o),
(327,282,cs),
(327,271,o),
(322,249,o),
(313,217,cs),
(276,86,ls),
(264,42,o),
(242,31,o),
(174,31,cs),
(165,31,o),
(155,-3,o),
(165,-3,c)
);
}
);
width = 690;
},
{
anchors = (
{
name = bottom;
pos = (226,0);
},
{
name = ogonek_above;
pos = (214,653);
},
{
name = top;
pos = (414,666);
},
{
name = zzcurly;
pos = (538,655);
}
);
guides = (
{
angle = 77.3511;
pos = (614,343);
},
{
angle = 104.0362;
pos = (582,939);
},
{
angle = 233.272;
pos = (844,935);
},
{
pos = (582,939);
},
{
angle = -9.4742;
pos = (653,693);
}
);
layerId = "E06D8587-1A71-4EC2-BD94-397D882F5FC1";
shapes = (
{
closed = 1;
nodes = (
(154,-1,o),
(188,0,o),
(229,0,cs),
(269,0,o),
(303,-1,o),
(325,-3,c),
(335,-3,o),
(345,34,o),
(336,34,cs),
(287,34,o),
(278,47,o),
(290,90,cs),
(332,241,ls),
(341,273,o),
(352,298,o),
(367,317,cs),
(527,518,ls),
(601,611,o),
(625,628,o),
(672,628,cs),
(681,628,o),
(692,668,o),
(683,668,c),
(665,667,o),
(638,666,o),
(602,666,cs),
(567,666,o),
(539,667,o),
(523,668,c),
(514,668,o),
(503,628,o),
(512,628,cs),
(563,628,o),
(565,614,o),
(529,569,cs),
(344,337,l),
(335,339,l),
(289,572,ls),
(280,618,o),
(293,628,o),
(340,628,cs),
(349,628,o),
(360,668,o),
(350,668,c),
(337,667,o),
(306,666,o),
(259,666,cs),
(213,666,o),
(182,667,o),
(169,668,c),
(160,668,o),
(150,628,o),
(159,628,cs),
(196,628,o),
(208,613,o),
(217,569,cs),
(265,334,ls),
(269,314,o),
(271,300,o),
(271,288,cs),
(271,275,o),
(266,256,o),
(257,224,cs),
(220,93,ls),
(207,47,o),
(191,34,o),
(142,34,cs),
(133,34,o),
(122,-3,o),
(132,-3,c)
);
}
);
width = 569;
},
{
anchors = (
{
name = bottom;
pos = (303,0);
},
{
name = ogonek_above;
pos = (191,653);
},
{
name = top;
pos = (508,666);
},
{
name = zzcurly;
pos = (706,655);
}
);
guides = (
{
angle = 72.7224;
pos = (835,331);
},
{
angle = 111.9948;
pos = (769,922);
},
{
angle = 223.1738;
pos = (1183,915);
},
{
angle = -10.1044;
pos = (891,655);
}
);
layerId = "8F7CDE40-C368-4484-AA71-76B7ABD5539F";
shapes = (
{
closed = 1;
nodes = (
(221,-1,o),
(265,0,o),
(323,0,cs),
(381,0,o),
(425,-1,o),
(459,-3,c),
(468,-3,o),
(479,34,o),
(470,34,cs),
(391,34,o),
(374,46,o),
(388,91,cs),
(433,234,ls),
(444,271,o),
(460,299,o),
(484,321,cs),
(703,521,ls),
(815,625,o),
(827,634,o),
(907,634,cs),
(916,634,o),
(927,668,o),
(918,668,c),
(887,667,o),
(849,666,o),
(803,666,cs),
(755,666,o),
(720,667,o),
(693,668,c),
(683,668,o),
(672,634,o),
(682,634,cs),
(755,634,o),
(754,610,o),
(713,571,cs),
(444,319,l),
(430,321,l),
(327,577,ls),
(311,616,o),
(318,634,o),
(407,634,cs),
(416,634,o),
(427,668,o),
(418,668,c),
(400,667,o),
(360,666,o),
(297,666,cs),
(232,666,o),
(193,667,o),
(175,668,c),
(166,668,o),
(155,634,o),
(164,634,cs),
(213,634,o),
(241,624,o),
(258,580,cs),
(356,338,ls),
(366,313,o),
(371,292,o),
(371,281,cs),
(371,269,o),
(367,247,o),
(358,217,cs),
(319,89,ls),
(306,45,o),
(280,34,o),
(199,34,cs),
(189,34,o),
(179,-3,o),
(188,-3,c)
);
}
);
width = 817;
},
{
anchors = (
{
name = bottom;
pos = (267,0);
},
{
name = ogonek_above;
pos = (186,653);
},
{
name = top;
pos = (457,666);
},
{
name = zzcurly;
pos = (618,655);
}
);
layerId = "997BDFA1-EC67-4686-8CFE-E56BDBE179FE";
shapes = (
{
closed = 1;
nodes = (
(190,-1,o),
(229,0,o),
(278,0,cs),
(328,0,o),
(366,-1,o),
(394,-3,c),
(404,-3,o),
(413,34,o),
(404,34,cs),
(341,34,o),
(328,46,o),
(340,91,cs),
(382,238,ls),
(392,272,o),
(406,299,o),
(425,319,cs),
(613,520,ls),
(702,613,o),
(729,631,o),
(787,631,cs),
(796,631,o),
(807,668,o),
(797,668,c),
(773,667,o),
(740,666,o),
(699,666,cs),
(658,666,o),
(626,667,o),
(605,668,c),
(596,668,o),
(585,631,o),
(594,631,cs),
(658,631,o),
(663,618,o),
(619,570,cs),
(393,329,l),
(381,332,l),
(305,575,ls),
(291,619,o),
(305,631,o),
(371,631,cs),
(380,631,o),
(390,668,o),
(381,668,c),
(365,667,o),
(329,666,o),
(274,666,cs),
(219,666,o),
(184,667,o),
(169,668,c),
(160,668,o),
(149,631,o),
(159,631,cs),
(205,631,o),
(222,619,o),
(235,575,cs),
(309,336,ls),
(317,313,o),
(321,295,o),
(321,284,cs),
(321,272,o),
(316,251,o),
(308,221,cs),
(270,91,ls),
(258,46,o),
(237,34,o),
(172,34,cs),
(163,34,o),
(153,-3,o),
(162,-3,c)
);
}
);
width = 695;
}
);
unicode = 89;
userData = {
KernOnName = Y;
};
}
{
glyphname = Z;
kernLeft = KO_Z;
kernRight = KO_Z;
layers = (
{
anchors = (
{
name = bottom;
pos = (236,0);
},
{
name = center;
pos = (336,333);
},
{
name = top;
pos = (427,666);
},
{
name = zzcurly;
pos = (381,655);
}
);
layerId = master01;
shapes = (
{
closed = 1;
nodes = (
(508,-16,o),
(512,-13,o),
(515,-3,cs),
(533,56,o),
(555,110,o),
(584,160,cs),
(588,168,o),
(568,179,o),
(563,171,cs),
(511,85,o),
(462,42,o),
(423,40,cs),
(353,36,o),
(230,34,o),
(92,34,c),
(88,42,l),
(695,649,ls),
(701,654,o),
(703,659,o),
(703,664,cs),
(703,669,o),
(700,671,o),
(689,671,cs),
(673,671,o),
(561,666,o),
(350,666,cs),
(294,666,o),
(253,667,o),
(226,671,cs),
(213,673,o),
(210,674,o),
(208,674,cs),
(201,674,o),
(197,670,o),
(194,663,cs),
(174,602,o),
(153,545,o),
(130,491,cs),
(126,482,o),
(147,475,o),
(151,483,cs),
(170,520,o),
(242,636,o),
(300,636,cs),
(585,636,l),
(587,627,l),
(-17,26,ls),
(-22,21,o),
(-24,16,o),
(-24,10,cs),
(-24,3,o),
(-20,0,o),
(-12,0,cs),
(158,0,ls),
(341,0,o),
(448,-3,o),
(478,-10,cs),
(503,-16,l)
);
}
);
width = 585;
},
{
anchors = (
{
name = bottom;
pos = (249,0);
},
{
name = center;
pos = (364,333);
},
{
name = top;
pos = (439,666);
},
{
name = zzcurly;
pos = (386,655);
}
);
layerId = "2438E31C-45B5-47A7-9B3D-1A0FEFB47671";
shapes = (
{
closed = 1;
nodes = (
(543,-17,o),
(549,-11,o),
(553,2,cs),
(564,36,o),
(594,122,o),
(619,161,cs),
(624,169,o),
(596,180,o),
(591,172,cs),
(564,121,o),
(516,51,o),
(453,48,cs),
(367,44,o),
(250,42,o),
(142,42,c),
(139,50,l),
(738,623,ls),
(747,630,o),
(751,639,o),
(751,649,cs),
(751,664,o),
(743,671,o),
(727,671,cs),
(709,671,o),
(576,666,o),
(354,666,cs),
(306,666,o),
(249,668,o),
(239,670,cs),
(229,672,o),
(219,673,o),
(213,673,cs),
(197,673,o),
(187,667,o),
(183,654,cs),
(167,602,o),
(146,547,o),
(122,489,cs),
(119,480,o),
(146,472,o),
(150,480,cs),
(168,521,o),
(247,627,o),
(305,627,cs),
(581,627,l),
(584,620,l),
(-17,50,ls),
(-23,43,o),
(-27,36,o),
(-27,28,cs),
(-27,9,o),
(-18,0,o),
(0,0,cs),
(190,0,ls),
(350,0,o),
(420,-1,o),
(479,-9,cs),
(536,-16,l)
);
}
);
width = 631;
},
{
anchors = (
{
name = bottom;
pos = (227,0);
},
{
name = center;
pos = (323,333);
},
{
name = top;
pos = (418,666);
},
{
name = zzcurly;
pos = (362,655);
}
);
layerId = "7904EAEE-2B64-409E-B923-0048172372BE";
shapes = (
{
closed = 1;
nodes = (
(492,-16,o),
(495,-13,o),
(498,-5,cs),
(519,62,o),
(538,106,o),
(568,162,cs),
(573,170,o),
(554,178,o),
(549,170,cs),
(489,73,o),
(439,40,o),
(408,38,cs),
(343,33,o),
(218,31,o),
(70,31,c),
(67,39,l),
(677,658,ls),
(681,662,o),
(683,666,o),
(683,668,cs),
(683,670,o),
(680,671,o),
(675,671,cs),
(662,671,o),
(552,666,o),
(344,666,cs),
(285,666,o),
(249,667,o),
(217,672,cs),
(204,674,o),
(203,674,o),
(202,674,cs),
(198,674,o),
(196,671,o),
(194,666,cs),
(172,602,o),
(151,544,o),
(128,491,cs),
(124,482,o),
(142,475,o),
(146,483,cs),
(165,520,o),
(236,639,o),
(294,639,cs),
(582,639,l),
(585,631,l),
(-22,19,ls),
(-26,14,o),
(-27,10,o),
(-27,6,cs),
(-27,2,o),
(-25,0,o),
(-16,0,cs),
(143,0,ls),
(334,0,o),
(453,-3,o),
(473,-11,cs),
(487,-16,l)
);
}
);
width = 570;
},
{
anchors = (
{
name = bottom;
pos = (187,0);
},
{
name = center;
pos = (289,333);
},
{
name = top;
pos = (375,666);
},
{
name = zzcurly;
pos = (320,655);
}
);
layerId = "E06D8587-1A71-4EC2-BD94-397D882F5FC1";
shapes = (
{
closed = 1;
nodes = (
(412,-16,o),
(416,-11,o),
(419,-1,cs),
(435,51,o),
(457,113,o),
(482,161,cs),
(485,167,o),
(469,182,o),
(463,170,cs),
(426,94,o),
(383,43,o),
(340,42,cs),
(275,40,o),
(191,37,o),
(90,37,c),
(86,46,l),
(598,640,ls),
(604,647,o),
(608,653,o),
(608,660,cs),
(608,667,o),
(603,671,o),
(596,671,cs),
(584,671,o),
(503,666,o),
(310,666,cs),
(266,666,o),
(230,668,o),
(215,671,cs),
(205,673,o),
(201,674,o),
(198,674,cs),
(189,674,o),
(183,668,o),
(180,658,cs),
(164,606,o),
(150,561,o),
(122,491,cs),
(117,478,o),
(136,474,o),
(140,483,cs),
(157,521,o),
(224,633,o),
(269,633,cs),
(490,633,l),
(494,623,l),
(-18,34,ls),
(-23,28,o),
(-25,20,o),
(-25,13,cs),
(-25,5,o),
(-20,0,o),
(-10,0,cs),
(131,0,ls),
(286,0,o),
(347,-4,o),
(377,-10,cs),
(407,-16,l)
);
}
);
width = 486;
},
{
anchors = (
{
name = bottom;
pos = (279,0);
},
{
name = center;
pos = (385,333);
},
{
name = top;
pos = (486,666);
},
{
name = zzcurly;
pos = (413,655);
}
);
layerId = "8F7CDE40-C368-4484-AA71-76B7ABD5539F";
shapes = (
{
closed = 1;
nodes = (
(599,-16,o),
(603,-13,o),
(605,-7,cs),
(629,63,o),
(652,109,o),
(684,159,cs),
(688,167,o),
(667,180,o),
(661,171,cs),
(595,75,o),
(536,40,o),
(499,38,cs),
(418,33,o),
(261,31,o),
(90,31,c),
(87,38,l),
(799,658,ls),
(803,661,o),
(806,665,o),
(806,668,cs),
(806,671,o),
(804,671,o),
(796,671,cs),
(780,671,o),
(627,666,o),
(396,666,cs),
(328,666,o),
(282,667,o),
(243,672,cs),
(228,674,o),
(226,674,o),
(225,674,cs),
(219,674,o),
(217,671,o),
(215,666,cs),
(188,595,o),
(168,543,o),
(142,491,cs),
(139,482,o),
(160,474,o),
(164,482,cs),
(187,520,o),
(267,639,o),
(338,639,cs),
(684,639,l),
(686,631,l),
(-20,19,ls),
(-25,14,o),
(-27,10,o),
(-27,5,cs),
(-27,1,o),
(-25,0,o),
(-18,0,cs),
(179,0,ls),
(404,0,o),
(546,-3,o),
(574,-11,cs),
(594,-16,l)
);
}
);
width = 693;
},
{
anchors = (
{
name = bottom;
pos = (236,0);
},
{
name = center;
pos = (336,333);
},
{
name = top;
pos = (427,666);
},
{
name = zzcurly;
pos = (381,655);
}
);
layerId = "997BDFA1-EC67-4686-8CFE-E56BDBE179FE";
shapes = (
{
closed = 1;
nodes = (
(508,-16,o),
(512,-13,o),
(515,-3,cs),
(533,56,o),
(555,110,o),
(584,160,cs),
(588,168,o),
(568,179,o),
(563,171,cs),
(511,85,o),
(462,42,o),
(423,40,cs),
(353,36,o),
(230,34,o),
(92,34,c),
(88,42,l),
(695,649,ls),
(701,654,o),
(703,659,o),
(703,664,cs),
(703,669,o),
(700,671,o),
(689,671,cs),
(673,671,o),
(561,666,o),
(350,666,cs),
(294,666,o),
(253,667,o),
(226,671,cs),
(213,673,o),
(210,674,o),
(208,674,cs),
(201,674,o),
(197,670,o),
(194,663,cs),
(174,602,o),
(153,545,o),
(130,491,cs),
(126,482,o),
(147,475,o),
(151,483,cs),
(170,520,o),
(242,636,o),
(300,636,cs),
(585,636,l),
(587,627,l),
(-17,26,ls),
(-22,21,o),
(-24,16,o),
(-24,10,cs),
(-24,3,o),
(-20,0,o),
(-12,0,cs),
(158,0,ls),
(341,0,o),
(448,-3,o),
(478,-10,cs),
(503,-16,l)
);
}
);
width = 585;
}
);
unicode = 90;
userData = {
KernOnName = Z;
};
}
{
glyphname = backslash;
layers = (
{
layerId = master01;
shapes = (
{
closed = 1;
nodes = (
(287,-11,o),
(314,-4,o),
(314,9,cs),
(314,11,o),
(314,12,o),
(313,15,cs),
(18,720,ls),
(16,725,o),
(12,728,o),
(5,728,cs),
(-10,728,o),
(-33,718,o),
(-33,704,cs),
(-33,702,o),
(-33,700,o),
(-32,697,cs),
(265,-6,ls),
(266,-9,o),
(270,-11,o),
(275,-11,cs)
);
}
);
width = 331;
},
{
layerId = "2438E31C-45B5-47A7-9B3D-1A0FEFB47671";
shapes = (
{
closed = 1;
nodes = (
(290,-5,o),
(326,16,o),
(326,24,cs),
(326,26,o),
(326,26,o),
(325,28,cs),
(19,715,ls),
(18,719,o),
(14,721,o),
(9,721,cs),
(-3,721,o),
(-46,705,o),
(-46,690,cs),
(-46,688,o),
(-45,687,o),
(-44,683,cs),
(261,-2,ls),
(262,-4,o),
(264,-5,o),
(268,-5,cs)
);
}
);
width = 329;
},
{
layerId = "7904EAEE-2B64-409E-B923-0048172372BE";
shapes = (
{
closed = 1;
nodes = (
(286,-13,o),
(311,-11,o),
(311,4,cs),
(311,6,o),
(311,7,o),
(310,10,cs),
(18,722,ls),
(16,727,o),
(11,730,o),
(4,730,cs),
(-12,730,o),
(-29,723,o),
(-29,708,cs),
(-29,706,o),
(-28,704,o),
(-27,702,cs),
(266,-7,ls),
(268,-11,o),
(271,-13,o),
(277,-13,cs)
);
}
);
width = 332;
},
{
layerId = "E06D8587-1A71-4EC2-BD94-397D882F5FC1";
shapes = (
{
closed = 1;
nodes = (
(235,-9,o),
(260,3,o),
(260,14,cs),
(260,16,o),
(260,17,o),
(259,19,cs),
(19,718,ls),
(17,722,o),
(15,725,o),
(10,725,cs),
(-1,725,o),
(-26,713,o),
(-26,699,cs),
(-26,697,o),
(-26,695,o),
(-25,692,cs),
(215,-4,ls),
(216,-7,o),
(218,-9,o),
(222,-9,cs)
);
}
);
width = 273;
},
{
layerId = "8F7CDE40-C368-4484-AA71-76B7ABD5539F";
shapes = (
{
closed = 1;
nodes = (
(338,-13,o),
(369,-11,o),
(369,4,cs),
(369,6,o),
(368,7,o),
(367,10,cs),
(17,722,ls),
(14,728,o),
(8,730,o),
(1,730,cs),
(-18,730,o),
(-40,723,o),
(-40,708,cs),
(-40,706,o),
(-39,704,o),
(-38,702,cs),
(314,-7,ls),
(316,-11,o),
(321,-13,o),
(328,-13,cs)
);
}
);
width = 388;
},
{
layerId = "997BDFA1-EC67-4686-8CFE-E56BDBE179FE";
shapes = (
{
closed = 1;
nodes = (
(287,-11,o),
(314,-4,o),
(314,9,cs),
(314,11,o),
(314,12,o),
(313,15,cs),
(18,720,ls),
(16,725,o),
(12,728,o),
(5,728,cs),
(-10,728,o),
(-33,718,o),
(-33,704,cs),
(-33,702,o),
(-33,700,o),
(-32,697,cs),
(265,-6,ls),
(266,-9,o),
(270,-11,o),
(275,-11,cs)
);
}
);
width = 331;
}
);
unicode = 92;
userData = {
KernOnSpecialSpacing = {
L = NoKerning;
R = NoKerning;
};
};
}
{
glyphname = asciicircum;
layers = (
{
layerId = master01;
shapes = (
{
closed = 1;
nodes = (
(174,261,l),
(331,614,l),
(313,614,l),
(469,261,l),
(536,261,l),
(348,670,l),
(296,670,l),
(107,261,l)
);
}
);
width = 599;
},
{
layerId = "2438E31C-45B5-47A7-9B3D-1A0FEFB47671";
shapes = (
{
closed = 1;
nodes = (
(122,268,l),
(291,620,l),
(248,620,l),
(415,268,l),
(495,268,l),
(287,685,l),
(254,685,l),
(46,268,l)
);
}
);
width = 500;
},
{
layerId = "7904EAEE-2B64-409E-B923-0048172372BE";
shapes = (
{
closed = 1;
nodes = (
(188,259,l),
(340,612,l),
(331,612,l),
(483,259,l),
(545,259,l),
(364,665,l),
(306,665,l),
(124,259,l)
);
}
);
width = 632;
},
{
layerId = "E06D8587-1A71-4EC2-BD94-397D882F5FC1";
shapes = (
{
closed = 1;
nodes = (
(140,264,l),
(269,616,l),
(247,616,l),
(375,264,l),
(433,264,l),
(276,675,l),
(241,675,l),
(83,264,l)
);
}
);
width = 486;
},
{
layerId = "8F7CDE40-C368-4484-AA71-76B7ABD5539F";
shapes = (
{
closed = 1;
nodes = (
(203,259,l),
(386,612,l),
(374,612,l),
(557,259,l),
(632,259,l),
(414,665,l),
(345,665,l),
(125,259,l)
);
}
);
width = 712;
},
{
layerId = "997BDFA1-EC67-4686-8CFE-E56BDBE179FE";
shapes = (
{
closed = 1;
nodes = (
(174,261,l),
(331,614,l),
(313,614,l),
(469,261,l),
(536,261,l),
(348,670,l),
(296,670,l),
(107,261,l)
);
}
);
width = 599;
}
);
unicode = 94;
userData = {
KernOnSpecialSpacing = {
L = NoKerning;
R = NoKerning;
};
};
}
{
color = 9;
glyphname = b;
kernLeft = KO_b;
kernRight = KO_b;
layers = (
{
anchors = (
{
name = bottom;
pos = (143,0);
},
{
name = center;
pos = (163,553);
},
{
name = center_left;
pos = (95,530);
},
{
name = top;
pos = (284,691);
},
{
name = top_dot;
pos = (278,406);
},
{
name = top_xheight;
pos = (325,416);
},
{
name = us;
pos = (370,415);
},
{
name = zzcurly;
pos = (156,548);
}
);
layerId = master01;
shapes = (
{
closed = 1;
nodes = (
(249,-13,o),
(391,148,o),
(391,322,cs),
(391,385,o),
(364,416,o),
(310,416,cs),
(261,416,o),
(205,374,o),
(141,289,c),
(130,292,l),
(227,706,ls),
(228,711,o),
(229,715,o),
(229,719,cs),
(229,723,o),
(227,725,o),
(223,725,cs),
(216,725,o),
(210,724,o),
(206,721,cs),
(170,707,o),
(131,698,o),
(109,698,cs),
(100,698,o),
(100,673,o),
(109,673,cs),
(135,673,o),
(148,660,o),
(148,634,cs),
(148,624,o),
(145,609,o),
(140,586,cs),
(29,110,ls),
(25,93,o),
(23,78,o),
(23,65,cs),
(23,13,o),
(47,-13,o),
(94,-13,cs)
);
},
{
closed = 1;
nodes = (
(103,22,o),
(87,41,o),
(87,80,cs),
(87,103,o),
(92,130,o),
(103,162,cs),
(131,254,o),
(229,368,o),
(280,368,cs),
(307,368,o),
(321,343,o),
(321,294,cs),
(321,172,o),
(218,22,o),
(135,22,cs)
);
}
);
width = 395;
},
{
anchors = (
{
name = bottom;
pos = (158,0);
},
{
name = center;
pos = (174,553);
},
{
name = center_left;
pos = (91,530);
},
{
name = top;
pos = (299,691);
},
{
name = top_dot;
pos = (292,406);
},
{
name = top_xheight;
pos = (344,416);
},
{
name = us;
pos = (384,415);
},
{
name = zzcurly;
pos = (162,548);
}
);
layerId = "2438E31C-45B5-47A7-9B3D-1A0FEFB47671";
shapes = (
{
closed = 1;
nodes = (
(276,-13,o),
(419,128,o),
(419,297,cs),
(419,376,o),
(386,416,o),
(319,416,cs),
(275,416,o),
(227,383,o),
(171,315,c),
(163,319,l),
(255,702,ls),
(257,705,o),
(257,708,o),
(257,716,cs),
(257,721,o),
(253,725,o),
(246,725,cs),
(241,725,o),
(237,724,o),
(226,721,cs),
(186,708,o),
(138,699,o),
(106,699,cs),
(96,699,o),
(96,664,o),
(106,664,cs),
(127,664,o),
(137,651,o),
(137,626,cs),
(137,617,o),
(135,606,o),
(131,587,cs),
(21,128,ls),
(17,113,o),
(15,99,o),
(15,85,cs),
(15,20,o),
(45,-13,o),
(104,-13,cs)
);
},
{
closed = 1;
nodes = (
(125,31,o),
(114,51,o),
(114,93,cs),
(114,109,o),
(120,137,o),
(129,169,cs),
(152,252,o),
(236,357,o),
(280,357,cs),
(301,357,o),
(312,338,o),
(312,302,cs),
(312,167,o),
(230,31,o),
(148,31,cs)
);
}
);
width = 421;
},
{
anchors = (
{
name = bottom;
pos = (138,0);
},
{
name = center;
pos = (158,553);
},
{
name = center_left;
pos = (96,530);
},
{
name = top;
pos = (278,691);
},
{
name = top_dot;
pos = (273,406);
},
{
name = top_xheight;
pos = (305,416);
},
{
name = us;
pos = (361,415);
},
{
name = zzcurly;
pos = (152,548);
}
);
layerId = "7904EAEE-2B64-409E-B923-0048172372BE";
shapes = (
{
closed = 1;
nodes = (
(240,-13,o),
(381,154,o),
(381,330,cs),
(381,388,o),
(356,416,o),
(306,416,cs),
(256,416,o),
(198,371,o),
(130,280,c),
(119,283,l),
(217,708,ls),
(218,713,o),
(219,716,o),
(219,720,cs),
(219,723,o),
(217,725,o),
(215,725,cs),
(209,725,o),
(203,724,o),
(199,721,cs),
(170,707,o),
(134,698,o),
(110,698,cs),
(101,698,o),
(101,676,o),
(110,676,cs),
(137,676,o),
(151,663,o),
(151,637,cs),
(151,628,o),
(149,614,o),
(143,585,cs),
(31,104,ls),
(27,86,o),
(25,70,o),
(25,58,cs),
(25,10,o),
(46,-13,o),
(90,-13,cs)
);
},
{
closed = 1;
nodes = (
(95,19,o),
(77,38,o),
(77,75,cs),
(77,96,o),
(82,121,o),
(93,160,cs),
(123,253,o),
(227,372,o),
(279,372,cs),
(309,372,o),
(324,345,o),
(324,292,cs),
(324,174,o),
(214,19,o),
(130,19,cs)
);
}
);
width = 386;
},
{
anchors = (
{
name = bottom;
pos = (104,0);
},
{
name = center;
pos = (146,553);
},
{
name = center_left;
pos = (110,530);
},
{
name = top;
pos = (257,691);
},
{
name = top_dot;
pos = (252,406);
},
{
name = top_xheight;
pos = (284,416);
},
{
name = us;
pos = (318,415);
},
{
name = zzcurly;
pos = (133,548);
}
);
layerId = "E06D8587-1A71-4EC2-BD94-397D882F5FC1";
shapes = (
{
closed = 1;
nodes = (
(196,-13,o),
(324,155,o),
(324,328,cs),
(324,386,o),
(302,416,o),
(258,416,cs),
(221,416,o),
(176,376,o),
(123,297,c),
(116,300,l),
(213,705,ls),
(215,713,o),
(215,716,o),
(215,719,cs),
(215,723,o),
(213,725,o),
(209,725,cs),
(204,725,o),
(199,724,o),
(195,721,cs),
(169,708,o),
(134,699,o),
(109,699,cs),
(99,699,o),
(99,673,o),
(108,673,cs),
(125,673,o),
(134,662,o),
(134,640,cs),
(134,630,o),
(131,612,o),
(126,589,cs),
(12,116,ls),
(8,99,o),
(5,80,o),
(5,71,cs),
(5,13,o),
(23,-13,o),
(64,-13,cs)
);
},
{
closed = 1;
nodes = (
(78,22,o),
(67,39,o),
(67,74,cs),
(67,96,o),
(71,118,o),
(85,166,cs),
(110,253,o),
(192,368,o),
(229,368,cs),
(246,368,o),
(255,349,o),
(255,313,cs),
(255,183,o),
(169,22,o),
(99,22,cs)
);
}
);
width = 324;
},
{
anchors = (
{
name = bottom;
pos = (169,0);
},
{
name = center;
pos = (178,553);
},
{
name = center_left;
pos = (92,530);
},
{
name = top;
pos = (310,691);
},
{
name = top_dot;
pos = (328,406);
},
{
name = top_xheight;
pos = (365,416);
},
{
name = us;
pos = (422,416);
},
{
name = zzcurly;
pos = (173,548);
}
);
layerId = "8F7CDE40-C368-4484-AA71-76B7ABD5539F";
shapes = (
{
closed = 1;
nodes = (
(289,-13,o),
(451,146,o),
(451,321,cs),
(451,386,o),
(421,416,o),
(356,416,cs),
(296,416,o),
(228,371,o),
(151,281,c),
(138,284,l),
(240,708,ls),
(242,714,o),
(242,717,o),
(242,719,cs),
(242,724,o),
(241,725,o),
(236,725,cs),
(228,725,o),
(224,724,o),
(218,721,cs),
(181,707,o),
(138,698,o),
(110,698,cs),
(100,698,o),
(101,673,o),
(110,673,cs),
(143,673,o),
(160,659,o),
(160,632,cs),
(160,624,o),
(158,610,o),
(151,583,cs),
(36,104,ls),
(32,89,o),
(30,76,o),
(30,63,cs),
(30,12,o),
(57,-13,o),
(111,-13,cs)
);
},
{
closed = 1;
nodes = (
(115,22,o),
(94,41,o),
(94,79,cs),
(94,101,o),
(99,126,o),
(111,159,cs),
(143,252,o),
(262,368,o),
(325,368,cs),
(360,368,o),
(380,339,o),
(380,287,cs),
(380,169,o),
(258,22,o),
(159,22,cs)
);
}
);
width = 456;
},
{
anchors = (
{
name = bottom;
pos = (177,0);
},
{
name = center;
pos = (163,592);
},
{
name = center_left;
pos = (83,530);
},
{
name = top;
pos = (275,691);
},
{
name = top_dot;
pos = (383,589);
},
{
name = top_xheight;
pos = (411,598);
},
{
name = us;
pos = (515,598);
},
{
name = zzcurly;
pos = (161,582);
}
);
layerId = "997BDFA1-EC67-4686-8CFE-E56BDBE179FE";
shapes = (
{
closed = 1;
nodes = (
(332,-16,o),
(534,220,o),
(534,473,cs),
(534,556,o),
(498,598,o),
(425,598,cs),
(354,598,o),
(271,534,o),
(175,406,c),
(159,410,l),
(228,710,ls),
(228,713,o),
(229,715,o),
(229,719,cs),
(229,723,o),
(227,726,o),
(224,726,cs),
(217,726,o),
(207,723,o),
(196,718,cs),
(165,704,o),
(112,692,o),
(83,692,cs),
(73,692,o),
(73,664,o),
(83,664,cs),
(115,664,o),
(132,648,o),
(132,617,cs),
(132,606,o),
(129,588,o),
(122,554,cs),
(29,152,ls),
(24,130,o),
(21,107,o),
(21,87,cs),
(21,18,o),
(53,-16,o),
(116,-16,cs)
);
},
{
closed = 1;
nodes = (
(124,31,o),
(98,58,o),
(98,111,cs),
(98,144,o),
(106,183,o),
(122,232,cs),
(166,367,o),
(312,534,o),
(386,534,cs),
(428,534,o),
(449,496,o),
(449,420,cs),
(449,251,o),
(293,31,o),
(173,31,cs)
);
}
);
width = 536;
},
{
anchors = (
{
name = bottom;
pos = (177,0);
},
{
name = center;
pos = (173,581);
},
{
name = center_left;
pos = (97,530);
},
{
name = top;
pos = (288,691);
},
{
name = top_dot;
pos = (369,528);
},
{
name = top_xheight;
pos = (398,543);
},
{
name = us;
pos = (484,538);
},
{
name = zzcurly;
pos = (170,572);
}
);
associatedMasterId = "997BDFA1-EC67-4686-8CFE-E56BDBE179FE";
attr = {
coordinates = (
400,
100,
47
);
};
layerId = "943EDC92-E9A3-4114-AEF6-5F84096761A8";
name = "{400, 100, 47}";
shapes = (
{
closed = 1;
nodes = (
(318,-15,o),
(501,198,o),
(501,428,cs),
(501,504,o),
(467,543,o),
(400,543,cs),
(337,543,o),
(262,486,o),
(175,371,c),
(161,375,l),
(237,709,ls),
(239,713,o),
(239,715,o),
(239,719,cs),
(239,723,o),
(237,726,o),
(233,726,cs),
(228,726,o),
(218,723,o),
(209,719,cs),
(179,705,o),
(130,694,o),
(101,694,cs),
(91,694,o),
(91,667,o),
(101,667,cs),
(131,667,o),
(147,652,o),
(147,623,cs),
(147,611,o),
(144,592,o),
(137,564,cs),
(39,140,ls),
(33,112,o),
(31,94,o),
(31,81,cs),
(31,17,o),
(60,-15,o),
(120,-15,cs)
);
},
{
closed = 1;
nodes = (
(128,28,o),
(105,53,o),
(105,102,cs),
(105,133,o),
(111,166,o),
(126,211,cs),
(166,334,o),
(297,484,o),
(364,484,cs),
(401,484,o),
(420,450,o),
(420,382,cs),
(420,227,o),
(281,28,o),
(172,28,cs)
);
}
);
width = 500;
}
);
unicode = 98;
userData = {
KernOnName = b;
};
}
{
color = 9;
glyphname = c;
kernLeft = KO_c;
kernRight = KO_c;
layers = (
{
anchors = (
{
name = bottom;
pos = (152,0);
},
{
name = cedilla;
pos = (143,0);
},
{
name = ogonek;
pos = (229,5);
},
{
name = top;
pos = (257,418);
},
{
name = us;
pos = (374,415);
},
{
name = zzcurly;
pos = (326,378);
}
);
layerId = master01;
shapes = (
{
closed = 1;
nodes = (
(207,-13,o),
(257,13,o),
(288,55,cs),
(294,64,o),
(279,78,o),
(272,71,cs),
(245,44,o),
(219,31,o),
(192,31,cs),
(144,31,o),
(117,74,o),
(117,152,cs),
(117,281,o),
(180,385,o),
(258,385,cs),
(272,385,o),
(285,381,o),
(291,375,cs),
(295,370,o),
(298,358,o),
(300,340,c),
(304,333,o),
(309,331,o),
(318,331,cs),
(337,331,o),
(355,350,o),
(355,368,cs),
(355,396,o),
(321,416,o),
(272,416,cs),
(155,416,o),
(51,280,o),
(51,127,cs),
(51,41,o),
(93,-13,o),
(159,-13,cs)
);
}
);
width = 340;
},
{
anchors = (
{
name = bottom;
pos = (153,0);
},
{
name = cedilla;
pos = (142,0);
},
{
name = ogonek;
pos = (230,5);
},
{
name = top;
pos = (263,418);
},
{
name = us;
pos = (359,415);
},
{
name = zzcurly;
pos = (340,378);
}
);
guides = (
{
pos = (-7,0);
showMeasurement = 1;
}
);
layerId = "2438E31C-45B5-47A7-9B3D-1A0FEFB47671";
shapes = (
{
closed = 1;
nodes = (
(208,-13,o),
(249,8,o),
(296,55,cs),
(303,63,o),
(281,86,o),
(274,78,cs),
(253,57,o),
(224,44,o),
(199,44,cs),
(156,44,o),
(135,83,o),
(135,161,cs),
(135,289,o),
(180,376,o),
(246,376,cs),
(262,376,o),
(275,371,o),
(282,363,cs),
(286,359,o),
(289,347,o),
(290,329,c),
(296,319,o),
(306,314,o),
(320,314,cs),
(345,314,o),
(369,336,o),
(369,360,cs),
(369,392,o),
(330,416,o),
(278,416,cs),
(146,416,o),
(33,284,o),
(33,129,cs),
(33,46,o),
(86,-13,o),
(161,-13,cs)
);
}
);
width = 351;
},
{
anchors = (
{
name = bottom;
pos = (151,0);
},
{
name = cedilla;
pos = (143,0);
},
{
name = ogonek;
pos = (227,5);
},
{
name = top;
pos = (255,418);
},
{
name = us;
pos = (379,415);
},
{
name = zzcurly;
pos = (331,378);
}
);
guides = (
{
angle = 90;
pos = (0,426);
}
);
layerId = "7904EAEE-2B64-409E-B923-0048172372BE";
shapes = (
{
closed = 1;
nodes = (
(208,-13,o),
(257,13,o),
(286,55,cs),
(291,62,o),
(278,75,o),
(272,69,cs),
(243,39,o),
(218,26,o),
(189,26,cs),
(139,26,o),
(111,70,o),
(111,149,cs),
(111,282,o),
(178,388,o),
(262,388,cs),
(276,388,o),
(288,384,o),
(294,378,cs),
(297,375,o),
(299,367,o),
(303,343,c),
(306,338,o),
(310,336,o),
(318,336,cs),
(334,336,o),
(350,354,o),
(350,371,cs),
(350,396,o),
(314,416,o),
(269,416,cs),
(157,416,o),
(57,280,o),
(57,127,cs),
(57,41,o),
(96,-13,o),
(158,-13,cs)
);
}
);
width = 337;
},
{
anchors = (
{
name = bottom;
pos = (120,0);
},
{
name = cedilla;
pos = (113,0);
},
{
name = ogonek;
pos = (183,5);
},
{
name = top;
pos = (229,418);
},
{
name = us;
pos = (386,415);
},
{
name = zzcurly;
pos = (288,378);
}
);
layerId = "E06D8587-1A71-4EC2-BD94-397D882F5FC1";
shapes = (
{
closed = 1;
nodes = (
(162,-13,o),
(197,9,o),
(236,56,cs),
(243,65,o),
(229,85,o),
(217,67,cs),
(202,45,o),
(177,31,o),
(155,31,cs),
(123,31,o),
(106,67,o),
(106,133,cs),
(106,269,o),
(159,385,o),
(221,385,cs),
(232,385,o),
(242,380,o),
(247,373,cs),
(249,369,o),
(250,362,o),
(252,336,c),
(255,329,o),
(261,325,o),
(270,325,cs),
(289,325,o),
(307,346,o),
(307,367,cs),
(307,395,o),
(277,416,o),
(239,416,cs),
(143,416,o),
(39,259,o),
(39,114,cs),
(39,38,o),
(74,-13,o),
(125,-13,cs)
);
}
);
width = 291;
},
{
anchors = (
{
name = bottom;
pos = (176,0);
},
{
name = cedilla;
pos = (167,0);
},
{
name = ogonek;
pos = (267,5);
},
{
name = top;
pos = (286,418);
},
{
name = us;
pos = (371,415);
},
{
name = zzcurly;
pos = (372,378);
}
);
layerId = "8F7CDE40-C368-4484-AA71-76B7ABD5539F";
shapes = (
{
closed = 1;
nodes = (
(245,-13,o),
(302,12,o),
(333,52,cs),
(341,62,o),
(329,79,o),
(319,71,cs),
(285,43,o),
(256,31,o),
(221,31,cs),
(158,31,o),
(123,76,o),
(123,158,cs),
(123,285,o),
(199,385,o),
(295,385,cs),
(311,385,o),
(328,381,o),
(333,376,cs),
(338,372,o),
(340,367,o),
(347,343,c),
(350,338,o),
(355,336,o),
(364,336,cs),
(383,336,o),
(403,353,o),
(403,370,cs),
(403,397,o),
(362,416,o),
(304,416,cs),
(171,416,o),
(58,287,o),
(58,135,cs),
(58,44,o),
(107,-13,o),
(185,-13,cs)
);
}
);
width = 390;
},
{
anchors = (
{
name = bottom;
pos = (173,0);
},
{
name = cedilla;
pos = (165,0);
},
{
name = ogonek;
pos = (288,6);
},
{
name = top;
pos = (369,676);
},
{
name = us;
pos = (502,676);
},
{
name = zzcurly;
pos = (469,613);
}
);
layerId = "997BDFA1-EC67-4686-8CFE-E56BDBE179FE";
shapes = (
{
closed = 1;
nodes = (
(265,-16,o),
(344,24,o),
(405,95,cs),
(413,106,o),
(394,123,o),
(384,113,cs),
(328,60,o),
(292,43,o),
(236,43,cs),
(166,43,o),
(119,127,o),
(119,252,cs),
(119,436,o),
(251,634,o),
(374,634,cs),
(394,634,o),
(414,628,o),
(423,619,cs),
(429,614,o),
(430,607,o),
(438,563,c),
(444,556,o),
(449,553,o),
(457,553,cs),
(480,553,o),
(506,581,o),
(506,606,cs),
(506,643,o),
(448,676,o),
(384,676,cs),
(215,676,o),
(44,440,o),
(44,206,cs),
(44,72,o),
(100,-16,o),
(186,-16,cs)
);
}
);
width = 471;
}
);
unicode = 99;
userData = {
KernOnName = c;
};
}
{
color = 9;
glyphname = k;
kernLeft = KO_l;
kernRight = KO_k;
layers = (
{
anchors = (
{
name = bottom;
pos = (178,0);
},
{
name = center;
pos = (193,532);
},
{
name = top;
pos = (324,705);
},
{
name = top_dot;
pos = (315,645);
},
{
name = top_xheight;
pos = (357,416);
},
{
name = us;
pos = (387,416);
},
{
name = zzcurly;
pos = (192,548);
}
);
layerId = master01;
shapes = (
{
closed = 1;
nodes = (
(87,-13,o),
(98,-9,o),
(100,-2,cs),
(134,147,ls),
(137,160,o),
(144,166,o),
(154,166,cs),
(171,166,o),
(181,162,o),
(186,154,cs),
(253,46,ls),
(280,2,o),
(302,-13,o),
(340,-13,cs),
(378,-13,o),
(399,0,o),
(421,35,cs),
(426,44,o),
(410,58,o),
(402,52,cs),
(386,35,o),
(372,28,o),
(357,28,cs),
(335,28,o),
(317,41,o),
(300,69,cs),
(237,170,ls),
(233,177,o),
(233,182,o),
(237,184,cs),
(345,247,o),
(396,299,o),
(396,346,cs),
(396,389,o),
(372,416,o),
(334,416,cs),
(285,416,o),
(220,371,o),
(179,309,c),
(172,312,l),
(264,706,ls),
(265,711,o),
(266,715,o),
(266,719,cs),
(266,723,o),
(264,725,o),
(260,725,cs),
(258,725,o),
(252,724,o),
(244,721,cs),
(199,706,o),
(167,698,o),
(147,698,cs),
(138,698,o),
(138,673,o),
(147,673,cs),
(172,673,o),
(185,660,o),
(185,634,cs),
(185,623,o),
(183,610,o),
(177,587,cs),
(41,-2,ls),
(39,-9,o),
(48,-13,o),
(68,-13,cs)
);
},
{
closed = 1;
nodes = (
(149,189,o),
(145,191,o),
(145,194,cs),
(145,196,o),
(146,199,o),
(146,201,cs),
(155,244,ls),
(157,254,o),
(163,264,o),
(175,281,cs),
(220,338,o),
(262,367,o),
(298,367,cs),
(320,367,o),
(331,354,o),
(331,328,cs),
(331,265,o),
(235,189,o),
(155,189,cs)
);
}
);
width = 407;
},
{
anchors = (
{
name = bottom;
pos = (177,0);
},
{
name = center;
pos = (194,532);
},
{
name = top;
pos = (322,705);
},
{
name = top_dot;
pos = (314,645);
},
{
name = top_xheight;
pos = (367,416);
},
{
name = us;
pos = (390,415);
},
{
name = zzcurly;
pos = (182,548);
}
);
guides = (
{
angle = 90;
pos = (945,34);
},
{
pos = (219,990);
showMeasurement = 1;
}
);
layerId = "2438E31C-45B5-47A7-9B3D-1A0FEFB47671";
shapes = (
{
closed = 1;
nodes = (
(98,-13,o),
(113,-9,o),
(115,0,cs),
(152,153,ls),
(154,162,o),
(156,166,o),
(159,166,cs),
(166,166,o),
(171,164,o),
(176,156,cs),
(243,53,ls),
(275,4,o),
(301,-13,o),
(344,-13,cs),
(387,-13,o),
(416,2,o),
(449,42,cs),
(456,49,o),
(433,73,o),
(426,66,cs),
(413,51,o),
(400,44,o),
(387,44,cs),
(366,44,o),
(345,61,o),
(324,95,cs),
(272,176,ls),
(265,187,o),
(265,193,o),
(274,197,cs),
(348,233,o),
(414,303,o),
(414,345,cs),
(414,391,o),
(387,416,o),
(337,416,cs),
(297,416,o),
(242,387,o),
(206,346,c),
(198,350,l),
(282,702,ls),
(283,707,o),
(284,711,o),
(284,716,cs),
(284,721,o),
(280,725,o),
(273,725,cs),
(268,725,o),
(264,724,o),
(253,721,cs),
(214,708,o),
(167,699,o),
(133,699,cs),
(124,699,o),
(124,664,o),
(133,664,cs),
(154,664,o),
(164,651,o),
(164,626,cs),
(164,618,o),
(163,609,o),
(159,593,cs),
(18,0,ls),
(16,-8,o),
(33,-13,o),
(64,-13,cs)
);
},
{
closed = 1;
nodes = (
(168,192,o),
(163,195,o),
(163,199,cs),
(163,203,o),
(164,205,o),
(164,207,cs),
(178,267,ls),
(180,275,o),
(186,286,o),
(196,298,cs),
(234,342,o),
(265,361,o),
(296,361,cs),
(307,361,o),
(313,352,o),
(313,334,cs),
(313,268,o),
(240,192,o),
(176,192,cs)
);
}
);
width = 420;
},
{
anchors = (
{
name = bottom;
pos = (179,0);
},
{
name = center;
pos = (197,532);
},
{
name = top;
pos = (323,705);
},
{
name = top_dot;
pos = (315,645);
},
{
name = top_xheight;
pos = (356,416);
},
{
name = us;
pos = (379,415);
},
{
name = zzcurly;
pos = (194,548);
}
);
guides = (
{
angle = 90;
pos = (861,38);
},
{
angle = -58.6632;
pos = (547,202);
}
);
layerId = "7904EAEE-2B64-409E-B923-0048172372BE";
shapes = (
{
closed = 1;
nodes = (
(85,-13,o),
(93,-9,o),
(95,-2,cs),
(130,145,ls),
(133,159,o),
(141,166,o),
(154,166,cs),
(173,166,o),
(184,162,o),
(190,153,cs),
(257,43,ls),
(281,4,o),
(305,-13,o),
(337,-13,cs),
(370,-13,o),
(393,2,o),
(410,33,cs),
(415,40,o),
(400,55,o),
(395,48,cs),
(381,31,o),
(365,22,o),
(347,22,cs),
(326,22,o),
(307,35,o),
(292,60,cs),
(227,168,ls),
(223,175,o),
(223,178,o),
(226,180,cs),
(343,248,o),
(391,297,o),
(391,347,cs),
(391,389,o),
(369,416,o),
(334,416,cs),
(282,416,o),
(214,366,o),
(171,297,c),
(165,299,l),
(259,708,ls),
(260,713,o),
(261,716,o),
(261,720,cs),
(261,723,o),
(260,725,o),
(257,725,cs),
(255,725,o),
(245,723,o),
(241,721,cs),
(200,706,o),
(168,698,o),
(153,698,cs),
(143,698,o),
(143,676,o),
(153,676,cs),
(179,676,o),
(193,663,o),
(193,637,cs),
(193,626,o),
(190,610,o),
(184,585,cs),
(50,-2,ls),
(48,-9,o),
(55,-13,o),
(71,-13,cs)
);
},
{
closed = 1;
nodes = (
(142,188,o),
(139,189,o),
(139,193,cs),
(139,194,o),
(140,197,o),
(140,199,cs),
(149,236,ls),
(152,248,o),
(159,261,o),
(169,275,cs),
(217,338,o),
(261,369,o),
(301,369,cs),
(326,369,o),
(338,355,o),
(338,326,cs),
(338,264,o),
(234,188,o),
(149,188,cs)
);
}
);
width = 401;
},
{
anchors = (
{
name = bottom;
pos = (134,0);
},
{
name = center;
pos = (177,532);
},
{
name = top;
pos = (287,705);
},
{
name = top_dot;
pos = (276,645);
},
{
name = top_xheight;
pos = (319,416);
},
{
name = us;
pos = (328,415);
},
{
name = zzcurly;
pos = (165,548);
}
);
guides = (
{
angle = 90;
pos = (728,35);
},
{
angle = -63.2251;
pos = (485,208);
}
);
layerId = "E06D8587-1A71-4EC2-BD94-397D882F5FC1";
shapes = (
{
closed = 1;
nodes = (
(64,-13,o),
(74,-9,o),
(76,-1,cs),
(113,149,ls),
(116,160,o),
(120,166,o),
(125,166,cs),
(135,166,o),
(142,162,o),
(145,155,cs),
(194,48,ls),
(217,-2,o),
(230,-13,o),
(265,-13,cs),
(300,-13,o),
(322,3,o),
(344,41,cs),
(348,49,o),
(330,61,o),
(325,54,cs),
(312,36,o),
(301,28,o),
(291,28,cs),
(275,28,o),
(261,43,o),
(245,78,cs),
(202,172,ls),
(198,179,o),
(199,185,o),
(203,188,cs),
(287,246,o),
(332,304,o),
(332,353,cs),
(332,392,o),
(312,416,o),
(281,416,cs),
(245,416,o),
(194,376,o),
(161,321,c),
(155,325,l),
(246,705,ls),
(248,713,o),
(248,716,o),
(248,719,cs),
(248,723,o),
(246,725,o),
(242,725,cs),
(240,725,o),
(236,724,o),
(227,721,cs),
(194,708,o),
(159,699,o),
(141,699,cs),
(132,699,o),
(130,673,o),
(139,673,cs),
(157,673,o),
(166,661,o),
(166,639,cs),
(166,626,o),
(164,611,o),
(159,592,cs),
(17,-1,ls),
(15,-9,o),
(23,-13,o),
(43,-13,cs)
);
},
{
closed = 1;
nodes = (
(126,189,o),
(123,191,o),
(123,195,cs),
(123,197,o),
(124,200,o),
(125,202,cs),
(137,252,ls),
(140,264,o),
(145,275,o),
(154,288,cs),
(193,343,o),
(221,367,o),
(248,367,cs),
(261,367,o),
(268,356,o),
(268,335,cs),
(268,271,o),
(192,189,o),
(133,189,cs)
);
}
);
width = 322;
},
{
anchors = (
{
name = bottom;
pos = (211,0);
},
{
name = center;
pos = (208,532);
},
{
name = top;
pos = (361,705);
},
{
name = top_dot;
pos = (353,645);
},
{
name = top_xheight;
pos = (376,416);
},
{
name = us;
pos = (437,416);
},
{
name = zzcurly;
pos = (201,548);
}
);
guides = (
{
angle = 90;
pos = (1025,0);
},
{
angle = -53.7905;
pos = (650,201);
}
);
layerId = "8F7CDE40-C368-4484-AA71-76B7ABD5539F";
shapes = (
{
closed = 1;
nodes = (
(96,-13,o),
(107,-9,o),
(109,-2,cs),
(145,145,ls),
(149,160,o),
(158,166,o),
(173,166,cs),
(193,166,o),
(209,161,o),
(215,153,cs),
(299,43,ls),
(330,2,o),
(357,-13,o),
(399,-13,cs),
(442,-13,o),
(464,-1,o),
(488,36,cs),
(494,44,o),
(474,57,o),
(468,50,cs),
(453,35,o),
(435,28,o),
(411,28,cs),
(384,28,o),
(360,39,o),
(344,60,cs),
(262,168,ls),
(257,176,o),
(256,177,o),
(261,180,cs),
(396,246,o),
(452,294,o),
(452,344,cs),
(452,387,o),
(423,416,o),
(379,416,cs),
(318,416,o),
(239,366,o),
(190,297,c),
(182,299,l),
(281,708,ls),
(282,711,o),
(283,716,o),
(283,719,cs),
(283,723,o),
(281,725,o),
(277,725,cs),
(273,725,o),
(269,724,o),
(258,721,cs),
(224,707,o),
(183,698,o),
(152,698,cs),
(142,698,o),
(143,673,o),
(153,673,cs),
(185,673,o),
(201,659,o),
(201,632,cs),
(201,623,o),
(199,610,o),
(192,582,cs),
(51,-2,ls),
(49,-9,o),
(58,-13,o),
(78,-13,cs)
);
},
{
closed = 1;
nodes = (
(158,189,o),
(155,190,o),
(155,194,cs),
(155,198,o),
(155,199,o),
(156,200,cs),
(165,236,ls),
(168,248,o),
(175,259,o),
(189,275,cs),
(242,336,o),
(294,367,o),
(341,367,cs),
(371,367,o),
(386,353,o),
(386,324,cs),
(386,262,o),
(268,189,o),
(167,189,cs)
);
}
);
width = 479;
},
{
anchors = (
{
name = bottom;
pos = (251,0);
},
{
name = center;
pos = (212,611);
},
{
name = top;
pos = (335,707);
},
{
name = top_dot;
pos = (326,645);
},
{
name = top_xheight;
pos = (435,598);
},
{
name = us;
pos = (509,598);
},
{
name = zzcurly;
pos = (223,611);
}
);
guides = (
{
angle = 257.3109;
pos = (-461,626);
}
);
layerId = "997BDFA1-EC67-4686-8CFE-E56BDBE179FE";
shapes = (
{
closed = 1;
nodes = (
(93,-16,o),
(104,-11,o),
(106,-1,cs),
(155,209,ls),
(160,230,o),
(172,240,o),
(190,240,cs),
(219,240,o),
(237,234,o),
(244,221,cs),
(339,64,ls),
(378,1,o),
(405,-16,o),
(470,-16,cs),
(502,-16,o),
(539,8,o),
(568,47,cs),
(576,58,o),
(556,78,o),
(547,69,cs),
(523,45,o),
(500,33,o),
(477,33,cs),
(450,33,o),
(424,51,o),
(400,85,cs),
(291,242,ls),
(286,251,o),
(286,255,o),
(291,258,cs),
(440,337,o),
(528,426,o),
(528,498,cs),
(528,561,o),
(498,598,o),
(447,598,cs),
(374,598,o),
(276,525,o),
(212,423,c),
(204,427,l),
(268,711,l),
(269,715,o),
(270,719,o),
(270,721,cs),
(270,725,o),
(269,727,o),
(265,727,cs),
(262,727,o),
(259,726,o),
(251,722,cs),
(218,707,o),
(154,693,o),
(121,693,cs),
(112,693,o),
(111,667,o),
(121,667,cs),
(153,667,o),
(171,652,o),
(171,623,cs),
(171,606,o),
(168,589,o),
(160,551,cs),
(36,-1,ls),
(34,-10,o),
(50,-16,o),
(74,-16,cs)
);
},
{
closed = 1;
nodes = (
(173,271,o),
(169,273,o),
(169,277,cs),
(169,278,o),
(168,283,o),
(169,286,cs),
(181,338,ls),
(184,354,o),
(192,370,o),
(210,393,cs),
(282,485,o),
(345,531,o),
(401,531,cs),
(437,531,o),
(456,510,o),
(456,468,cs),
(456,379,o),
(306,271,o),
(182,271,cs)
);
}
);
width = 578;
},
{
anchors = (
{
name = bottom;
pos = (232,0);
},
{
name = center;
pos = (209,587);
},
{
name = top;
pos = (335,706);
},
{
name = top_dot;
pos = (326,645);
},
{
name = top_xheight;
pos = (415,543);
},
{
name = us;
pos = (480,538);
},
{
name = zzcurly;
pos = (217,592);
}
);
associatedMasterId = "997BDFA1-EC67-4686-8CFE-E56BDBE179FE";
attr = {
coordinates = (
400,
100,
47
);
};
guides = (
{
angle = 257.3109;
pos = (-460,626);
}
);
layerId = "D2F5E4D9-B4EB-4FC6-90F2-00415B43A78A";
name = "{400, 100, 47}";
shapes = (
{
closed = 1;
nodes = (
(93,-15,o),
(105,-10,o),
(107,-1,cs),
(151,190,ls),
(155,208,o),
(166,218,o),
(183,218,cs),
(208,218,o),
(222,213,o),
(229,201,cs),
(316,59,ls),
(352,1,o),
(377,-15,o),
(434,-15,cs),
(467,-15,o),
(500,6,o),
(527,43,cs),
(534,53,o),
(515,71,o),
(506,63,cs),
(483,41,o),
(463,31,o),
(444,31,cs),
(420,31,o),
(398,47,o),
(374,81,cs),
(278,221,ls),
(273,230,o),
(273,233,o),
(278,236,cs),
(414,310,o),
(491,388,o),
(491,452,cs),
(491,508,o),
(462,543,o),
(416,543,cs),
(350,543,o),
(264,480,o),
(205,389,c),
(198,392,l),
(270,709,ls),
(271,711,o),
(271,714,o),
(271,720,cs),
(271,725,o),
(270,726,o),
(268,726,cs),
(264,726,o),
(260,725,o),
(252,722,cs),
(215,707,o),
(159,694,o),
(132,694,cs),
(123,694,o),
(122,669,o),
(132,669,cs),
(162,669,o),
(178,654,o),
(178,626,cs),
(178,612,o),
(175,595,o),
(168,562,cs),
(41,-1,ls),
(39,-9,o),
(53,-15,o),
(75,-15,cs)
);
},
{
closed = 1;
nodes = (
(169,247,o),
(165,249,o),
(165,252,cs),
(165,254,o),
(164,257,o),
(165,261,cs),
(176,310,ls),
(180,326,o),
(189,342,o),
(203,359,cs),
(266,441,o),
(322,481,o),
(373,481,cs),
(406,481,o),
(422,463,o),
(422,426,cs),
(422,345,o),
(288,247,o),
(177,247,cs)
);
}
);
width = 521;
}
);
unicode = 107;
userData = {
KernOnName = k;
};
}
{
color = 9;
glyphname = n;
kernLeft = KO_u;
kernRight = KO_n;
layers = (
{
anchors = (
{
name = bottom;
pos = (232,0);
},
{
name = top;
pos = (293,418);
},
{
name = us;
pos = (418,415);
},
{
name = zzcurly;
pos = (418,378);
}
);
layerId = master01;
shapes = (
{
closed = 1;
nodes = (
(105,-13,o),
(117,-8,o),
(120,1,cs),
(157,102,o),
(207,189,o),
(258,264,cs),
(309,339,o),
(349,377,o),
(377,377,cs),
(388,377,o),
(393,370,o),
(393,356,cs),
(393,345,o),
(387,319,o),
(377,284,cs),
(322,90,ls),
(314,62,o),
(311,41,o),
(311,25,cs),
(311,-1,o),
(320,-13,o),
(340,-13,cs),
(382,-13,o),
(450,42,o),
(475,77,cs),
(481,85,o),
(463,103,o),
(456,96,cs),
(426,66,o),
(403,56,o),
(392,56,cs),
(376,56,o),
(377,74,o),
(389,117,cs),
(435,277,ls),
(448,320,o),
(452,343,o),
(452,361,cs),
(452,399,o),
(434,416,o),
(397,416,cs),
(331,416,o),
(258,339,o),
(177,185,c),
(174,187,l),
(211,316,ls),
(219,344,o),
(225,365,o),
(225,381,cs),
(225,405,o),
(214,416,o),
(194,416,cs),
(156,416,o),
(82,361,o),
(57,326,cs),
(52,318,o),
(70,301,o),
(76,307,cs),
(106,337,o),
(130,347,o),
(140,347,cs),
(154,347,o),
(155,330,o),
(148,305,cs),
(62,3,ls),
(59,-8,o),
(67,-13,o),
(86,-13,cs)
);
}
);
width = 495;
},
{
anchors = (
{
name = bottom;
pos = (223,0);
},
{
name = top;
pos = (284,418);
},
{
name = us;
pos = (405,415);
},
{
name = zzcurly;
pos = (415,378);
}
);
layerId = "2438E31C-45B5-47A7-9B3D-1A0FEFB47671";
shapes = (
{
closed = 1;
nodes = (
(107,-13,o),
(124,-9,o),
(127,0,cs),
(151,69,o),
(189,146,o),
(238,233,cs),
(287,320,o),
(327,363,o),
(352,363,cs),
(360,363,o),
(365,356,o),
(365,343,cs),
(365,330,o),
(363,316,o),
(353,283,cs),
(300,110,ls),
(291,80,o),
(286,56,o),
(286,37,cs),
(286,3,o),
(302,-13,o),
(335,-13,cs),
(378,-13,o),
(442,43,o),
(474,82,cs),
(479,89,o),
(455,115,o),
(447,107,cs),
(422,81,o),
(406,67,o),
(396,67,cs),
(387,67,o),
(391,85,o),
(404,128,cs),
(452,287,ls),
(460,314,o),
(465,337,o),
(465,355,cs),
(465,397,o),
(442,416,o),
(395,416,cs),
(328,416,o),
(264,359,o),
(199,244,c),
(195,246,l),
(213,304,ls),
(222,333,o),
(229,356,o),
(229,374,cs),
(229,403,o),
(214,416,o),
(187,416,cs),
(138,416,o),
(78,359,o),
(46,320,cs),
(40,313,o),
(66,289,o),
(73,296,cs),
(98,322,o),
(115,336,o),
(124,336,cs),
(131,336,o),
(133,329,o),
(129,316,cs),
(31,0,ls),
(28,-8,o),
(43,-13,o),
(75,-13,cs)
);
}
);
width = 491;
},
{
anchors = (
{
name = bottom;
pos = (241,0);
},
{
name = top;
pos = (297,418);
},
{
name = us;
pos = (423,415);
},
{
name = zzcurly;
pos = (420,378);
}
);
layerId = "7904EAEE-2B64-409E-B923-0048172372BE";
shapes = (
{
closed = 1;
nodes = (
(106,-13,o),
(116,-8,o),
(120,1,cs),
(166,111,o),
(215,202,o),
(266,274,cs),
(317,346,o),
(357,382,o),
(386,382,cs),
(397,382,o),
(403,375,o),
(403,360,cs),
(403,351,o),
(397,325,o),
(386,285,cs),
(331,83,ls),
(324,56,o),
(320,35,o),
(320,19,cs),
(320,-3,o),
(328,-13,o),
(343,-13,cs),
(377,-13,o),
(454,40,o),
(479,74,cs),
(485,82,o),
(468,98,o),
(461,91,cs),
(430,60,o),
(401,46,o),
(389,46,cs),
(371,46,o),
(374,65,o),
(387,111,cs),
(433,280,ls),
(442,313,o),
(448,340,o),
(448,361,cs),
(448,399,o),
(431,416,o),
(400,416,cs),
(333,416,o),
(257,332,o),
(172,166,c),
(168,167,l),
(210,320,ls),
(218,348,o),
(224,369,o),
(224,385,cs),
(224,406,o),
(214,416,o),
(198,416,cs),
(164,416,o),
(87,363,o),
(61,329,cs),
(56,322,o),
(71,304,o),
(79,312,cs),
(114,346,o),
(138,357,o),
(148,357,cs),
(160,357,o),
(166,339,o),
(156,302,cs),
(74,4,ls),
(71,-8,o),
(77,-13,o),
(91,-13,cs)
);
}
);
width = 501;
},
{
anchors = (
{
name = bottom;
pos = (179,0);
},
{
name = top;
pos = (250,418);
},
{
name = us;
pos = (385,415);
},
{
name = zzcurly;
pos = (344,378);
}
);
layerId = "E06D8587-1A71-4EC2-BD94-397D882F5FC1";
shapes = (
{
closed = 1;
nodes = (
(75,-13,o),
(88,-9,o),
(91,0,cs),
(121,91,o),
(162,175,o),
(207,253,cs),
(252,331,o),
(285,377,o),
(309,377,cs),
(316,377,o),
(320,370,o),
(320,359,cs),
(320,346,o),
(313,319,o),
(303,284,cs),
(249,97,ls),
(240,66,o),
(235,38,o),
(235,21,cs),
(235,-1,o),
(243,-13,o),
(260,-13,cs),
(291,-13,o),
(352,40,o),
(379,83,cs),
(384,91,o),
(361,101,o),
(358,97,cs),
(340,73,o),
(320,60,o),
(312,60,cs),
(303,60,o),
(306,77,o),
(318,119,cs),
(361,274,ls),
(371,310,o),
(380,349,o),
(380,368,cs),
(380,401,o),
(365,416,o),
(333,416,cs),
(282,416,o),
(223,347,o),
(153,204,c),
(150,206,l),
(182,312,ls),
(191,342,o),
(196,364,o),
(196,383,cs),
(196,405,o),
(188,416,o),
(170,416,cs),
(137,416,o),
(79,361,o),
(52,321,cs),
(46,312,o),
(65,297,o),
(72,305,cs),
(94,331,o),
(111,343,o),
(119,343,cs),
(126,343,o),
(130,333,o),
(123,309,cs),
(32,2,ls),
(29,-8,o),
(38,-13,o),
(57,-13,cs)
);
}
);
width = 397;
},
{
anchors = (
{
name = bottom;
pos = (282,0);
},
{
name = top;
pos = (335,418);
},
{
name = us;
pos = (535,415);
},
{
name = zzcurly;
pos = (492,378);
}
);
layerId = "8F7CDE40-C368-4484-AA71-76B7ABD5539F";
shapes = (
{
closed = 1;
nodes = (
(123,-13,o),
(134,-8,o),
(138,1,cs),
(184,115,o),
(242,202,o),
(301,273,cs),
(361,346,o),
(407,377,o),
(438,377,cs),
(452,377,o),
(459,370,o),
(459,355,cs),
(459,346,o),
(456,322,o),
(445,285,cs),
(386,83,ls),
(379,57,o),
(375,37,o),
(375,22,cs),
(375,-2,o),
(385,-13,o),
(405,-13,cs),
(446,-13,o),
(532,42,o),
(558,71,cs),
(563,76,o),
(545,97,o),
(537,90,cs),
(505,62,o),
(474,52,o),
(464,52,cs),
(441,52,o),
(441,71,o),
(454,115,cs),
(504,280,ls),
(514,312,o),
(519,337,o),
(519,357,cs),
(519,398,o),
(498,416,o),
(459,416,cs),
(380,416,o),
(291,333,o),
(196,167,c),
(192,168,l),
(238,320,ls),
(247,346,o),
(252,366,o),
(252,381,cs),
(252,405,o),
(240,416,o),
(217,416,cs),
(175,416,o),
(88,361,o),
(62,332,cs),
(56,325,o),
(77,307,o),
(83,313,cs),
(115,341,o),
(146,351,o),
(156,351,cs),
(173,351,o),
(181,335,o),
(170,302,cs),
(79,4,ls),
(76,-8,o),
(85,-13,o),
(103,-13,cs)
);
}
);
width = 580;
},
{
anchors = (
{
name = bottom;
pos = (356,8);
},
{
name = top;
pos = (451,680);
},
{
name = us;
pos = (700,680);
},
{
name = zzcurly;
pos = (648,631);
}
);
layerId = "997BDFA1-EC67-4686-8CFE-E56BDBE179FE";
shapes = (
{
closed = 1;
nodes = (
(143,-13,o),
(157,-5,o),
(163,11,cs),
(235,195,o),
(319,344,o),
(401,453,cs),
(487,568,o),
(552,624,o),
(595,624,cs),
(613,624,o),
(622,613,o),
(622,589,cs),
(622,576,o),
(615,537,o),
(595,465,cs),
(506,139,ls),
(494,94,o),
(488,60,o),
(488,36,cs),
(488,2,o),
(499,-13,o),
(523,-13,cs),
(573,-13,o),
(665,38,o),
(736,124,cs),
(745,134,o),
(722,163,o),
(710,151,cs),
(660,101,o),
(621,88,o),
(601,88,cs),
(576,88,o),
(570,118,o),
(590,190,cs),
(666,459,ls),
(680,510,o),
(688,554,o),
(688,588,cs),
(688,650,o),
(663,676,o),
(611,676,cs),
(508,676,o),
(383,539,o),
(245,267,c),
(239,270,l),
(308,524,ls),
(320,568,o),
(329,602,o),
(329,626,cs),
(329,660,o),
(314,676,o),
(289,676,cs),
(234,676,o),
(145,625,o),
(74,539,cs),
(65,528,o),
(90,502,o),
(100,512,cs),
(150,562,o),
(193,575,o),
(209,575,cs),
(232,575,o),
(238,543,o),
(224,491,cs),
(94,14,ls),
(89,-5,o),
(99,-13,o),
(120,-13,cs)
);
}
);
width = 773;
}
);
unicode = 110;
userData = {
KernOnName = n;
};
}
{
color = 9;
glyphname = r;
kernLeft = KO_n;
kernRight = KO_r;
layers = (
{
anchors = (
{
name = bottom;
pos = (148,0);
},
{
name = cedilla;
pos = (77,0);
},
{
name = top;
pos = (244,416);
},
{
name = us;
pos = (409,415);
},
{
name = zzcurly;
pos = (341,378);
}
);
layerId = master01;
shapes = (
{
closed = 1;
nodes = (
(111,-13,o),
(117,-8,o),
(120,2,cs),
(138,79,o),
(174,155,o),
(221,232,cs),
(267,310,o),
(295,348,o),
(325,348,cs),
(343,348,o),
(342,334,o),
(366,334,cs),
(391,334,o),
(411,351,o),
(411,375,cs),
(411,401,o),
(390,416,o),
(363,416,cs),
(306,416,o),
(251,352,o),
(183,223,c),
(179,224,l),
(204,316,ls),
(212,346,o),
(215,362,o),
(215,375,cs),
(215,402,o),
(206,416,o),
(187,416,cs),
(150,416,o),
(80,359,o),
(55,323,cs),
(50,316,o),
(68,298,o),
(74,304,cs),
(104,334,o),
(123,347,o),
(133,347,cs),
(141,347,o),
(145,340,o),
(145,330,cs),
(145,321,o),
(142,311,o),
(141,305,cs),
(59,0,ls),
(57,-9,o),
(60,-13,o),
(88,-13,cs)
);
}
);
width = 372;
},
{
anchors = (
{
name = bottom;
pos = (156,0);
},
{
name = cedilla;
pos = (89,0);
},
{
name = top;
pos = (237,416);
},
{
name = us;
pos = (418,415);
},
{
name = zzcurly;
pos = (350,378);
}
);
layerId = "2438E31C-45B5-47A7-9B3D-1A0FEFB47671";
shapes = (
{
closed = 1;
nodes = (
(139,-13,o),
(156,-9,o),
(158,0,cs),
(184,97,o),
(212,179,o),
(242,243,cs),
(272,306,o),
(296,338,o),
(317,338,cs),
(337,338,o),
(347,310,o),
(379,310,cs),
(406,310,o),
(424,331,o),
(424,359,cs),
(424,397,o),
(393,416,o),
(360,416,cs),
(311,416,o),
(260,369,o),
(214,275,c),
(208,277,l),
(214,304,ls),
(221,337,o),
(225,356,o),
(225,371,cs),
(225,400,o),
(207,416,o),
(182,416,cs),
(134,416,o),
(76,359,o),
(46,320,cs),
(38,311,o),
(63,288,o),
(70,294,cs),
(97,322,o),
(111,336,o),
(120,336,cs),
(125,336,o),
(128,333,o),
(128,329,cs),
(128,326,o),
(128,324,o),
(127,316,cs),
(61,0,ls),
(59,-7,o),
(74,-13,o),
(109,-13,cs)
);
}
);
width = 387;
},
{
anchors = (
{
name = bottom;
pos = (144,0);
},
{
name = cedilla;
pos = (71,0);
},
{
name = top;
pos = (225,416);
},
{
name = us;
pos = (412,415);
},
{
name = zzcurly;
pos = (344,378);
}
);
layerId = "7904EAEE-2B64-409E-B923-0048172372BE";
shapes = (
{
closed = 1;
nodes = (
(100,-13,o),
(103,-8,o),
(106,2,cs),
(123,73,o),
(159,148,o),
(212,229,cs),
(264,311,o),
(299,352,o),
(326,352,cs),
(340,352,o),
(347,342,o),
(363,342,cs),
(383,342,o),
(405,358,o),
(405,382,cs),
(405,404,o),
(388,416,o),
(363,416,cs),
(303,416,o),
(247,346,o),
(172,206,c),
(167,207,l),
(199,320,ls),
(207,349,o),
(210,364,o),
(210,377,cs),
(210,402,o),
(203,416,o),
(187,416,cs),
(153,416,o),
(82,359,o),
(58,325,cs),
(52,318,o),
(70,302,o),
(75,307,cs),
(106,338,o),
(127,351,o),
(136,351,cs),
(146,351,o),
(150,342,o),
(150,330,cs),
(150,319,o),
(147,307,o),
(146,302,cs),
(60,0,ls),
(57,-10,o),
(59,-13,o),
(80,-13,cs)
);
}
);
width = 366;
},
{
anchors = (
{
name = bottom;
pos = (109,0);
},
{
name = cedilla;
pos = (54,0);
},
{
name = top;
pos = (202,416);
},
{
name = us;
pos = (365,415);
},
{
name = zzcurly;
pos = (294,378);
}
);
layerId = "E06D8587-1A71-4EC2-BD94-397D882F5FC1";
shapes = (
{
closed = 1;
nodes = (
(84,-13,o),
(95,-10,o),
(98,1,cs),
(122,86,o),
(151,163,o),
(188,237,cs),
(227,315,o),
(251,348,o),
(270,348,cs),
(285,348,o),
(287,330,o),
(308,330,cs),
(329,330,o),
(347,348,o),
(347,376,cs),
(347,402,o),
(330,416,o),
(308,416,cs),
(264,416,o),
(216,359,o),
(162,243,c),
(158,244,l),
(176,312,ls),
(186,350,o),
(189,365,o),
(189,381,cs),
(189,403,o),
(180,416,o),
(165,416,cs),
(133,416,o),
(78,364,o),
(50,323,cs),
(44,314,o),
(64,299,o),
(71,308,cs),
(89,331,o),
(104,343,o),
(112,343,cs),
(116,343,o),
(119,338,o),
(119,332,cs),
(119,323,o),
(117,313,o),
(116,309,cs),
(36,0,ls),
(34,-8,o),
(38,-13,o),
(65,-13,cs)
);
}
);
width = 307;
},
{
anchors = (
{
name = bottom;
pos = (189,0);
},
{
name = cedilla;
pos = (102,0);
},
{
name = top;
pos = (279,416);
},
{
name = us;
pos = (467,415);
},
{
name = zzcurly;
pos = (401,378);
}
);
layerId = "8F7CDE40-C368-4484-AA71-76B7ABD5539F";
shapes = (
{
closed = 1;
nodes = (
(137,-13,o),
(141,-10,o),
(144,5,cs),
(158,76,o),
(201,155,o),
(251,229,cs),
(305,309,o),
(335,348,o),
(374,348,cs),
(395,348,o),
(390,338,o),
(417,338,cs),
(446,338,o),
(469,353,o),
(469,375,cs),
(469,401,o),
(443,416,o),
(412,416,cs),
(342,416,o),
(283,347,o),
(204,204,c),
(199,204,l),
(227,320,ls),
(233,345,o),
(236,359,o),
(236,371,cs),
(236,401,o),
(223,416,o),
(204,416,cs),
(163,416,o),
(83,359,o),
(59,327,cs),
(52,318,o),
(71,301,o),
(78,307,cs),
(115,340,o),
(138,351,o),
(148,351,cs),
(159,351,o),
(166,342,o),
(166,325,cs),
(166,317,o),
(164,306,o),
(163,302,cs),
(84,0,ls),
(82,-8,o),
(81,-13,o),
(113,-13,cs)
);
}
);
width = 431;
},
{
anchors = (
{
name = bottom;
pos = (205,8);
},
{
name = cedilla;
pos = (88,8);
},
{
name = top;
pos = (358,676);
},
{
name = us;
pos = (630,676);
},
{
name = zzcurly;
pos = (541,627);
}
);
layerId = "997BDFA1-EC67-4686-8CFE-E56BDBE179FE";
shapes = (
{
closed = 1;
nodes = (
(129,-13,o),
(130,-4,o),
(134,14,cs),
(159,124,o),
(225,245,o),
(309,373,cs),
(401,513,o),
(452,576,o),
(501,576,cs),
(526,576,o),
(523,564,o),
(552,564,cs),
(588,564,o),
(623,588,o),
(623,625,cs),
(623,656,o),
(598,676,o),
(559,676,cs),
(462,676,o),
(370,559,o),
(242,323,c),
(236,323,l),
(293,526,ls),
(306,570,o),
(310,592,o),
(310,615,cs),
(310,654,o),
(302,676,o),
(279,676,cs),
(227,676,o),
(107,584,o),
(70,531,cs),
(62,520,o),
(87,495,o),
(97,504,cs),
(147,555,o),
(183,575,o),
(198,575,cs),
(213,575,o),
(221,560,o),
(221,538,cs),
(221,520,o),
(215,498,o),
(213,490,cs),
(70,8,ls),
(65,-8,o),
(65,-13,o),
(98,-13,cs)
);
}
);
width = 561;
}
);
unicode = 114;
userData = {
KernOnName = r;
};
}
